<svg xmlns="http://www.w3.org/2000/svg" xmlns:xlink="http://www.w3.org/1999/xlink" version="1.1" id="Слой_1" x="0px" y="0px" width="141.3px" height="32.9px" viewBox="-127.7 184.1 141.3 32.9" style="enable-background:new -127.7 184.1 141.3 32.9;" xml:space="preserve">
<style type="text/css">
	.st0{fill:#FFFFFF;}
	.st1{fill:#FCFBFA;}
	.st2{fill:#252526;}
	.st3{fill:#E0E0E0;}
	.st4{fill:#56555C;}
</style>
<path class="st0" d="M-111.8,217c-1.8,0-3.5-0.4-5.1-1c-1.6-0.7-3-1.6-4.1-2.9c-1.2-1.2-2.1-2.6-2.7-4.2c-0.2-0.6-0.4-1.2-0.6-1.9  h-0.1l-0.1-1c-1.2-0.5-2.1-1.7-2.4-2.8c-0.4-1.4-0.8-3.5-0.9-5.4c0-1.5,0.8-2.9,2.2-3.5c0.9-0.4,2.2-0.8,3.7-1c1-2.1,2.1-4,3.3-5.4  c2.1-2.5,4.4-3.8,6.8-3.8c2.4,0,4.7,1.3,6.8,3.8c1.2,1.4,2.3,3.2,3.2,5.4c1.5,0.3,2.8,0.6,3.8,1c1.4,0.6,2.2,2,2.2,3.5  c-0.1,2.2-0.6,4.6-0.9,5.5c-0.3,1.2-1.2,2.4-2.4,2.8l-0.1,1h-0.1c-0.1,0.6-0.3,1.3-0.6,1.9c-0.6,1.6-1.5,3-2.7,4.2s-2.6,2.2-4.1,2.9  C-108.2,216.6-109.9,217-111.8,217z"/>

<g>
	<g>
		<path class="" d="M-78.3,203.1c-0.1,0.5-0.4,1-0.7,1.4c-0.3,0.4-0.7,0.8-1.1,1.1c-0.4,0.3-0.9,0.6-1.5,0.8    c-0.6,0.2-1.2,0.3-1.9,0.3c-0.8,0-1.5-0.1-2.3-0.4c-0.7-0.3-1.3-0.7-1.9-1.2c-0.5-0.5-1-1.2-1.3-1.9c-0.3-0.8-0.5-1.6-0.5-2.6    c0-0.9,0.2-1.7,0.5-2.5c0.3-0.7,0.7-1.4,1.2-1.9s1.1-0.9,1.8-1.2s1.4-0.4,2.1-0.4c1.8,0,3.2,0.5,4.2,1.6s1.5,2.5,1.5,4.3    c0,0.2,0,0.4,0,0.6s0,0.3,0,0.3h-8.2c0,0.4,0.1,0.7,0.3,1c0.2,0.3,0.4,0.6,0.6,0.8c0.3,0.2,0.6,0.4,0.9,0.5s0.7,0.2,1.1,0.2    c0.7,0,1.3-0.2,1.7-0.5c0.4-0.3,0.7-0.7,0.9-1.3L-78.3,203.1z M-81.2,199.3c0-0.3-0.1-0.6-0.2-0.8c-0.1-0.3-0.3-0.5-0.5-0.7    s-0.5-0.4-0.8-0.5s-0.7-0.2-1.1-0.2c-0.4,0-0.8,0.1-1.1,0.2c-0.3,0.1-0.6,0.3-0.8,0.5c-0.2,0.2-0.4,0.5-0.5,0.7    c-0.1,0.3-0.2,0.5-0.2,0.8H-81.2z"/>
		<path class="" d="M-74.6,206.2c0.1,0.6,0.4,1.2,0.9,1.6c0.5,0.4,1.1,0.6,1.8,0.6c1,0,1.7-0.3,2.3-0.8c0.5-0.5,0.8-1.3,0.8-2.4    v-0.8c-0.2,0.4-0.6,0.7-1.1,1s-1.2,0.5-2,0.5c-0.8,0-1.5-0.1-2.1-0.4c-0.6-0.3-1.2-0.7-1.7-1.2s-0.8-1.1-1.1-1.8s-0.4-1.4-0.4-2.2    s0.1-1.5,0.4-2.1c0.3-0.7,0.6-1.3,1.1-1.8s1-0.9,1.7-1.2c0.6-0.3,1.4-0.4,2.2-0.4c0.9,0,1.6,0.2,2.2,0.5c0.5,0.3,0.9,0.7,1.1,1.1    v-1.3h3v10.2c0,0.8-0.1,1.5-0.3,2.3c-0.2,0.7-0.6,1.4-1.1,1.9s-1.1,1-1.9,1.3s-1.7,0.5-2.7,0.5c-0.8,0-1.5-0.1-2.1-0.3    c-0.6-0.2-1.2-0.5-1.7-0.9s-0.9-0.8-1.2-1.3c-0.3-0.5-0.5-1-0.6-1.6L-74.6,206.2z M-71.6,203.2c0.8,0,1.4-0.3,1.9-0.8    s0.8-1.2,0.8-2.1c0-0.9-0.3-1.6-0.8-2.1s-1.2-0.8-1.9-0.8c-0.4,0-0.7,0.1-1.1,0.2c-0.3,0.1-0.6,0.3-0.9,0.6    c-0.2,0.3-0.4,0.6-0.6,0.9c-0.1,0.4-0.2,0.8-0.2,1.2c0,0.9,0.3,1.6,0.8,2.1S-72.4,203.2-71.6,203.2z"/>
		<path class="" d="M-61.9,206.2c0.1,0.6,0.4,1.2,0.9,1.6c0.5,0.4,1.1,0.6,1.8,0.6c1,0,1.7-0.3,2.3-0.8c0.5-0.5,0.8-1.3,0.8-2.4    v-0.8c-0.2,0.4-0.6,0.7-1.1,1s-1.2,0.5-2,0.5s-1.5-0.1-2.1-0.4c-0.6-0.3-1.2-0.7-1.7-1.2s-0.8-1.1-1.1-1.8    c-0.3-0.7-0.4-1.4-0.4-2.2s0.1-1.5,0.4-2.1c0.3-0.7,0.6-1.3,1.1-1.8s1-0.9,1.7-1.2c0.6-0.3,1.4-0.4,2.2-0.4c0.9,0,1.6,0.2,2.2,0.5    c0.5,0.3,0.9,0.7,1.1,1.1v-1.3h3v10.2c0,0.8-0.1,1.5-0.3,2.3c-0.2,0.7-0.6,1.4-1.1,1.9s-1.1,1-1.9,1.3c-0.8,0.3-1.7,0.5-2.7,0.5    c-0.8,0-1.5-0.1-2.1-0.3s-1.2-0.5-1.7-0.9s-0.9-0.8-1.2-1.3c-0.3-0.5-0.5-1-0.6-1.6L-61.9,206.2z M-58.8,203.2    c0.8,0,1.4-0.3,1.9-0.8s0.8-1.2,0.8-2.1c0-0.9-0.3-1.6-0.8-2.1s-1.2-0.8-1.9-0.8c-0.4,0-0.7,0.1-1.1,0.2c-0.3,0.1-0.6,0.3-0.9,0.6    c-0.2,0.3-0.4,0.6-0.6,0.9c-0.1,0.4-0.2,0.8-0.2,1.2c0,0.9,0.3,1.6,0.8,2.1C-60.3,202.9-59.6,203.2-58.8,203.2z"/>
		<path class="" d="M-48.4,206.3h-3v-16.8h3v6.3c0.4-0.4,0.8-0.8,1.4-1c0.6-0.2,1.1-0.3,1.7-0.3c0.7,0,1.4,0.1,1.9,0.4    c0.5,0.2,1,0.6,1.3,1c0.3,0.4,0.6,0.9,0.8,1.4c0.2,0.6,0.3,1.1,0.3,1.8v7.2h-3.1v-6.7c0-0.6-0.2-1.2-0.5-1.6    c-0.3-0.4-0.9-0.7-1.6-0.7c-0.7,0-1.2,0.2-1.5,0.6c-0.4,0.4-0.6,1-0.6,1.6v6.8H-48.4z"/>
		<path class="" d="M-29.1,203.1c-0.1,0.5-0.4,1-0.7,1.4c-0.3,0.4-0.7,0.8-1.1,1.1s-0.9,0.6-1.5,0.8c-0.6,0.2-1.2,0.3-1.9,0.3    c-0.8,0-1.5-0.1-2.3-0.4c-0.7-0.3-1.3-0.7-1.9-1.2c-0.5-0.5-1-1.2-1.3-1.9c-0.3-0.8-0.5-1.6-0.5-2.6c0-0.9,0.2-1.7,0.5-2.5    c0.3-0.7,0.7-1.4,1.2-1.9s1.1-0.9,1.8-1.2c0.7-0.3,1.4-0.4,2.1-0.4c1.8,0,3.2,0.5,4.2,1.6s1.5,2.5,1.5,4.3c0,0.2,0,0.4,0,0.6    s0,0.3,0,0.3h-8.2c0,0.4,0.1,0.7,0.3,1s0.4,0.6,0.6,0.8c0.3,0.2,0.6,0.4,0.9,0.5s0.7,0.2,1.1,0.2c0.7,0,1.3-0.2,1.7-0.5    s0.7-0.7,0.9-1.3L-29.1,203.1z M-32,199.3c0-0.3-0.1-0.6-0.2-0.8c-0.1-0.3-0.3-0.5-0.5-0.7s-0.5-0.4-0.8-0.5s-0.7-0.2-1.1-0.2    c-0.4,0-0.8,0.1-1.1,0.2c-0.3,0.1-0.6,0.3-0.8,0.5c-0.2,0.2-0.4,0.5-0.5,0.7c-0.1,0.3-0.2,0.5-0.2,0.8H-32z"/>
		<path class="" d="M-28.1,203.2c0-0.5,0.1-1,0.3-1.4c0.2-0.4,0.4-0.7,0.7-1s0.7-0.5,1.1-0.7c0.4-0.2,0.9-0.3,1.3-0.4l2.8-0.4    c0.3,0,0.5-0.1,0.7-0.3c0.1-0.1,0.2-0.3,0.2-0.5c0-0.4-0.2-0.8-0.5-1c-0.3-0.3-0.8-0.4-1.5-0.4s-1.2,0.2-1.6,0.6    c-0.4,0.4-0.6,0.8-0.6,1.3l-2.7-0.6c0-0.4,0.2-0.9,0.4-1.3c0.2-0.4,0.5-0.9,1-1.2c0.4-0.4,0.9-0.6,1.5-0.9c0.6-0.2,1.3-0.3,2-0.3    c0.9,0,1.7,0.1,2.3,0.4c0.6,0.2,1.1,0.6,1.5,1s0.7,0.9,0.9,1.4c0.2,0.5,0.3,1.1,0.3,1.6v5.6c0,0.3,0,0.6,0,1    c0,0.3,0.1,0.6,0.1,0.8h-2.8c0-0.2-0.1-0.4-0.1-0.6c0-0.3,0-0.5,0-0.7c-0.3,0.4-0.7,0.8-1.3,1.2c-0.5,0.3-1.2,0.5-2.1,0.5    c-0.6,0-1.1-0.1-1.6-0.3s-0.9-0.4-1.2-0.8c-0.3-0.3-0.6-0.7-0.8-1.1C-28,204.1-28.1,203.7-28.1,203.2z M-23.5,204.4    c0.3,0,0.6,0,0.9-0.1c0.3-0.1,0.6-0.2,0.8-0.4c0.2-0.2,0.4-0.5,0.6-0.8c0.1-0.3,0.2-0.8,0.2-1.3v-0.5l-2.6,0.4    c-0.4,0.1-0.7,0.2-1,0.4s-0.4,0.6-0.4,1c0,0.3,0.1,0.6,0.4,0.9C-24.4,204.2-24,204.4-23.5,204.4z"/>
		<path class="" d="M-5.2,204.3c0,0.4,0,0.8,0,1.1c0,0.4,0,0.7,0.1,0.9H-8c0-0.1-0.1-0.3-0.1-0.6c0-0.2,0-0.5,0-0.8    c-0.3,0.4-0.7,0.8-1.2,1.1s-1.2,0.5-2,0.5s-1.6-0.2-2.3-0.5s-1.3-0.7-1.8-1.3c-0.5-0.5-0.9-1.2-1.1-1.9c-0.2-0.7-0.4-1.5-0.4-2.4    c0-0.8,0.1-1.6,0.4-2.3c0.3-0.7,0.6-1.4,1.1-1.9s1.1-1,1.7-1.3c0.6-0.3,1.4-0.5,2.2-0.5c0.5,0,0.9,0,1.3,0.1s0.7,0.2,0.9,0.3    c0.2,0.1,0.5,0.3,0.6,0.5c0.2,0.2,0.3,0.3,0.4,0.5v-6.5h3v15H-5.2z M-13.8,200.6c0,1,0.3,1.8,0.8,2.4c0.5,0.6,1.2,0.9,2,0.9    s1.5-0.3,2-0.9s0.8-1.4,0.8-2.4s-0.3-1.8-0.8-2.4s-1.2-0.8-2-0.8s-1.5,0.3-2,0.8C-13.5,198.8-13.8,199.6-13.8,200.6z"/>
		<path class="" d="M-2.7,205.1c0-0.3,0.1-0.6,0.3-0.8s0.5-0.3,0.8-0.3s0.6,0.1,0.8,0.3s0.3,0.5,0.3,0.8s-0.1,0.6-0.3,0.8    s-0.5,0.3-0.8,0.3s-0.6-0.1-0.8-0.3S-2.7,205.5-2.7,205.1z"/>
		<g>
			<path class="" d="M2.1,206.2v-6.5h1.6v6.5H2.1z"/>
			<path class="" d="M2.1,199.2v-1.3h1.6v1.3H2.1z"/>
		</g>
		<path class="" d="M9.4,197.8c0.6,0,1.2,0.1,1.7,0.3s0.9,0.5,1.3,0.9s0.7,0.8,0.9,1.4c0.2,0.5,0.3,1.1,0.3,1.7    c0,0.6-0.1,1.2-0.3,1.7c-0.2,0.5-0.5,1-0.9,1.4s-0.8,0.7-1.3,0.9s-1.1,0.3-1.7,0.3s-1.2-0.1-1.7-0.3s-0.9-0.5-1.3-0.9    s-0.7-0.8-0.9-1.4c-0.2-0.5-0.3-1.1-0.3-1.7c0-0.6,0.1-1.2,0.3-1.7c0.2-0.5,0.5-1,0.9-1.4s0.8-0.7,1.3-0.9S8.8,197.8,9.4,197.8z     M9.4,205.1c0.3,0,0.7-0.1,1-0.2c0.3-0.1,0.6-0.3,0.8-0.6c0.2-0.2,0.4-0.6,0.6-0.9c0.1-0.4,0.2-0.8,0.2-1.3s-0.1-0.9-0.2-1.2    c-0.1-0.4-0.3-0.7-0.6-0.9c-0.2-0.2-0.5-0.4-0.8-0.6c-0.3-0.1-0.6-0.2-1-0.2s-0.7,0.1-1,0.2c-0.3,0.1-0.6,0.3-0.8,0.6    c-0.2,0.2-0.4,0.6-0.6,0.9c-0.1,0.4-0.2,0.8-0.2,1.2c0,0.5,0.1,0.9,0.2,1.3c0.1,0.4,0.3,0.7,0.6,0.9c0.2,0.2,0.5,0.4,0.8,0.6    C8.7,205,9,205.1,9.4,205.1z"/>
	</g>
</g>
<g>
	<path class="st1" d="M-111.8,186.4c5.7,0,10.3,12.2,10.3,17.9s-4.6,10.3-10.3,10.3c-5.7,0-10.3-4.6-10.3-10.3   S-117.5,186.4-111.8,186.4z"/>
	<g>
		<path class="st2" d="M-98.8,196.3l-4.2,1.5c0,0,0.6,2,0.7,2l4.2-0.5L-98.8,196.3z"/>
		<path class="st2" d="M-124.8,196.3l4.2,1.5c0,0-0.6,2-0.7,2l-4.2-0.5L-124.8,196.3z"/>
	</g>
	<path class="st3" d="M-116.1,195.9c1.1,0,1.3,0.9,1.3,1.1c0.1,0.6,0.2,1.4,0.3,2.2c0,0.2,0,0.4-0.1,0.6c-0.1-0.5-0.1-1-0.2-1.5   c0-0.2-0.3-1.1-1.3-1.1c-0.6,0-2.7,0.1-4.7,0.4c0.1-0.5,0.3-0.9,0.5-1.4C-118.5,196-116.8,195.9-116.1,195.9z"/>
	<path class="st3" d="M-101.5,203.8c-3.7-0.2-6.9-1.4-7.6-1.8c-0.6-0.3-1.3-0.8-1.5-2.2c-0.1,1.6,0.2,3,1.6,3.7   c0.1,0.1,2.9,1.4,7.4,1.7c0-0.3,0-0.6,0-0.9C-101.5,204.2-101.5,204-101.5,203.8z"/>
	<path class="st3" d="M-122,203.8c3.7-0.2,6.9-1.4,7.6-1.8c0.6-0.3,1.3-0.8,1.5-2.2c0.1,1.6-0.2,3-1.6,3.7c-0.1,0.1-2.9,1.4-7.4,1.7   c0-0.3,0-0.6,0-0.9C-122.1,204.2-122.1,204-122,203.8z"/>
	<path class="st3" d="M-107.5,195.9c-1.1,0-1.3,0.9-1.3,1.1c-0.1,0.6-0.2,1.4-0.3,2.2c0,0.2,0,0.4,0.1,0.6c0.1-0.5,0.1-1,0.2-1.5   c0-0.2,0.3-1.1,1.3-1.1c0.6,0,2.7,0.1,4.7,0.4c-0.1-0.5-0.3-0.9-0.5-1.4C-105.1,196-106.9,195.9-107.5,195.9z"/>
	<path class="st4" d="M-120.8,194.8c1-2.4,2.2-4.6,3.5-6.1c1.7-2.1,3.6-3.2,5.5-3.2c1.9,0,3.7,1.1,5.5,3.2c1.3,1.6,2.5,3.7,3.5,6.1   v0.1h-0.1c-0.4,0-0.6-0.1-1-0.1l0,0l0,0c-1.1-2.7-3.1-6.1-5.6-7.6c-0.8-0.4-1.5-0.7-2.3-0.7s-1.5,0.2-2.3,0.7   c-2.5,1.4-4.4,4.9-5.6,7.6l0,0l0,0c-0.4,0-0.6,0.1-1,0.1h-0.1V194.8z"/>
	<path class="st4" d="M-101.4,202.6c-0.3,0-0.6,0-0.8,0h-0.1v-0.1c-0.2-2-0.8-4.2-1.6-6.4l-0.1-0.2h0.2c0.3,0,0.6,0.1,0.9,0.1h0.1   v0.1c0.7,2.2,1.3,4.5,1.5,6.4v0.1L-101.4,202.6z"/>
	<path class="st2" d="M-102.3,197.6c-0.2-0.5-0.3-1-0.5-1.5V196h-0.1c-0.3-0.1-0.6-0.1-0.9-0.1h-0.2l0.1,0.2c0.2,0.5,0.3,1,0.5,1.5   C-102.9,197.5-102.6,197.6-102.3,197.6z"/>
	<path class="st4" d="M-122.2,202.4c0.2-1.9,0.8-4.2,1.5-6.4v-0.1h0.1c0.3,0,0.6-0.1,0.9-0.1h0.2l-0.1,0.2c-0.8,2.2-1.3,4.5-1.6,6.4   v0.1h-0.1c-0.3,0-0.6,0-0.8,0L-122.2,202.4L-122.2,202.4z"/>
	<path class="st2" d="M-120.6,196L-120.6,196L-120.6,196c-0.3,0.6-0.4,1.1-0.6,1.6c0.5-0.1,0.7-0.1,1.1-0.1c0.2-0.5,0.3-1,0.5-1.5   l0.1-0.2h-0.2C-120,195.9-120.3,195.9-120.6,196z"/>
	<path class="st4" d="M-111.8,215.5c-1.5,0-3-0.3-4.4-0.9c-1.4-0.6-2.6-1.4-3.6-2.5s-1.8-2.3-2.4-3.7c-0.6-1.4-0.8-3-0.8-4.6v-0.1   h0.1c0.4,0,0.6,0,0.9,0h0.1v0.1c-0.1,1.5,0.2,2.8,0.7,4.2c0.5,1.3,1.2,2.4,2.1,3.4c0.9,1,2.1,1.8,3.3,2.3c1.3,0.6,2.6,0.8,4,0.8   c1.4,0,2.8-0.3,4-0.8s2.4-1.3,3.3-2.3c0.9-1,1.7-2.1,2.1-3.4c0.5-1.3,0.7-2.7,0.7-4.2v-0.1h0.1c0.4,0,0.6,0,0.9,0h0.1v0.1   c0.1,1.6-0.2,3.1-0.8,4.6c-0.5,1.4-1.3,2.6-2.4,3.7c-1,1.1-2.3,1.9-3.6,2.5C-108.8,215.2-110.3,215.5-111.8,215.5z"/>
	<path class="st2" d="M-121.9,205.2c0-0.4,0-0.9,0-1.3v-0.1h-0.1c-0.3,0-0.5,0-0.9,0h-0.1v0.1c0,0.5,0,0.9,0,1.3l0,0   C-122.6,205.2-122.3,205.2-121.9,205.2L-121.9,205.2z"/>
	<path class="st2" d="M-100.6,203.8L-100.6,203.8c-0.3,0-0.6,0-0.9,0h-0.1v0.1c0,0.5,0,0.9,0,1.3h1   C-100.6,204.7-100.6,204.3-100.6,203.8L-100.6,203.8z"/>
	<path class="st2" d="M-100,204.4c-2.3,0-4.4-0.5-6.4-1c-1-0.3-1.9-0.7-2.6-1v-0.1c-1.7-0.8-1.8-2.5-1.7-4.1c0-0.4-0.1-0.9-0.5-1.2   c-0.2-0.1-0.4-0.2-0.6-0.2s-0.5,0.1-0.6,0.2c-0.4,0.3-0.5,0.8-0.5,1.2c0.2,1.5,0.1,3.2-1.7,4l0,0c-0.7,0.3-1.6,0.9-2.6,1.2   c-2,0.5-4.1,1-6.4,1l0,0c-0.9,0-1.7-0.8-1.9-1.7c-0.3-1.3-0.8-3.3-0.8-5.1c0-0.7,0.4-1.4,1.1-1.7c2.4-1.1,7.3-1.5,9.4-1.5   c0.8,0,1.4,0.3,1.9,0.8c0.7-0.3,1.4-0.5,2.1-0.5s1.4,0.2,2.1,0.5c0.4-0.4,1-0.8,1.9-0.8c1.2,0,6.6,0.2,9.4,1.4   c0.7,0.3,1.1,1,1.1,1.7c-0.1,1.8-0.5,3.9-0.8,5.2C-98.3,203.6-99.1,204.4-100,204.4L-100,204.4z M-107.5,196c-1,0-1.2,0.9-1.3,1   c-0.1,0.5-0.2,1.3-0.3,2.2c0,0.8,0.3,1.4,0.9,1.7c2.2,1,4.8,1.5,7.8,1.5c0.2,0,0.4-0.2,0.5-0.4c0.3-1.1,0.7-2.8,0.7-4.4   c0-0.1-0.1-0.3-0.2-0.3C-101.4,196.3-105.8,196-107.5,196z M-124.3,197.2c-0.1,0.1-0.2,0.2-0.2,0.3c0,1.6,0.4,3.3,0.7,4.4   c0.1,0.2,0.3,0.4,0.5,0.4c3.1,0,5.6-0.5,7.8-1.5c0.6-0.3,0.9-0.9,0.9-1.7c0-0.7-0.1-1.4-0.3-2.2c0-0.2-0.2-1-1.3-1   C-117.1,196-122,196.2-124.3,197.2z"/>
</g>
</svg>
