<?xml version="1.0" encoding="UTF-8" standalone="no"?>
<svg width="301px" height="84px" viewBox="0 0 301 84" version="1.1" xmlns="http://www.w3.org/2000/svg" xmlns:xlink="http://www.w3.org/1999/xlink">
    <!-- Generator: Sketch 41.2 (35397) - http://www.bohemiancoding.com/sketch -->
    <title>eb-logo-gradient-black-text</title>
    <desc>Created with Sketch.</desc>
    <defs>
        <linearGradient x1="107.5%" y1="-1.20238095%" x2="7.55952381%" y2="87.7857143%" id="linearGradient-1">
            <stop stop-color="#36B989" offset="0%"></stop>
            <stop stop-color="#6ACDE8" offset="100%"></stop>
        </linearGradient>
    </defs>
    <g id="Page-1" stroke="none" stroke-width="1" fill="none" fill-rule="evenodd">
        <g id="eb-logo-gradient-black-text">
            <g id="Page-1">
                <g id="eb-logo-gradient">
                    <path d="M111.44,54.43 C113.84,54.43 115.65,53.23 116.2,51.52 C116.304059,51.0273589 116.758168,50.6889193 117.26,50.73 L119.62,50.73 C119.860344,50.7061266 120.097215,50.8010478 120.254563,50.9842882 C120.411911,51.1675287 120.469933,51.4160268 120.41,51.65 C119.86,55.65 116.25,58.58 111.41,58.58 C106.407196,58.7103033 102.221816,54.8095821 102,49.81 C101.860875,47.655577 101.860875,45.494423 102,43.34 C102.216609,38.3124152 106.440412,34.3963651 111.47,34.56 C117.06,34.56 120.71,38.03 120.71,43.8 L120.71,47 C120.704589,47.5058439 120.295844,47.9145894 119.79,47.92 L106.54,47.92 C106.416324,47.9142381 106.295943,47.9608492 106.208396,48.0483963 C106.120849,48.1359434 106.074238,48.2563239 106.08,48.38 C106.07,52.58 108.25,54.43 111.44,54.43 Z M106.63,44.22 L116.24,44.22 C116.363676,44.2257619 116.484057,44.1791508 116.571604,44.0916037 C116.659151,44.0040566 116.705762,43.8836761 116.7,43.76 C116.73101,42.3857678 116.183369,41.0617023 115.1907,40.1108694 C114.19803,39.1600365 112.851625,38.6698815 111.48,38.76 C110.101072,38.6743391 108.74816,39.163059 107.742312,40.1101853 C106.736464,41.0573117 106.167342,42.3784169 106.17,43.76 C106.164238,43.8836761 106.210849,44.0040566 106.298396,44.0916037 C106.385943,44.1791508 106.506324,44.2257619 106.63,44.22 L106.63,44.22 Z" id="Shape" fill="#000000"></path>
                    <path d="M139.3,50.59 C139.291703,50.3617611 139.385156,50.1416164 139.555109,49.9890453 C139.725061,49.8364741 139.953975,49.7672222 140.18,49.8 L142.58,49.8 C143.085844,49.8054106 143.494589,50.2141561 143.5,50.72 C143.5,55.2 139.76,58.58 134.58,58.58 C129.03,58.58 125.71,54.65 125.34,49.8 C125.201813,47.6455469 125.201813,45.4844531 125.34,43.33 C125.71,38.48 129.04,34.55 134.58,34.55 C139.76,34.55 143.5,37.92 143.5,42.41 C143.528245,42.6390737 143.458641,42.8694438 143.308276,43.0445521 C143.157911,43.2196605 142.940711,43.3232905 142.71,43.33 L140.21,43.33 C139.993827,43.3551422 139.776856,43.2899927 139.61029,43.1499256 C139.443724,43.0098585 139.342317,42.8072818 139.33,42.59 C139.33,40.42 137.43,38.71 134.57,38.71 C133.280565,38.6365757 132.015774,39.0847828 131.060294,39.9537429 C130.104814,40.8227031 129.538928,42.0394033 129.49,43.33 C129.350875,45.484423 129.350875,47.645577 129.49,49.8 C129.538928,51.0905967 130.104814,52.3072969 131.060294,53.1762571 C132.015774,54.0452172 133.280565,54.4934243 134.57,54.42 C137.41,54.43 139.3,52.77 139.3,50.59 Z" id="Shape" fill="#000000"></path>
                    <path d="M149.74,58.13 C149.234156,58.1245894 148.825411,57.7158439 148.82,57.21 L148.82,26.38 C148.825411,25.8741561 149.234156,25.4654106 149.74,25.46 L152.05,25.46 C152.555844,25.4654106 152.964589,25.8741561 152.97,26.38 L152.97,34.75 C152.97,35.3022847 153.417715,35.75 153.97,35.75 C154.89,35.75 156.1,34.59 158.22,34.59 C163.057368,34.5899718 166.983471,38.5026597 167,43.34 L167,57.2 C166.994589,57.7058439 166.585844,58.1145894 166.08,58.12 L163.77,58.12 C163.264156,58.1145894 162.855411,57.7058439 162.85,57.2 L162.85,43.34 C162.75227,40.7043402 160.546296,38.6412625 157.91,38.72 C155.04,38.72 152.96,40.72 152.96,43.11 L152.96,57.2 C152.954589,57.7058439 152.545844,58.1145894 152.04,58.12 L149.74,58.13 Z" id="Shape" fill="#000000"></path>
                    <path d="M190,43.34 C190.138187,45.4944531 190.138187,47.6555469 190,49.81 C189.638989,54.7763706 185.504474,58.6212511 180.525,58.6212511 C175.545526,58.6212511 171.411011,54.7763706 171.05,49.81 C170.910875,47.655577 170.910875,45.494423 171.05,43.34 C171.411011,38.3736294 175.545526,34.5287489 180.525,34.5287489 C185.504474,34.5287489 189.638989,38.3736294 190,43.34 L190,43.34 Z M185.84,49.81 C185.978187,47.6555469 185.978187,45.4944531 185.84,43.34 C185.458894,40.6977094 183.194633,38.7365996 180.525,38.7365996 C177.855367,38.7365996 175.591106,40.6977094 175.21,43.34 C175.071813,45.4944531 175.071813,47.6555469 175.21,49.81 C175.591106,52.4522906 177.855367,54.4134004 180.525,54.4134004 C183.194633,54.4134004 185.458894,52.4522906 185.84,49.81 L185.84,49.81 Z" id="Shape" fill="#000000"></path>
                    <path d="M196.56,58 C196.420605,58.4293385 196.010861,58.712062 195.56,58.69 L194.56,58.69 C194.256172,58.6824 193.978333,58.5167999 193.827105,58.2531723 C193.675877,57.9895447 193.673183,57.6661096 193.82,57.4 L207.09,26 C207.177103,25.5869742 207.54812,25.2960635 207.97,25.31 L208.97,25.31 C209.268985,25.3282463 209.538737,25.4956685 209.687785,25.7554953 C209.836833,26.015322 209.845182,26.3326966 209.71,26.6 L196.56,58 Z" id="Shape" fill="#000000"></path>
                    <path d="M218.92,57.07 C218.448514,57.1479357 218.029409,57.4152957 217.76,57.81 C217.599329,58.0050464 217.362562,58.1216084 217.11,58.13 L215.54,58.13 C215.030255,58.1300295 214.615481,57.7197153 214.61,57.21 L214.61,26.38 C214.615481,25.8702847 215.030255,25.4599705 215.54,25.46 L217.85,25.46 C218.355844,25.4654106 218.764589,25.8741561 218.77,26.38 L218.77,34.56 C218.77,35.44 219.09,35.72 219.77,35.72 C220.69,35.72 221.94,34.56 224.07,34.56 C228.92,34.56 232.48,38.49 232.85,43.34 C232.989125,45.494423 232.989125,47.655577 232.85,49.81 C232.48,54.66 228.92,58.59 224.07,58.59 C220.68,58.59 220.26,57.07 218.92,57.07 Z M228.92,49.81 C229.058187,47.6555469 229.058187,45.4944531 228.92,43.34 C228.538894,40.6977094 226.274633,38.7365996 223.605,38.7365996 C220.935367,38.7365996 218.671106,40.6977094 218.29,43.34 C218.150875,45.494423 218.150875,47.655577 218.29,49.81 C218.671106,52.4522906 220.935367,54.4134004 223.605,54.4134004 C226.274633,54.4134004 228.538894,52.4522906 228.92,49.81 L228.92,49.81 Z" id="Shape" fill="#000000"></path>
                    <path d="M239,38.95 C238.494156,38.9445894 238.085411,38.5358439 238.08,38.03 L238.08,35.94 C238.077334,35.6933444 238.172767,35.4557335 238.345304,35.2794462 C238.51784,35.1031589 238.753344,35.002638 239,35 L248.38,35 C248.889745,34.9999705 249.304519,35.4102847 249.31,35.92 L249.31,53.74 C249.304238,53.8636761 249.350849,53.9840566 249.438396,54.0716037 C249.525943,54.1591508 249.646324,54.2057619 249.77,54.2 L255.64,54.2 C256.145844,54.2054106 256.554589,54.6141561 256.56,55.12 L256.56,57.2 C256.554589,57.7058439 256.145844,58.1145894 255.64,58.12 L238.54,58.12 C238.034156,58.1145894 237.625411,57.7058439 237.62,57.2 L237.62,55.12 C237.625411,54.6141561 238.034156,54.2054106 238.54,54.2 L244.59,54.2 C244.713676,54.2057619 244.834057,54.1591508 244.921604,54.0716037 C245.009151,53.9840566 245.055762,53.8636761 245.05,53.74 L245.05,39.41 C245.055762,39.2863239 245.009151,39.1659434 244.921604,39.0783963 C244.834057,38.9908492 244.713676,38.9442381 244.59,38.95 L239,38.95 Z M249.44,29.38 C249.442719,29.5770811 249.365628,29.7668868 249.226257,29.9062574 C249.086887,30.045628 248.897081,30.1227187 248.7,30.12 L245.56,30.12 C245.362919,30.1227187 245.173113,30.045628 245.033743,29.9062574 C244.894372,29.7668868 244.817281,29.5770811 244.82,29.38 L244.82,26.19 C244.830506,25.7857408 245.155741,25.4605055 245.56,25.45 L248.7,25.45 C249.104259,25.4605055 249.429494,25.7857408 249.44,26.19 L249.44,29.38 Z" id="Shape" fill="#000000"></path>
                    <path d="M270,34.56 C272.340945,34.5189453 274.598106,35.4307888 276.253658,37.0863416 C277.909211,38.7418944 278.821055,40.9990548 278.78,43.34 L278.78,57.2 C278.774589,57.7058439 278.365844,58.1145894 277.86,58.12 L275.55,58.12 C275.044156,58.1145894 274.635411,57.7058439 274.63,57.2 L274.63,43.34 C274.63,40.66 272.41,38.72 269.55,38.72 C266.69,38.72 264.47,40.43 264.47,43.11 L264.47,57.2 C264.464519,57.7097153 264.049745,58.1200295 263.54,58.12 L261.2,58.12 C260.694156,58.1145894 260.285411,57.7058439 260.28,57.2 L260.28,35.94 C260.285411,35.4341561 260.694156,35.0254106 261.2,35.02 L263.2,35.02 C263.452243,35.0296613 263.688518,35.1459813 263.85,35.34 C264.119409,35.7347043 264.538514,36.0020643 265.01,36.08 C266.38,36.08 266.75,34.56 270,34.56 Z" id="Shape" fill="#000000"></path>
                    <path d="M282.64,49.81 C282.501813,47.6555469 282.501813,45.4944531 282.64,43.34 C283.01,38.49 286.57,34.56 291.42,34.56 C293.55,34.56 294.79,35.72 295.72,35.72 C296.41,35.72 296.72,35.44 296.72,34.56 L296.72,26.38 C296.725411,25.8741561 297.134156,25.4654106 297.64,25.46 L300,25.46 C300.505844,25.4654106 300.914589,25.8741561 300.92,26.38 L300.92,57.2 C300.914589,57.7058439 300.505844,58.1145894 300,58.12 L298.4,58.12 C298.147438,58.1116084 297.910671,57.9950464 297.75,57.8 C297.480591,57.4052957 297.061486,57.1379357 296.59,57.06 C295.25,57.06 294.83,58.58 291.41,58.58 C286.57,58.59 283,54.66 282.64,49.81 Z M297.2,49.81 C297.339125,47.655577 297.339125,45.494423 297.2,43.34 C296.818894,40.6977094 294.554633,38.7365996 291.885,38.7365996 C289.215367,38.7365996 286.951106,40.6977094 286.57,43.34 C286.431813,45.4944531 286.431813,47.6555469 286.57,49.81 C286.951106,52.4522906 289.215367,54.4134004 291.885,54.4134004 C294.554633,54.4134004 296.818894,52.4522906 297.2,49.81 L297.2,49.81 Z" id="Shape" fill="#000000"></path>
                    <path d="M42,0 C18.8040405,-1.42034288e-15 2.84068575e-15,18.8040405 0,42 C-2.84068575e-15,65.1959595 18.8040405,84 42,84 C65.1959595,84 84,65.1959595 84,42 C84,30.8609074 79.5750127,20.1780431 71.6984848,12.3015152 C63.8219569,4.4249873 53.1390926,6.82072703e-16 42,0 Z M42,78.4 C21.8968351,78.4 5.6,62.1031649 5.6,42 C5.6,21.8968351 21.8968351,5.6 42,5.6 C62.1031649,5.6 78.4,21.8968351 78.4,42 C78.377955,62.0940265 62.0940265,78.377955 42,78.4 L42,78.4 Z M61.75,44.17 C62.6943969,45.8690249 63.0990106,47.8153564 62.91,49.75 C62.3509652,54.7370871 58.1080552,58.4917599 53.09,58.44 L40.77,58.44 C40.654497,58.4378757 40.5521556,58.3650338 40.5123214,58.2565962 C40.4724872,58.1481587 40.5033385,58.0263888 40.59,57.95 C42.0683,56.6226664 43.2681893,55.0148827 44.12,53.22 C44.2170126,52.9953146 44.4353697,52.8471436 44.68,52.84 L53.34,52.84 C54.5034165,52.8510582 55.6139945,52.3550163 56.3821815,51.4812035 C57.1503686,50.6073907 57.5000295,49.4424108 57.34,48.29 C57.08,46.29 55.89,44.8 54,44.8 L48.1,44.8 C47.9646633,44.7994803 47.8383017,44.7322072 47.7623094,44.6202186 C47.6863171,44.50823 47.6704852,44.3659546 47.72,44.24 L49.72,39.7 C49.84,39.4 50.14,39.2 51,39.2 L58.21,39.2 C60.2642703,39.2291159 62.0260509,37.7403473 62.34,35.71 C62.5000295,34.5575892 62.1503686,33.3926093 61.3821815,32.5187965 C60.6139945,31.6449837 59.5034165,31.1489418 58.34,31.16 L54.93,31.16 C49.3,31.16 47.06,36.22 44.76,42 L44.76,42 C41.61,49.63 38.84,58.44 28.49,58.44 L25.92,58.44 C20.6359383,58.5105113 16.247579,54.3787294 16,49.1 C15.8851193,44.9999727 18.3824722,41.2780337 22.22,39.83 C21.2756031,38.1309751 20.8709894,36.1846436 21.06,34.25 C21.6190348,29.2629129 25.8619448,25.5082401 30.88,25.56 L43.23,25.56 C43.345503,25.5621243 43.4478444,25.6349662 43.4876786,25.7434038 C43.5275128,25.8518413 43.4966615,25.9736112 43.41,26.05 C41.9317,27.3773336 40.7318107,28.9851173 39.88,30.78 C39.7829874,31.0046854 39.5646303,31.1528564 39.32,31.16 L30.66,31.16 C29.4965835,31.1489418 28.3860055,31.6449837 27.6178185,32.5187965 C26.8496314,33.3926093 26.4999705,34.5575892 26.66,35.71 C26.92,37.71 28.11,39.2 30,39.2 L35.9,39.2 C36.0353367,39.2005197 36.1616983,39.2677928 36.2376906,39.3797814 C36.3136829,39.49177 36.3295148,39.6340454 36.28,39.76 L34.28,44.3 C34.16,44.6 33.86,44.8 33,44.8 L25.78,44.8 C23.7257297,44.7708841 21.9639491,46.2596527 21.65,48.29 C21.4899705,49.4424108 21.8396314,50.6073907 22.6078185,51.4812035 C23.3760055,52.3550163 24.4865835,52.8510582 25.65,52.84 L29.07,52.84 C34.7,52.84 36.94,47.78 39.24,42 L39.24,42 C42.39,34.37 45.16,25.56 55.51,25.56 L58.08,25.56 C63.3640617,25.4894887 67.752421,29.6212706 68,34.9 C68.1103301,39.0077123 65.5993607,42.7319822 61.75,44.17 Z" id="Shape" fill="url(#linearGradient-1)"></path>
                </g>
            </g>
        </g>
    </g>
</svg>