<svg xmlns="http://www.w3.org/2000/svg" viewBox="0 0 1494.24 439.8"><defs><style>.cls-1{fill:#00b5e2;}</style></defs><title>Underbelly_logo</title><g id="Layer_2" data-name="Layer 2"><g id="Layer_1-2" data-name="Layer 1"><path class="cls-1" d="M1458.63,404.08c0-92,35.6-205.55,35.6-245.29.42-11.89-9.61-32.21-35.31-32.21-11.07,0-19.21,2.06-24.91,4.41h0c-3.49,1.63-3.42,5.23-1.58,6.12,3.41,1.62,6.37,6.19,6,17.45-.68,19.43-10.32,76.47-19.34,132.92-9.32,7.38-17.2,9.39-22.38,8.33-6.69-1.38-12.2-8.55-11.71-28.08.3-11.67,18.51-104.68,20.16-117.24,4.06-30.87-9.48-45.24-29.38-45.24-12,0-20.2,3.35-25.12,6.32a.89.89,0,0,1-.22.2l-.1,0c-3.44,1.76-3.09,4.75-1.53,6.08a.94.94,0,0,0,.1.1l0,0c7.19,8.31-2.18,41.34-12.56,89.29-5.72,26.41-8.2,49.2-4,66.78-23.09,23.65-43.88,15.64-43.31-17.3.67-38.35,14.7-84.39,22.14-155.06,2.5-23.75-11.74-43.6-37.44-43.6-11.09,0-19.21,2.07-24.86,4.43-3.47,1.64-3.44,5.38-1.52,6.09l.13,0v0c3.4,1.64,6.39,6.23,6.19,17.41-.63,36.05-22.22,107.38-23.11,158.39a76.64,76.64,0,0,0,4,25.17c-24.63,28.92-47.94,21.94-47.33-12.9.67-38.35,17.48-118.86,26.22-174.28C1217.93,54.2,1200.71,34,1175,34c-11.17,0-19.33,2.11-25,4.48-3.3,1.63-3.29,5.12-1.54,6C1152,46,1155.16,50.49,1155,62c-.58,33.57-22,118.65-25.68,171.39-13,33.54-31.68,60.48-58.12,57.55-19.93-2.2-26.06-20-28.58-42.79-.14-1.28-.25-2.57-.34-3.88,22.66-1.88,66.12-12.17,71.74-63,3.93-35.6-21.3-51.74-41.74-54-41.53-4.59-73.8,42.23-78.83,87.71a125.83,125.83,0,0,0-.6,20.12c-4-.61-8.15-1.32-12.32-2.13,1.13-5.86,2-11.61,2.54-17.06,4.22-40.12-5.25-82.57-42.15-82.57-13.41,0-23.11,4.78-30,10.86,7.4-38.13,14.22-72.3,16.24-86.79C933,14.83,909.89,0,886.34,0a44.14,44.14,0,0,0-23.13,6c-2.64,1.84-2.58,5.28-.9,5.72,5.81.6,11.16,6.63,9.4,23.41C869,61.35,846,181.72,842.05,219.52c-1.6,15.23-.58,33.2,4.83,49.24-7.67,9.46-16.2,15.65-25.36,15.42-37.46-.93-3.3-99.74-1.28-114s4.89-35.82-42.66-45.18a221.43,221.43,0,0,0-21.9-3.36s.75-3,1.49-7.59c3.42-26.09-7.42-33.6-14.27-34.74-7.42-1.24-21.66.62-26.61,19.8-3,11.53-4.74,27.17,7.92,34.67A42.75,42.75,0,0,0,735,137.69c-9.09,43.12-37.28,158.2-78.32,153.23-19.92-2.2-26.06-20-28.57-42.79-.14-1.28-.25-2.57-.34-3.88,22.66-1.88,66.11-12.17,71.73-63,3.94-35.6-21.3-51.74-41.73-54-41.53-4.59-73.8,42.23-78.83,87.71-2.19,19.82.2,39.58,7.79,55.94-24.73,27.53-47.26,20.29-46.06-14.07,1.34-38.35,17.58-96,28.65-169.36,5.53-36.7-11.28-53.47-37-53.47-11.24,0-19.47,2.13-25.18,4.53-3.16,1.55-3.39,4.82-1.84,5.8,3.61,1.39,6.89,5.85,6.48,17.67-.58,16.61-6.49,45.86-12.87,77.55-5-6.14-12.31-10.61-22.82-11.86C437.3,123,403,161.86,395.46,225c-1.65,13.85-1.18,25.77.74,35.95-7.88,9.16-16.85,17.31-23.82,17.31s-15.71-2.64-15.71-22.2,10.72-59.49,10.72-80.58-9.2-48.9-42.76-48.9c-15.17,0-30.23,12.66-42.17,29.86.24-3.3.37-6.6.37-9.89,0-5.37-5.75-22.63-29.53-22.63-13.17,0-21.27,3.18-25.89,6l0,0-.1.06c-3.31,2-3.2,4.37-2,6l0,.06c9.5,13.78-15.19,102.6-15.19,124.91a81.12,81.12,0,0,0,1,12.4c-22.36,21.47-52.17,28.05-52.17-21.56,0-56.48,25.31-157.29,25.31-197.42,0-24.32-16.63-36.27-35.95-36.27a57.73,57.73,0,0,0-27.49,6.6c-2.43,1.55-2.21,4-1,5.31a6.29,6.29,0,0,1,.47.43l.08.05a0,0,0,0,1,0,0c3.72,3.64,6.12,12.09,6.29,19.72.88,38.24-22.7,130.76-22.7,194.12A69.28,69.28,0,0,0,108,267.5c-24.74,31.45-49.33,25-49.33-10.69,0-38.35,23.39-121.58,23.39-190.61C82.07,54.31,68.27,34,42.57,34,31.51,34,23.45,36,17.83,38.39c-3.37,1.66-3.28,5.24-1.45,6.11l.13.06C19.94,46.21,23,50.8,23,62,23,98,0,193.53,0,244.54c0,28,18.79,67.5,58.3,67.5,27.15,0,45.61-20.85,54.49-33.88C123.55,297.68,143.26,312,167.12,312c21.28,0,37.73-13.2,47.73-24.17,5.25,13.88,14.9,24.52,29.05,24.52,12.69,0,21.4-3.26,26.61-6.12,2.81-2.15,2.59-4.95,1.28-5.79l-.18-.13c-4.1-3-9.31-11-9.31-32.83h0l.08.79c0-39.13,24.47-108.93,40.58-108.93,19.94,0-2.25,78-2.25,112.93,0,18,12,39.74,44.85,39.74,19.38,0,39.55-18.6,54.65-36.8,9.83,25.7,29.9,36.07,41.34,36.07,23.13,0,40.71-8.3,51.42-26.09,9,15.14,23.95,26.82,45.41,26.82,25.48,0,43.92-18.33,53.82-31.36,10.61,16.06,27.47,27.3,51.36,29.47,58.82,5.35,83.33-57.81,107.71-168.09,24.79,9.54,17.64,26.89,13.65,51.67-5.58,34.61-30.11,116.65,35.86,118.29,20.73.52,38.08-12.09,52.14-29.61C862.6,299.55,879.17,312,905.61,312c44,0,64.29-35.41,72.89-70.08,4.76.54,9.76,1,15,1.38,4.34,34.35,24.63,63.19,64.48,66.81,30.14,2.74,54.35-14.87,73-46.73,5.93,24.1,23.76,48.62,54.88,48.62,25.49,0,43.63-18.36,53.29-31.39C1248.1,298,1264.05,312,1287.63,312c22.09,0,38.65-13.78,49-25.94,6.28,12.27,17.63,20.76,36,24.54,17.06,3.51,32.05-1.33,44.18-8.82-3.65,23.13-7.06,45.61-9.55,64.76-2.17,16.63-10.86,73.22,32.89,73.22,9.83,0,19.47-7.92,24.65-13,2.53-2.63,1.67-5,.25-6.17l-.19-.2C1462,418.05,1458.63,413.3,1458.63,404.08ZM482.44,244.54a76.09,76.09,0,0,0,3.63,25.22c-4.42,6.36-10.39,12.3-17,11.51-13.71-1.63-21.51-23.76-17.24-59.59s14-75.77,34.6-73.32a14.39,14.39,0,0,1,9.73,5.14C489.6,186.47,483.28,220.46,482.44,244.54ZM664.27,138c18.6,1.17-6.45,82.33-36.74,97.92C627.78,191.34,652.34,137.21,664.27,138ZM904.68,298.77c-14.73,0-12.81-39.47-5.75-87,6.09,7,15.87,13.94,31.35,19.65C925.21,265.11,914,298.77,904.68,298.77ZM932,217.35c-19.35-10.19-31-24.8-22.41-45.31,2.69-4.76,5.76-7.9,9.21-7.9C932.08,164.14,934.76,189,932,217.35ZM1078.73,138c18.6,1.17-6.46,82.32-36.75,97.92C1042.23,191.34,1066.79,137.21,1078.73,138Z"/></g></g></svg>