<?xml version="1.0" encoding="utf-8"?>
<!-- Generator: Adobe Illustrator 19.2.1, SVG Export Plug-In . SVG Version: 6.00 Build 0)  -->
<svg version="1.1" id="Layer_1" xmlns="http://www.w3.org/2000/svg" xmlns:xlink="http://www.w3.org/1999/xlink" x="0px" y="0px"
	 viewBox="0 0 700 212" style="enable-background:new 0 0 700 212;" xml:space="preserve">
<style type="text/css">
	.st0{fill:#707070;}
	.st1{fill:#B3B3B3;}
	.st2{fill:#ABA003;}
	.st3{fill:#FFF100;}
</style>
<title>Group</title>
<desc>Created with Sketch.</desc>
<g id="Page-1">
	<g id="Group">
		<path id="_x32_016" class="st0" d="M364.5,141c2,0.4,4,1.1,5.9,2.2c1.9,1.1,3.4,2.4,4.6,4c1.7,2,2.9,4.1,3.7,6.5s1.3,4.8,1.7,7.3
			c0.2,3.3-0.1,6.4-0.8,9.4s-1.9,5.9-3.4,8.7s-3.3,5.3-5.3,7.8c-2,2.4-4.2,4.6-6.6,6.7c-0.2,0.2-0.4,0.4-0.6,0.7
			c-0.2,0.2-0.2,0.5,0,0.9l0.5,0.5c2.1-0.1,4.2-0.2,6.3-0.2h6.5c0.8,0,1.4,0.3,1.7,0.8c0.1,0.2,0.2,0.4,0.2,0.7v0.5v-0.1
			c-0.1,0.5-0.3,1-0.4,1.5c-0.1,0.5-0.4,0.9-1,1.1c-0.5,0.3-1.1,0.4-1.5,0.4c-0.1,0.1-0.1,0.2-0.2,0.1c-0.1-0.1-0.2,0-0.3,0.1
			l-0.4,0.2c0,0.5,0.2,0.9,0.5,1.1c0.3,0.2,0.7,0.3,1.1,0.4c0.4,0.1,0.8,0.2,1.2,0.4c0.4,0.2,0.6,0.5,0.8,1c0,0.7-0.1,1.3-0.2,1.8
			c-0.1,0.5-0.3,1.2-0.4,1.8v0.2v-0.1c-0.1,0.3-0.3,0.7-0.5,1.2c-0.2,0.5-0.3,0.9-0.5,1.2v0.2l-0.1-0.1c-0.1,0.4-0.4,0.8-0.8,1.1
			c-0.4,0.3-0.7,0.6-1.1,0.7c-1.2,0.1-2.3,0.2-3.4,0.1c-1.1-0.1-2.3-0.1-3.4,0c-3.9-0.2-7.9-0.2-11.8-0.1s-7.9,0.2-11.7,0.3
			c-0.7-0.1-1.3-0.3-1.7-0.8c-0.4-0.7-0.5-1.5-0.3-2.1c0.2-0.7,0.4-1.4,0.6-2.1c0.3-0.5,0.8-0.8,1.4-0.9s0.8-0.6,0.7-1.3
			c-0.3-0.4-0.6-0.7-1.1-0.8c-0.4-0.1-0.7-0.4-0.9-1c0.1-1.1,0.2-2.2,0.4-3.2c0.2-1.1,0.3-2.1,0.5-3.2c0.1-0.3,0.2-0.7,0.4-1
			c0.2-0.3,0.4-0.6,0.5-1c0.5-0.5,1-1,1.4-1.4c0.4-0.4,0.8-0.9,1.4-1.4c5.2-5.7,9.6-12.2,13.3-19.5c0.5-1.2,1-2.4,1.3-3.6
			s0.4-2.6,0.2-3.9h-0.1c0.1-0.2,0.1-0.4-0.1-0.7c-0.1-0.3-0.2-0.5-0.3-0.8c-0.7-1.5-1.6-2.5-2.7-3.2h-0.4h0.1v-0.1
			c-0.1-0.1-0.3-0.2-0.4-0.3c-0.1-0.1-0.3-0.1-0.4-0.1l-0.1-0.1l0.1,0.1v-0.1c-0.1-0.1-0.1-0.2-0.2-0.1c0,0.1-0.1,0.1-0.1,0.1
			l0.1-0.1c-0.4-0.1-0.8-0.2-1.1-0.3c-0.3,0-0.6-0.1-1-0.3c-1.6-0.1-3.1,0.1-4.5,0.6c-0.1-0.1-0.2-0.1-0.3-0.1c-0.1,0-0.2,0-0.3-0.1
			c-0.8-0.6-1.2-1.3-1.2-2.1c0-0.9-0.1-1.8-0.2-2.8c0.1-0.4,0.3-0.8,0.5-1.2s0.5-0.7,0.9-1c0.6-0.3,1.2-0.4,1.8-0.4s1.1-0.3,1.4-0.9
			c0.1-0.2,0.1-0.4-0.1-0.5c-0.2-0.1-0.3-0.2-0.5-0.4c-0.3-0.3-0.8-0.4-1.4-0.3s-1.2,0.2-1.6,0.2h0.1c-0.4-0.1-0.7-0.2-0.8-0.2
			c-0.2-0.1-0.3-0.3-0.4-0.5c0-0.2-0.2-0.3-0.4-0.4c-0.2-0.7-0.3-1.5-0.4-2.4s-0.1-1.6-0.2-2.4c0.2-1,0.8-1.7,1.7-2s1.8-0.6,2.7-0.8
			c0.3-0.1,0.5-0.1,0.7-0.1c0.2,0,0.4-0.1,0.7-0.2c0.7-0.1,1.5-0.2,2.2-0.2s1.5-0.1,2.3-0.2c0.7,0.1,1.6,0.1,2.4,0.1
			C362.9,140.7,363.7,140.8,364.5,141L364.5,141z M421,140.7c-2.3-0.2-4.8,0-7.5,0.5c-0.7,0.1-1.4,0.3-2,0.5
			c-0.7,0.2-1.3,0.6-1.7,1.1c-0.1,0.3-0.2,0.7-0.3,1.2c-0.1,0.5,0,0.9,0.1,1.2c0.2,0.5,0,0.9-0.5,1.2c-0.2,0.1-0.4,0.1-0.5,0
			c-0.1-0.1-0.3-0.1-0.5-0.1c-0.3-0.3-0.7-0.7-1.1-1c-0.4-0.3-0.9-0.4-1.4-0.3c-2.9,1.1-5.7,2.6-8.2,4.6s-4.8,4.2-6.8,6.8
			c-0.5,0.5-0.8,1.2-0.8,1.9s-0.1,1.5-0.3,2.1c-0.8,1.4-1.6,2.7-2.2,4.1c-0.7,1.4-1.3,2.8-1.9,4.3c-1.7,4-2.8,8.3-3.4,13
			s-0.3,9.1,1,13.4c0.6,2.3,1.5,4.6,2.7,6.7s2.7,4,4.5,5.4c1.8,1.4,3.7,2.5,5.8,3.2s4.2,1.1,6.4,1.2c2.2,0.1,4.3-0.1,6.4-0.5
			c2.1-0.4,4.1-1.1,5.9-1.9l0.1,0.1l0.2-0.1c0.1,0.1,0.1,0.1,0,0.1s-0.1,0-0.1,0.1l0.2-0.2v-0.2l0.1,0.1c0.7-0.5,1.4-0.9,2-1.1
			c0.6-0.2,1.2-0.6,2-1.1c0.1-0.1,0.1-0.1,0.2-0.1c0.1,0,0.1,0,0.1-0.2l0.1,0.1c0.3-0.3,0.7-0.7,1.2-1s1-0.7,1.4-1
			c1.2-0.8,2.2-1.8,3.2-2.9c1-1.1,2-2.1,3.1-3.2c1.7-2.2,3.3-4.4,4.8-6.5c1.5-2.2,2.8-4.5,3.9-7c2.1-4.3,3.5-8.9,4.3-13.8
			c0.7-4.9,0.3-9.7-1.2-14.4c-0.9-2.8-2.2-5.4-3.8-7.8c-1.7-2.4-3.7-4.4-6.2-6c-2.8-1.8-5.8-2.8-9.1-3L421,140.7z M413.7,149.2
			c0,0.5-0.2,0.7-0.6,0.8c-0.4,0.1-0.7,0.2-1,0.4c-0.1,0.1-0.3,0.1-0.5,0.2c-0.2,0.1-0.4,0-0.6-0.1c-0.3-0.3-0.3-0.6-0.1-0.9
			c0.2-0.3,0.5-0.5,0.8-0.6c0.3-0.1,0.7-0.3,1-0.4C413.5,148.6,413.7,148.8,413.7,149.2L413.7,149.2z M422.1,165.5
			c0.6,3.5,0.4,7-0.6,10.4c-1,3.4-2.3,6.7-3.9,9.9c-1,1.8-2.1,3.5-3.4,5.3c-1.3,1.7-2.9,2.9-4.9,3.6c-1.3,0.6-2.8,0.9-4.4,0.8
			c-1.6-0.1-3-0.6-4-1.6c-0.8-0.5-1.5-1.3-2-2.3s-0.8-1.9-1-2.8h-0.1c-0.1-0.5-0.2-1.2-0.3-2c-0.1-0.8,0-1.5,0.1-2l-0.1-0.1
			c0.1-0.2,0.1-0.4,0.1-0.7c0-0.3,0.1-0.7,0.2-1c-0.1-0.2-0.1-0.4,0-0.7c0.1-0.3,0.1-0.5,0.2-0.8c0.3-1.1,0.5-2.1,0.8-3.2
			c0.2-1,0.6-2,1.2-3c0-0.1,0-0.3,0.1-0.5s0.2-0.4,0.3-0.5l0.2-0.1c-0.1-0.1-0.2-0.1-0.1-0.1s0.1,0,0-0.1c0.1-0.2,0.2-0.4,0.3-0.6
			c0.1-0.2,0.2-0.4,0.4-0.5c0.3-0.7,0.7-1.4,1.2-2c0.5-0.6,1-1.3,1.4-1.9c0.3-0.2,0.5-0.5,0.7-0.8c0.2-0.3,0.5-0.6,0.8-0.8
			c1.2-1.2,2.5-2.1,3.7-3c1.3-0.8,2.7-1.4,4.3-1.8c0.3-0.1,0.6-0.3,0.9-0.6c0.3-0.3,0.4-0.6,0.4-1v-0.5c0.1-0.1,0.1-0.2,0-0.2
			c-0.1,0-0.1,0-0.1-0.1c-0.1-0.3-0.1-0.6-0.2-0.9s0-0.6,0.1-0.9c0.5-0.1,1-0.1,1.5,0.2c0.4,0.2,0.9,0.5,1.4,0.7
			c1.2,0.7,2.2,1.6,3,2.7S421.9,164.1,422.1,165.5L422.1,165.5z M461.6,140.6c0.2,0.2,0.4,0.3,0.6,0.3c0.1,0.2,0.3,0.4,0.5,0.6
			c0.2,0.2,0.2,0.4,0.1,0.7c0.1,0.3,0.2,0.7,0.1,1c-0.1,0.3,0.1,0.6,0.4,0.8c0.7,0,1.2-0.4,1.5-1.1s0.6-1.2,1.1-1.6
			c0.3-0.1,0.7-0.3,1.1-0.4c0.4-0.1,0.8-0.2,1.2-0.1c0.6,0.1,1.3,0.1,1.9,0c0.7-0.1,1.3,0,1.8,0.1c0.4,0.1,0.7,0.4,1,0.7
			s0.4,0.7,0.4,1c-0.1,0.5-0.2,1.1-0.4,1.6c-0.2,0.5-0.3,1.1-0.4,1.5c-0.3,0.7-0.6,1.6-0.9,2.4s-0.6,1.7-0.8,2.5l0.2,0.2l-0.3-0.1
			c-0.1,0.8-0.4,1.6-0.7,2.5c-0.3,0.8-0.2,1.7,0.4,2.5c0.2,0.3,0.4,0.7,0.6,1.2c0.2,0.4,0.2,0.9,0.1,1.5c-0.4,1.6-0.9,3.2-1.4,4.8
			c-0.5,1.7-1,3.3-1.5,4.9c-0.5,1.9-1,3.8-1.5,5.7c-0.4,1.9-0.9,3.8-1.5,5.6c-0.3,1.3-0.5,2.5-0.8,3.6c-0.3,1.1-0.5,2.3-0.8,3.6
			c-0.1,0.1-0.2,0.1-0.1,0.2c0.1,0.1,0.1,0.1-0.1,0.1c0,0.1,0,0.3-0.1,0.4s-0.1,0.3-0.1,0.4v0.3c-0.1,0.1-0.1,0.1-0.1,0.1v-0.1
			c-0.1,0.1-0.1,0.1-0.1,0.2l0.1,0.1c-0.1,0.1-0.2,0.2-0.2,0.3c0,0.1,0,0.2-0.1,0.3c-0.1,0.5-0.2,1.1-0.4,1.5
			c-0.2,0.5-0.3,1-0.4,1.4h0.2c-0.3,0.9-0.5,1.7-0.6,2.3c-0.1,0.5-0.3,1-0.4,1.5c-0.1,0.5-0.2,1-0.2,1.5c-0.1,0-0.1,0.1-0.2,0.2
			s0,0.2,0.1,0.2c-0.2,0.7-0.4,1.4-0.5,2c-0.1,0.6-0.2,1.3-0.4,2c0,0.3-0.1,0.5-0.2,0.7c-0.1,0.2-0.2,0.4-0.2,0.7l0.1,0.1h-0.1
			c-0.1,0.1-0.1,0.1,0,0.2c0.1,0.1,0.1,0.1-0.1,0.1c-0.3,1.6-0.5,3.2-0.7,4.7c-0.1,0.2-0.1,0.4-0.2,0.7c0,0.2-0.1,0.4-0.2,0.6
			c0.1,0.1,0.1,0.2,0,0.3c-0.1,0.1,0,0.2,0.1,0.3c-0.1,0.1-0.2,0.3-0.3,0.4c-0.1,0.1-0.2,0.3-0.2,0.5l-0.1-0.1
			c-0.3,0.4-0.6,0.7-0.9,0.8c-0.3,0-0.6,0.1-0.9,0.2s-0.5,0.1-0.8,0c-0.1,0.1-0.2,0.1-0.3,0c0-0.1-0.1-0.1-0.3-0.1
			c-0.2,0.1-0.5,0.1-0.8,0.1c-0.1-0.1-0.2-0.1-0.3-0.1c-0.1,0-0.2,0-0.4-0.1c-0.3,0.1-0.5,0.2-0.8,0.1s-0.5-0.1-0.8,0.1
			c0-0.1,0-0.1-0.1-0.1c-0.1,0.1-0.1,0.2-0.1,0.1c0-0.1,0-0.2-0.1-0.1l-1.9-0.1c-0.3,0-0.4-0.1-0.5-0.4s-0.2-0.5-0.4-0.6
			c-0.1-0.5-0.2-1.1-0.1-1.6c0.1-0.5-0.1-1-0.5-1.4c-0.2-0.1-0.4-0.1-0.6,0.1c-0.2,0.1-0.3,0.2-0.5,0.4c-0.1,0.1-0.2,0.3-0.3,0.6
			c-0.1,0.1-0.2,0.2-0.1,0.3c0.1,0.1,0,0.3-0.1,0.4c-0.1,0.3-0.3,0.7-0.4,1c-0.1,0.3-0.4,0.6-0.7,0.9c-0.3,0.1-0.5,0.2-0.6,0.3
			c-0.1,0.1-0.4,0.1-0.7,0.1c-0.6-0.1-1.1-0.5-1.5-1.2c0.3-3.7,0.7-7.3,1-10.9c0.3-3.6,0.7-7.2,1-11c0.3-2.2,0.7-4.5,1-6.8
			s0.7-4.6,1.1-6.8c0.1-1,0.3-1.9,0.5-2.9c0.2-1,0.3-2,0.5-3.1v0.1c0.1-0.7,0.3-1.4,0.4-2.3c0.1-0.9,0.2-1.6,0.2-2.4
			c-0.1-0.7-0.5-1.2-1-1.5c-0.9-0.4-1.7-0.8-2.5-1.2s-1.6-0.9-2.3-1.4c-0.3-0.3-0.4-0.5-0.3-0.8s0-0.6-0.1-0.9l0.8-1.5
			c2.6-2.3,5.1-4.7,7.6-7c2.5-2.4,4.6-5.1,6.4-8.2c0.1-0.1,0.3-0.3,0.5-0.4c0.2-0.1,0.3-0.3,0.3-0.4l0.2-0.1v0.1
			c0.5-0.3,1.1-0.4,1.6-0.3S461,140.7,461.6,140.6L461.6,140.6z M503.6,142c0.3,0.6,0.2,1.1-0.2,1.4c-0.4,0.3-0.5,0.8-0.3,1.3
			c0.3,0.1,0.7,0.2,1,0.1c0.3-0.1,0.6-0.3,0.9-0.5s0.5-0.5,0.8-0.8s0.5-0.5,0.8-0.6c0.6-0.3,1.2-0.2,1.7,0.2s1.1,0.6,1.6,0.8v-0.1
			h0.1v0.1c0.1,0.1,0.3,0.3,0.6,0.4s0.6,0.2,0.9,0.3c0.1,0.2,0.3,0.3,0.5,0.4c0.2,0.1,0.4,0.2,0.5,0.4c0.1,0.5,0.4,0.8,0.8,1.1
			c0.4,0.2,0.8,0.4,1.3,0.6c0.1,0.1,0.3,0.2,0.5,0.3s0.4,0.2,0.5,0.3c0.3,0.1,0.4,0.3,0.5,0.6c0.1,0.2,0.2,0.4,0.4,0.6
			c-0.1,0.1-0.2,0.2-0.2,0.3s-0.1,0.2-0.2,0.3l-0.1,0.5c-1.2,1-2.2,1.9-3.3,3c-1,1-2.1,2.1-3.3,3.2c-0.1,0.1-0.3,0.3-0.4,0.4
			c-0.1,0.1-0.2,0.3-0.4,0.5c-1.2,1.2-2.4,2.4-3.4,3.6c-1.1,1.2-2.1,2.4-3.2,3.8v0.1v-0.1c-0.8,0.9-1.5,1.8-2.2,2.7
			c-0.6,0.9-1.3,1.9-2.1,2.8c0,0.1,0,0.1-0.1,0.1c0,0-0.1,0-0.1,0.1c-0.1,0.3-0.3,0.5-0.4,0.6c-0.1,0.1-0.2,0.3-0.4,0.5
			c0.1,0.1,0,0.3-0.2,0.5l-0.1-0.1v0.2v-0.1c-0.1,0.1-0.1,0.1-0.1,0.2h0.1c-0.2,0.2-0.3,0.3-0.3,0.3c-1.2,1.8-2.3,3.8-3.4,5.9
			c-1,2.1-1.8,4.3-2.4,6.6l-0.1,0.1c-0.2,1-0.4,2.2-0.5,3.4c-0.1,1.3,0,2.4,0.3,3.4c0,1.5,0.4,2.7,1.2,3.6v0.2h0.1h-0.1
			c0.4,0.5,0.9,1,1.5,1.5s1.2,0.7,1.8,0.7c0.1-0.1,0.2-0.1,0.3,0s0.2,0.1,0.3,0c0.1,0.1,0.3,0.2,0.6,0.2c0.1-0.1,0.2-0.2,0.3-0.1
			c0,0.1,0.1,0.1,0.3,0.1v-0.3c0,0.1,0.1,0.2,0.4,0.2c1.2-0.3,2.1-0.8,2.9-1.5c0.7-0.7,1.4-1.7,1.8-2.8c0.3-1.1,0.4-2.2,0.3-3.5
			c-0.1-1.2-0.6-2.3-1.3-3.3c-0.6-0.8-1.4-1.3-2.3-1.4h0.1c-0.1-0.2-0.3-0.3-0.4-0.3c-0.1,0-0.4,0-0.7-0.2c-0.1-0.1-0.2-0.2-0.3-0.1
			s-0.2,0.1-0.3-0.1c-0.6,0-1.1-0.3-1.5-0.8l-0.2-1.6c0.1-0.5,0.3-1,0.5-1.4c0.2-0.4,0.5-0.6,1.1-0.8c0.6-0.1,1.2-0.1,1.8,0
			s1.1,0,1.6-0.5c0.1-0.2,0.1-0.4-0.1-0.6c-0.2-0.2-0.3-0.3-0.5-0.5c-0.3,0-0.5-0.1-0.8-0.2c-0.2-0.1-0.5-0.2-0.8-0.2
			s-0.5-0.1-0.8-0.2c-0.2-0.1-0.3-0.1-0.4-0.2c-0.1-0.1-0.2-0.2-0.3-0.4c-0.3-0.5-0.4-1-0.2-1.4s0.3-1,0.3-1.4
			c0.2-0.3,0.4-0.7,0.5-1.2c0.1-0.4,0.3-0.8,0.5-1.1c-0.1-0.1-0.1-0.3-0.1-0.6v0.1c0.7-0.2,1.4-0.4,2.1-0.5c1-0.1,1.9-0.1,2.9-0.1
			c1,0,1.9,0.2,2.9,0.6c2.7,0.7,5,2.2,7,4.3c2,2.1,3.3,4.5,3.9,7.2c0.5,2,0.6,3.9,0.5,5.8c-0.1,1.9-0.5,3.8-1.1,5.6
			c-0.6,1.8-1.4,3.6-2.4,5.2c-1,1.6-2.1,3.1-3.4,4.5c-2,2-4.2,3.8-6.7,5.2c-2.5,1.4-5.2,2.3-8.1,2.6c-1,0.1-1.9,0.1-2.8,0.1
			s-1.8-0.1-2.7-0.4c-0.1-0.1-0.2-0.1-0.4-0.1c-0.1,0-0.2,0-0.3-0.1c-1.9-0.4-3.7-1.2-5.4-2.4s-3-2.6-4-4.1l-0.2-0.2
			c-0.8-1.2-1.6-2.6-2.3-4c-0.7-1.5-1.3-3-1.6-4.5c-1-3.4-1.3-6.9-0.9-10.6c0.3-3.6,1.1-7.1,2.2-10.5c1-2.9,2.2-5.6,3.7-8.2
			c1.5-2.5,3.1-5,4.6-7.5c0.7-1.2,1.5-2.2,2.3-3.3c0.8-1,1.6-2.1,2.5-3.3c0.1-0.3,0.4-0.6,0.7-0.9s0.6-0.6,0.8-0.9
			c0.3-0.3,0.5-0.7,0.8-1.2h0.2c1-1.3,2.2-2.6,3.5-4c1.3-1.4,2.6-2.8,3.9-4.1c0.1,0.1,0.2,0,0.2-0.1s0-0.2,0.2-0.2
			c0.3-0.2,0.6-0.4,0.9-0.6c0.3-0.2,0.6-0.2,0.9-0.1s0.7,0.3,1.2,0.4C503.2,141.2,503.5,141.6,503.6,142L503.6,142z M495.1,197.2
			H495v0.1L495.1,197.2z"/>
		<path id="_x32_016_1_" class="st1" d="M367.8,136.4c2,0.4,4,1.1,5.9,2.2c1.9,1.1,3.4,2.4,4.6,4c1.7,2,2.9,4.1,3.7,6.5
			c0.8,2.3,1.3,4.8,1.7,7.3c0.2,3.3-0.1,6.4-0.8,9.4c-0.7,3-1.9,5.9-3.4,8.7c-1.5,2.8-3.3,5.3-5.3,7.8c-2,2.4-4.2,4.6-6.6,6.7
			c-0.2,0.2-0.4,0.4-0.6,0.7c-0.2,0.2-0.2,0.5,0,0.9l0.5,0.5c2.1-0.1,4.2-0.2,6.3-0.2h6.5c0.8,0,1.4,0.3,1.7,0.8
			c0.1,0.2,0.2,0.4,0.2,0.7v0.5v-0.1c-0.1,0.5-0.3,1-0.4,1.5c-0.1,0.5-0.4,0.9-1,1.1c-0.5,0.3-1.1,0.4-1.5,0.4
			c-0.1,0.1-0.1,0.2-0.2,0.1c-0.1-0.1-0.2,0-0.3,0.1l-0.4,0.2c0,0.5,0.2,0.9,0.5,1.1s0.7,0.3,1.1,0.4c0.4,0.1,0.8,0.2,1.2,0.4
			s0.6,0.5,0.8,1c0,0.7-0.1,1.3-0.2,1.8c-0.1,0.5-0.3,1.2-0.4,1.8v0.2v-0.1c-0.1,0.3-0.3,0.7-0.5,1.2c-0.2,0.5-0.3,0.9-0.5,1.2v0.2
			l-0.1-0.1c-0.1,0.4-0.4,0.8-0.8,1.1c-0.4,0.3-0.7,0.6-1.1,0.7c-1.2,0.1-2.3,0.2-3.4,0.1c-1.1-0.1-2.3-0.1-3.4,0
			c-3.9-0.2-7.9-0.2-11.8-0.1c-3.9,0.1-7.9,0.2-11.7,0.3c-0.7-0.1-1.3-0.3-1.7-0.8c-0.4-0.7-0.5-1.5-0.3-2.1
			c0.2-0.7,0.4-1.4,0.6-2.1c0.3-0.5,0.8-0.8,1.4-0.9s0.8-0.6,0.7-1.3c-0.3-0.4-0.6-0.7-1.1-0.8c-0.4-0.1-0.7-0.4-0.9-1
			c0.1-1.1,0.2-2.2,0.4-3.2c0.2-1.1,0.3-2.1,0.5-3.2c0.1-0.3,0.2-0.7,0.4-1c0.2-0.3,0.4-0.6,0.5-1c0.5-0.5,1-1,1.4-1.4
			s0.8-0.9,1.4-1.4c5.2-5.7,9.6-12.2,13.3-19.5c0.5-1.2,1-2.4,1.3-3.6c0.3-1.3,0.4-2.6,0.2-3.9H366c0.1-0.2,0.1-0.4-0.1-0.7
			c-0.1-0.3-0.2-0.5-0.3-0.8c-0.7-1.5-1.6-2.6-2.7-3.2h-0.4h0.1v-0.1c-0.1-0.1-0.3-0.2-0.4-0.3c-0.1-0.1-0.3-0.1-0.4-0.1l-0.1-0.1
			l0.1,0.1v-0.1c-0.1-0.1-0.1-0.2-0.2-0.1s-0.1,0.1-0.1,0.1l0.1-0.1c-0.4-0.1-0.8-0.2-1.1-0.3s-0.6-0.1-1-0.3
			c-1.6-0.1-3.1,0.1-4.5,0.6c-0.1-0.1-0.2-0.1-0.3-0.1c-0.1,0-0.2,0-0.3-0.1c-0.8-0.6-1.2-1.3-1.2-2.1c0-0.9-0.1-1.8-0.2-2.8
			c0.1-0.4,0.3-0.8,0.5-1.2c0.2-0.4,0.5-0.7,0.9-1c0.6-0.3,1.2-0.4,1.8-0.4c0.6,0,1.1-0.3,1.4-0.9c0.1-0.2,0.1-0.4-0.1-0.5
			c-0.2-0.1-0.3-0.2-0.5-0.4c-0.3-0.3-0.8-0.4-1.4-0.3c-0.6,0.1-1.2,0.2-1.6,0.2h0.1c-0.4-0.1-0.7-0.2-0.8-0.2
			c-0.2-0.1-0.3-0.3-0.4-0.5c0-0.2-0.2-0.3-0.4-0.4c-0.2-0.7-0.3-1.5-0.4-2.4s-0.1-1.6-0.2-2.4c0.2-1,0.8-1.7,1.7-2s1.8-0.6,2.7-0.8
			c0.3-0.1,0.5-0.1,0.7-0.1s0.4-0.1,0.7-0.2c0.7-0.1,1.5-0.2,2.2-0.2c0.7,0,1.5-0.1,2.3-0.2c0.7,0.1,1.6,0.1,2.4,0.1
			C366.2,136.1,367.1,136.2,367.8,136.4L367.8,136.4z M424.3,136.1c-2.3-0.2-4.8,0-7.5,0.5c-0.7,0.1-1.4,0.3-2,0.5
			c-0.7,0.2-1.3,0.6-1.7,1.1c-0.1,0.3-0.2,0.7-0.3,1.2s0,0.9,0.1,1.2c0.2,0.5,0,0.9-0.5,1.2c-0.2,0.1-0.4,0.1-0.5,0
			c-0.1-0.1-0.3-0.1-0.5-0.1c-0.3-0.3-0.7-0.7-1.1-1c-0.4-0.3-0.9-0.4-1.4-0.3c-2.9,1.1-5.7,2.6-8.2,4.6c-2.6,2-4.8,4.2-6.8,6.8
			c-0.5,0.5-0.8,1.2-0.8,1.9s-0.1,1.5-0.3,2.1c-0.8,1.4-1.6,2.7-2.2,4.1c-0.7,1.4-1.3,2.8-1.9,4.3c-1.7,4-2.8,8.3-3.4,13
			s-0.3,9.1,1,13.4c0.6,2.3,1.5,4.6,2.7,6.7s2.7,4,4.5,5.4c1.8,1.4,3.7,2.5,5.8,3.2c2.1,0.7,4.2,1.1,6.4,1.2
			c2.2,0.1,4.3-0.1,6.4-0.5s4.1-1.1,5.9-1.9l0.1,0.1l0.2-0.1c0.1,0.1,0.1,0.1,0,0.1c-0.1,0-0.1,0-0.1,0.1l0.2-0.2v-0.2l0.1,0.1
			c0.7-0.5,1.4-0.9,2-1.1c0.6-0.2,1.2-0.6,2-1.1c0.1-0.1,0.1-0.1,0.2-0.1c0.1,0,0.1,0,0.1-0.2l0.1,0.1c0.3-0.3,0.7-0.7,1.2-1
			c0.5-0.3,1-0.7,1.4-1c1.2-0.8,2.2-1.8,3.2-2.9c1-1.1,2-2.1,3.1-3.2c1.7-2.2,3.3-4.4,4.8-6.5c1.5-2.2,2.8-4.5,3.9-7
			c2.1-4.3,3.5-8.9,4.3-13.8c0.7-4.9,0.3-9.7-1.2-14.4c-0.9-2.8-2.2-5.4-3.8-7.8c-1.7-2.4-3.7-4.4-6.2-6c-2.8-1.8-5.8-2.8-9.1-3
			L424.3,136.1z M417.1,144.6c0,0.5-0.2,0.7-0.6,0.8c-0.4,0.1-0.7,0.2-1,0.4c-0.1,0.1-0.3,0.1-0.5,0.2c-0.2,0.1-0.4,0-0.6-0.1
			c-0.3-0.3-0.3-0.6-0.1-0.9c0.2-0.3,0.5-0.5,0.8-0.6s0.7-0.3,1-0.4C416.8,144,417.1,144.2,417.1,144.6L417.1,144.6z M425.5,160.9
			c0.6,3.5,0.4,7-0.6,10.4c-1,3.4-2.3,6.7-3.9,9.9c-1,1.8-2.1,3.5-3.4,5.3c-1.3,1.7-2.9,2.9-4.9,3.6c-1.3,0.6-2.8,0.9-4.4,0.8
			c-1.6-0.1-3-0.6-4-1.6c-0.8-0.5-1.5-1.3-2-2.3c-0.5-1-0.8-1.9-1-2.8h-0.1c-0.1-0.5-0.2-1.2-0.3-2c-0.1-0.8,0-1.5,0.1-2L401,180
			c0.1-0.2,0.1-0.4,0.1-0.7c0-0.3,0.1-0.7,0.2-1c-0.1-0.2-0.1-0.4,0-0.7c0.1-0.3,0.1-0.5,0.2-0.8c0.3-1.1,0.5-2.1,0.8-3.2
			c0.2-1,0.6-2,1.2-3c0-0.1,0-0.3,0.1-0.5c0.1-0.2,0.2-0.4,0.3-0.5l0.2-0.1c-0.1-0.1-0.2-0.1-0.1-0.1s0.1,0,0-0.1
			c0.1-0.2,0.2-0.4,0.3-0.6s0.2-0.4,0.4-0.5c0.3-0.7,0.7-1.4,1.2-2c0.5-0.6,1-1.3,1.4-1.9c0.3-0.2,0.5-0.5,0.7-0.8
			c0.2-0.3,0.5-0.6,0.8-0.8c1.2-1.2,2.5-2.1,3.7-3c1.3-0.8,2.7-1.4,4.3-1.8c0.3-0.1,0.6-0.3,0.9-0.6s0.4-0.6,0.4-1v-0.5
			c0.1-0.1,0.1-0.2,0-0.2c-0.1,0-0.1,0-0.1-0.1c-0.1-0.3-0.1-0.6-0.2-0.9s0-0.6,0.1-0.9c0.5-0.1,1-0.1,1.5,0.2
			c0.4,0.2,0.9,0.5,1.4,0.7c1.2,0.7,2.2,1.6,3,2.7C424.7,158.3,425.3,159.5,425.5,160.9L425.5,160.9z M464.9,136
			c0.2,0.2,0.4,0.3,0.6,0.3c0.1,0.2,0.3,0.4,0.5,0.6c0.2,0.2,0.2,0.4,0.1,0.7c0.1,0.3,0.2,0.7,0.1,1c-0.1,0.3,0.1,0.6,0.4,0.8
			c0.7,0,1.2-0.4,1.5-1.1c0.2-0.7,0.6-1.2,1.1-1.6c0.3-0.1,0.7-0.3,1.1-0.4c0.4-0.1,0.8-0.2,1.2-0.1c0.6,0.1,1.3,0.1,1.9,0
			c0.7-0.1,1.3,0,1.8,0.1c0.4,0.1,0.7,0.4,1,0.7c0.2,0.3,0.4,0.7,0.4,1c-0.1,0.5-0.2,1.1-0.4,1.6c-0.2,0.5-0.3,1.1-0.4,1.5
			c-0.3,0.7-0.6,1.6-0.9,2.4s-0.6,1.7-0.8,2.6l0.2,0.2l-0.3-0.1c-0.1,0.8-0.4,1.6-0.7,2.5s-0.2,1.7,0.4,2.5c0.2,0.3,0.4,0.7,0.6,1.2
			c0.2,0.4,0.2,0.9,0.1,1.5c-0.4,1.6-0.9,3.2-1.4,4.8c-0.5,1.7-1,3.3-1.5,4.9c-0.5,1.9-1,3.8-1.5,5.7c-0.4,1.9-0.9,3.8-1.5,5.6
			c-0.3,1.3-0.5,2.5-0.8,3.6c-0.3,1.1-0.5,2.3-0.8,3.6c-0.1,0.1-0.2,0.1-0.1,0.2c0.1,0.1,0.1,0.1-0.1,0.1c0,0.1,0,0.3-0.1,0.4
			s-0.1,0.3-0.1,0.4v0.3c-0.1,0.1-0.1,0.1-0.1,0.1v-0.1c-0.1,0.1-0.1,0.1-0.1,0.2l0.1,0.1c-0.1,0.1-0.2,0.2-0.2,0.3
			c0,0.1,0,0.2-0.1,0.3c-0.1,0.5-0.2,1.1-0.4,1.5c-0.2,0.5-0.3,1-0.4,1.4h0.2c-0.3,0.9-0.5,1.7-0.6,2.3c-0.1,0.5-0.3,1-0.4,1.5
			c-0.1,0.5-0.2,1-0.2,1.5c-0.1,0-0.1,0.1-0.2,0.2c0,0.1,0,0.2,0.1,0.2c-0.2,0.7-0.4,1.4-0.5,2c-0.1,0.6-0.2,1.3-0.4,2
			c0,0.3-0.1,0.5-0.2,0.7c-0.1,0.2-0.2,0.4-0.2,0.7l0.1,0.1h-0.1c-0.1,0.1-0.1,0.1,0,0.2c0.1,0.1,0.1,0.1-0.1,0.1
			c-0.3,1.6-0.5,3.2-0.7,4.7c-0.1,0.2-0.1,0.4-0.2,0.7c0,0.2-0.1,0.4-0.2,0.6c0.1,0.1,0.1,0.2,0,0.3c-0.1,0.1,0,0.2,0.1,0.3
			c-0.1,0.1-0.2,0.3-0.3,0.4c-0.1,0.1-0.2,0.3-0.2,0.5l-0.1-0.1c-0.3,0.4-0.6,0.7-0.9,0.8c-0.3,0-0.6,0.1-0.9,0.2s-0.5,0.1-0.8,0
			c-0.1,0.1-0.2,0.1-0.3,0c0-0.1-0.1-0.1-0.3-0.1c-0.2,0.1-0.5,0.1-0.8,0.1c-0.1-0.1-0.2-0.1-0.3-0.1c-0.1,0-0.2,0-0.4-0.1
			c-0.3,0.1-0.5,0.2-0.8,0.1c-0.2-0.1-0.5-0.1-0.8,0.1c0-0.1,0-0.1-0.1-0.1c-0.1,0.1-0.1,0.2-0.1,0.1c0-0.1,0-0.2-0.1-0.1l-1.9-0.1
			c-0.3,0-0.4-0.1-0.5-0.4s-0.2-0.5-0.4-0.6c-0.1-0.5-0.2-1.1-0.1-1.6c0.1-0.5-0.1-1-0.5-1.4c-0.2-0.1-0.4-0.1-0.6,0.1
			s-0.3,0.2-0.5,0.4c-0.1,0.1-0.2,0.3-0.3,0.6c-0.1,0.1-0.2,0.2-0.1,0.3s0,0.3-0.1,0.4c-0.1,0.3-0.3,0.7-0.4,1
			c-0.1,0.3-0.4,0.6-0.7,0.9c-0.3,0.1-0.5,0.2-0.6,0.3c-0.1,0.1-0.4,0.1-0.7,0.1c-0.6-0.1-1.1-0.5-1.5-1.2c0.3-3.7,0.7-7.3,1-10.9
			s0.7-7.2,1-11c0.3-2.2,0.7-4.5,1-6.8s0.7-4.6,1.1-6.8c0.1-1,0.3-1.9,0.5-2.9c0.2-1,0.3-2,0.5-3.1v0.1c0.1-0.7,0.3-1.4,0.4-2.3
			c0.1-0.8,0.2-1.6,0.2-2.4c-0.1-0.7-0.5-1.2-1-1.5c-0.9-0.4-1.7-0.8-2.6-1.2c-0.8-0.4-1.6-0.9-2.3-1.4c-0.3-0.3-0.4-0.5-0.3-0.8
			c0.1-0.3,0-0.6-0.1-0.9l0.8-1.5c2.6-2.3,5.1-4.7,7.6-7c2.5-2.4,4.6-5.1,6.4-8.2c0.1-0.1,0.3-0.3,0.5-0.4c0.2-0.1,0.3-0.3,0.3-0.4
			l0.2-0.1v0.1c0.5-0.3,1.1-0.4,1.6-0.3C463.8,136.2,464.4,136.1,464.9,136L464.9,136z M507,137.4c0.3,0.6,0.2,1.1-0.2,1.4
			c-0.4,0.3-0.5,0.8-0.3,1.3c0.3,0.1,0.7,0.2,1,0.1s0.6-0.3,0.9-0.5c0.3-0.2,0.5-0.5,0.8-0.8c0.3-0.3,0.5-0.5,0.8-0.6
			c0.6-0.3,1.2-0.2,1.7,0.2c0.5,0.4,1.1,0.6,1.6,0.8v-0.1h0.1v0.1c0.1,0.1,0.3,0.3,0.6,0.4c0.3,0.1,0.6,0.2,0.9,0.3
			c0.1,0.2,0.3,0.3,0.5,0.4c0.2,0.1,0.4,0.2,0.5,0.4c0.1,0.5,0.4,0.8,0.8,1.1c0.4,0.2,0.8,0.4,1.3,0.6c0.1,0.1,0.3,0.2,0.5,0.3
			c0.2,0.1,0.4,0.2,0.5,0.3c0.3,0.1,0.4,0.3,0.5,0.6s0.2,0.4,0.4,0.6c-0.1,0.1-0.2,0.2-0.2,0.3s-0.1,0.2-0.2,0.3l-0.1,0.5
			c-1.2,1-2.2,1.9-3.3,3c-1,1-2.1,2.1-3.3,3.2c-0.1,0.1-0.3,0.3-0.4,0.4s-0.2,0.3-0.4,0.5c-1.2,1.2-2.4,2.4-3.4,3.6
			c-1.1,1.2-2.1,2.4-3.2,3.8v0.1v-0.1c-0.8,0.9-1.5,1.8-2.2,2.7c-0.6,0.9-1.3,1.9-2.1,2.8c0,0.1,0,0.1-0.1,0.1c0,0-0.1,0-0.1,0.1
			c-0.1,0.3-0.3,0.5-0.4,0.6c-0.1,0.1-0.2,0.3-0.4,0.5c0.1,0.1,0,0.3-0.2,0.5l-0.1-0.1v0.2v-0.1c-0.1,0.1-0.1,0.1-0.1,0.2h0.1
			c-0.2,0.2-0.3,0.3-0.3,0.3c-1.2,1.8-2.3,3.8-3.4,5.9c-1,2.1-1.8,4.3-2.4,6.6l-0.1,0.1c-0.2,1-0.4,2.2-0.5,3.4
			c-0.1,1.3,0,2.4,0.3,3.4c0,1.5,0.4,2.7,1.2,3.6v0.2h0.1H495c0.4,0.5,0.9,1,1.5,1.5s1.2,0.7,1.8,0.7c0.1-0.1,0.2-0.1,0.3,0
			c0.1,0.1,0.2,0.1,0.3,0c0.1,0.1,0.3,0.2,0.6,0.2c0.1-0.1,0.2-0.2,0.3-0.1c0,0.1,0.1,0.1,0.3,0.1v-0.3c0,0.1,0.1,0.2,0.4,0.2
			c1.2-0.3,2.1-0.8,2.9-1.5c0.7-0.7,1.4-1.7,1.8-2.8c0.3-1.1,0.4-2.2,0.3-3.5c-0.1-1.2-0.6-2.3-1.3-3.3c-0.6-0.8-1.4-1.3-2.3-1.4
			h0.1c-0.1-0.2-0.3-0.3-0.4-0.3c-0.1,0-0.4,0-0.7-0.2c-0.1-0.1-0.2-0.2-0.3-0.1c-0.1,0.1-0.2,0.1-0.3-0.1c-0.6,0-1.1-0.3-1.5-0.8
			l-0.2-1.6c0.1-0.5,0.3-1,0.5-1.4c0.2-0.4,0.5-0.6,1.1-0.8c0.6-0.1,1.2-0.1,1.8,0s1.1,0,1.6-0.5c0.1-0.2,0.1-0.4-0.1-0.6
			s-0.3-0.3-0.5-0.5c-0.3,0-0.5-0.1-0.8-0.2s-0.5-0.2-0.8-0.2s-0.5-0.1-0.8-0.2c-0.2-0.1-0.3-0.1-0.4-0.2c-0.1-0.1-0.2-0.2-0.3-0.4
			c-0.3-0.5-0.4-1-0.2-1.4c0.2-0.5,0.3-1,0.3-1.4c0.2-0.3,0.4-0.7,0.5-1.2c0.1-0.4,0.3-0.8,0.5-1.1c-0.1-0.1-0.1-0.3-0.1-0.6v0.1
			c0.7-0.2,1.4-0.4,2.1-0.5c1-0.1,1.9-0.1,2.9-0.1s1.9,0.2,2.9,0.6c2.7,0.7,5,2.2,7,4.3c2,2.1,3.3,4.5,3.9,7.2
			c0.5,2,0.6,3.9,0.5,5.8c-0.1,1.9-0.5,3.8-1.1,5.6s-1.4,3.6-2.4,5.2c-1,1.6-2.1,3.1-3.4,4.5c-2,2-4.2,3.8-6.7,5.2
			c-2.5,1.4-5.2,2.3-8.1,2.6c-1,0.1-1.9,0.1-2.8,0.1s-1.8-0.1-2.7-0.4c-0.1-0.1-0.2-0.1-0.4-0.1c-0.1,0-0.2,0-0.3-0.1
			c-1.9-0.4-3.7-1.2-5.4-2.4c-1.7-1.2-3-2.6-4-4.1l-0.2-0.2c-0.8-1.2-1.6-2.6-2.3-4c-0.7-1.5-1.3-3-1.6-4.5c-1-3.4-1.3-6.9-0.9-10.6
			c0.3-3.6,1.1-7.1,2.2-10.5c1-2.9,2.2-5.6,3.7-8.2c1.5-2.5,3.1-5,4.6-7.5c0.7-1.2,1.5-2.2,2.3-3.3s1.6-2.1,2.5-3.3
			c0.1-0.3,0.4-0.6,0.7-0.9c0.3-0.3,0.6-0.6,0.8-0.9c0.3-0.3,0.5-0.7,0.8-1.2h0.2c1-1.3,2.2-2.6,3.5-4c1.3-1.4,2.6-2.8,3.9-4.1
			c0.1,0.1,0.2,0,0.2-0.1s0-0.2,0.2-0.2c0.3-0.2,0.6-0.4,0.9-0.6c0.3-0.2,0.6-0.2,0.9-0.1c0.3,0.1,0.7,0.3,1.2,0.4
			C506.5,136.6,506.8,137,507,137.4L507,137.4z M498.5,192.6h-0.1v0.1L498.5,192.6z"/>
		<path id="React-Rally_x21_" class="st2" d="M29.6,12.4c-0.5,0.3-0.8,0.3-1.1,0c-1.8,0.3-3.7,0.6-5.6,0.9c-1.9,0.3-3.7,0.5-5.4,0.6
			c-2.4,0.4-4.8,0.7-7.2,1c-2.4,0.3-4.8,0.7-7.2,1.3c-0.2,0.6-0.5,0.8-1,0.6c-0.5-0.1-0.8,0.3-1,1.2c-0.3-0.2-0.4,0-0.4,0.6
			c0,0.5-0.1,0.9-0.4,1.1c-0.1,2-0.1,4-0.2,5.9s0,4,0.2,6.1C0.7,33,1,34.5,1.2,36.3c0.1,1.6,0.2,3.2,0.2,4.6
			c0.1,1.4,0.6,2.5,1.4,3.3c0.8,0.7,1.6,1.3,2.3,1.6c0.1,0.2,0.2,0.6,0.3,1.3c-0.3,0.4-0.6,0.8-0.7,1.2c-0.2,0.4-0.5,0.6-1,0.6
			c-0.5,0.8-1.1,1.3-1.6,1.6c-0.5,0.3-1,1.1-1.3,2.4c0.1,0.9,0,2-0.2,3.2c-0.2,1.2,0,2.2,0.5,3.1c0.5,1.1,1.1,1.7,1.8,2
			s1.5,0.3,2.2,0.1c0.4,0.3,0.6,0.4,0.8,0.3c0.1-0.1,0.3-0.3,0.7-0.5c0.2,0.4,0.3,0.4,0.4,0.2c0.1-0.2,0.2-0.1,0.4,0.2
			c0.5-0.2,1-0.3,1.6-0.1c0.5-0.1,0.8-0.2,1.1-0.4c0.2-0.2,0.4-0.1,0.4,0.2c0.3-0.5,0.6-0.6,0.9-0.5s0.6,0.1,1.1,0
			c0.6-0.1,1.1,0.6,1.5,2.1c0.1,1.1-0.1,1.9-0.7,2.5c-0.9,0.4-1.8,0.7-2.5,0.9S9.3,67,8.5,67.6c-1.2,1.4-2.1,3.6-2.7,6.5
			c0,3.8-0.1,7.6-0.2,11.5c-0.1,3.8-0.2,7.6-0.2,11.2c-0.2,0.5-0.2,0.7,0.1,0.8c-0.1,1.5-0.1,3-0.1,4.6s0.1,3.2-0.1,4.6
			c-0.5,2.6-0.4,5,0.5,7.3s1.1,4.7,1,7.3c-0.1,6.9-0.2,14-0.3,21.2c0,7.2,0,14.6,0,22.2c0.1,1.6,0.2,3.4,0.1,5.3s0,3.8,0.1,5.6
			c-0.2,4.7-0.2,9.8,0.1,15.3c0,1.8,0.1,3.8,0.1,5.9c0,2.1,0.5,3.8,1.6,5.2c1.2,1.2,2.3,1.6,3.4,1.3c1.1,0.4,2.3,0.8,3.5,1.2
			s2.4,0.2,3.5-0.4c0.8-1,1.3-1.7,1.4-2.9c0.1-1.1,0.3-2.2,0.4-3.3c0.1-1.1,0.3-2,0.3-2.8c0.1-0.7,0.2-1.6,0.5-2.5
			c0.5-0.8,1.1-0.6,1.7,0.4c0.3,1.1,0.6,2.4,0.7,4s0.4,2.9,0.7,3.8c0.3,0.9,0.7,1.3,1.2,1.3s0.9,0,1.3,0.2c0.6-0.2,1.1-0.3,1.6-0.1
			c0.5,0.1,1-0.2,1.4-0.9c0.1-0.4,0.3-0.5,0.6-0.3c0.3,0.2,0.2-0.8,0.2-0.8c0.3-1.4,0.4-2.5,0.3-3.7c0-1.2,0-2.3,0.2-3.4
			c0-1.3,0.1-2.6,0.1-3.8c0.1-1.3,0.1-2.5,0-3.5c0.4-1.1,0.7-2.3,1.1-3.5c0.3-1.2,0.5-2.5,0.7-3.7c0.3-6.8,0.5-13.5,0.8-20.1
			c0.3-6.7,0.7-13.4,1.2-20.2c0.2-0.9,0.2-1.9,0.1-3c-0.1-1.3,0.1-2.3,0.6-3.1c0.7-0.4,1.2-0.4,1.7,0.1c3.4,7.2,6.7,14.3,9.8,21.4
			s6.2,14.3,9.1,21.7c0.7,1.4,1.3,2.8,1.8,4.2c0.5,1.4,1.2,2.6,2.1,3.6c2.8,6.7,5.4,13.3,7.8,19.8l1.3,1.8c0.5,0.7,1.2,0.9,1.9,0.7
			c0.7-0.2,1.4-0.4,2-0.4c0.7-0.4,1-1.1,1-2.1c0-1,0.2-1.7,0.8-2.1c0.9-0.4,1.8-0.3,2.5,0.5c0.7,0.8,1.5,1.3,2.4,1.6
			c1.7-0.5,3.3-1.1,5-1.7c1.7-0.6,3.3-1.2,5-1.7c1.5-0.7,2.3-2,2.4-4c-0.7-3.6-1.6-7.1-2.7-10.5c-1.1-3.5-2.1-6.9-3-10.2
			c-1.4-5.2-3-10.4-4.8-15.8c-1.8-5.4-3.5-10.7-5.3-16c-0.8-2.5-1.6-4.9-2.4-7.3c-0.8-2.4-1.6-4.8-2.4-7.3c-0.4-1.4-0.8-2.8-1.4-4.1
			c-0.5-1.3-0.9-2.8-1-4.4c0.2-0.6,0.3-1.2,0.4-1.9c0.1-0.7,0.3-1.3,0.6-1.7c4.9-6.3,9-14.1,12-23.6c3.1-9.5,4.5-19.4,4.2-29.7
			c-0.3-6-1-11.6-2.3-16.7S81.5,35.8,79,31.1c-0.4-0.1-0.6-0.4-0.7-0.9s-0.3-0.7-0.7-0.9c-3.5-6.4-7.7-10.8-12.7-13.1
			c-5-2.3-10-3.7-15.2-4.1C49.4,12,49,12,48.5,11.6c-0.5-0.4-0.9-0.4-1.4,0c-1.1-0.1-2.3-0.1-3.7,0c-1.2,0.1-2.4,0.1-3.7,0
			c-1,0.3-2,0.4-3.1,0.3c-1.1-0.1-2.1,0.1-3.1,0.5c-0.6-0.3-1.6-0.4-3-0.3C30.4,12,30.1,12.1,29.6,12.4z M46.3,44.8
			c0.9,0.1,1.8,0.4,2.8,0.9c0.6,0.4,1.3,0.7,2.1,0.9c0.8,0.2,1.4,0.6,1.9,1.3c2.9,2.5,4.7,5.6,5.4,9.2c0.7,3.6,0.8,7.2,0.1,10.7
			c-0.7,3.5-1.9,6.7-3.8,9.6c-1.9,2.9-3.9,5.6-6.1,8.2c-1.1,1-2.2,1.8-3.4,2.5c-1.2,0.6-2.4,1.3-3.7,2c-0.5-0.1-1.2-0.3-2.1-0.6
			c-0.9-0.4-1.3-1.1-1.3-2.2c0-3.4,0-6.5-0.1-9.4c-0.1-2.9-0.1-6-0.1-9.4c-0.1-2.6-0.1-5.2,0-7.9c0.1-2.7,0.2-5.2,0.3-7.7
			c-0.2-0.9-0.2-1.8-0.1-2.7c0.1-0.9,0.1-1.8-0.1-2.7c0.5-1.4,1.4-2.3,2.8-2.6c0.7,0,1.5-0.1,2.6-0.3C44.5,44.6,45.4,44.7,46.3,44.8
			z M33.7,48.1c0.2,0.2,0,0.6-0.5,1.1c0.6,0.3,0.8,0.9,0.6,1.7c-0.2,0.8-0.4,1.6-0.6,2.3c0.4,0.4,0.3,0.8-0.1,1.1
			c-0.5,0.3-0.4,0.6,0.1,0.8l-0.9,2.2c-0.3-0.3-0.5-0.2-0.5,0c0,0.3-0.2,0.4-0.4,0.3c-0.9,0-1.5-0.3-1.6-0.8
			c-0.1-1.6-0.5-3.1-1.1-4.6c-0.6-1.5-0.2-2.9,1.4-4.4l0.1,0.2l0.3-0.1c-0.1-0.3,0-0.4,0.2-0.3s0.5-0.1,0.8-0.6
			c0.1,0.3,0.3,0.3,0.5,0c0.2-0.3,0.6-0.3,1.3,0.2C33.4,47.7,33.5,47.9,33.7,48.1z M169.6,22.1c1.6,0.1,2.7,1,3.4,2.6
			c0.2,0.3,0.2,0.6,0.2,0.9s0,0.5,0.2,0.9l-0.2-0.2l-0.1,0.5l0.4,7.5c0.3,1,0.2,1.9,0,2.6s-0.5,1.6-0.6,2.5
			c-0.9,2.3-2.2,3.8-3.8,4.5c0.1,0.5,0,0.8-0.3,0.9s-0.3,0.3-0.1,0.6c0,0.3,0.3,0.8,0.9,1.4c0.2,0,0.6,0.1,0.9,0.3s0.7,0.5,1,0.8
			c0.1,0,0.3,0.2,0.4,0.6s0.4,0.7,0.7,1.1c0.3,1.3,0.4,2.6,0.3,3.9c-0.1,1.3-0.2,2.6-0.2,3.9c-0.2,0.2-0.4,0.4-0.5,0.7
			s-0.3,0.4-0.7,0.5c-0.6,0.2-1.1,0.4-1.6,0.6c-0.5,0.1-1,0.1-1.7-0.2c-3.5,0.3-6.9,0.5-10.1,0.9c-3.2,0.3-6.5,0.6-9.7,0.8
			c-0.8,0.3-1.6,0.4-2.5,0.4s-1.5,0.6-2,1.6c-0.1,0.5-0.2,0.9-0.3,1.2c-0.1,0.3-0.1,0.6,0,1.1c-0.1,0.4-0.2,0.8-0.1,1.4
			c0.1,0.6,0.2,1.1,0.1,1.6c-0.2,0.2-0.3,0.4-0.1,0.5c0.1,0.2,0.3,0.4,0.5,0.7c0.1,0.2,0.4,0.2,0.9,0.1c0.3-0.5,0.6-1.2,0.8-1.9
			c0.2-0.7,0.4-1.4,0.6-2c0.2-0.6,0.4-1.1,0.8-1.5c0.4-0.4,0.9-0.5,1.7-0.5L149,64l-0.1-0.5c0.6,0.3,1.1,0.6,1.3,1.1
			c0.2,0.5,0.5,1,0.8,1.7c0,1.8-0.1,3.1-0.3,3.8c0,0.7-0.1,1.3-0.3,1.9c-0.2,0.6-0.2,1.3-0.1,2.2c-0.1,1.2-0.2,2.4-0.4,3.6
			c-0.2,1.2-0.3,2.5-0.4,3.8l0.2,1.5c0.2,1.7,0.6,2.6,1.3,2.9l2.5-0.3c0.7-0.1,1.5-0.3,2.3-0.5c0.5,0.3,1.1,0.4,1.7,0.3
			c0.7-0.1,1.3-0.2,1.8-0.5c1,0,1.9,0,2.9-0.1l3.1-0.4c0.5-0.1,1,0.2,1.6,0.8c0.2,0.3,0.3,0.7,0.5,1.1s0.2,0.8,0.1,1.1
			c0.1,0,0.1,0.2,0,0.5c-0.1,0.4-0.2,0.6-0.2,0.8c0.2,0.3,0.1,0.6-0.1,0.8c-0.2,0.2-0.3,0.5-0.3,0.8c-0.7,0.4-0.9,1.4-0.7,2.9
			c0,0.3,0.3,0.6,0.6,0.7c0.1,0.1,0.2,0.1,0.2,0.5c0.7,1.4,0.9,3.1,0.8,4.9c0.1,2.7-0.3,4.8-1.2,6.4c-0.5,0.6-1.3,0.9-2.2,1
			c-0.8,0.1-1.5,0.4-2.1,1c-0.9,0.4-1.7,1.2-2.3,2.3c-0.6,1.1-1.5,1.5-2.6,1.3c-1.5,0-2.9,0.1-4.2,0.4c-1.4,0.3-2.7,0.5-4,0.6
			c-1,0-1.8,0.6-2.5,1.8c-0.3,2.4-0.5,4.7-0.6,6.9c-0.1,2.2-0.2,4.5-0.4,6.9c0,1-0.1,2-0.2,2.9c-0.1,0.9,0,1.9,0.5,2.8
			c0.3,0.3,0.7,0.5,1.2,0.5c0.5,0,0.9,0,1.3,0c0.3,0.1,0.5,0.2,0.6,0c0.2-0.1,0.4-0.2,0.6-0.2c1.2,0.2,2.5,0.1,3.9-0.2
			c1.4-0.3,2.7-0.5,4-0.5c0.3-0.2,0.7-0.3,1.2-0.3c0.4,0,0.9-0.1,1.3-0.3c1.6,0,3.1-0.2,4.7-0.4c1.5-0.3,3.1-0.3,4.7-0.2l0.1,0.5
			c0.5,0.3,0.7,0.6,0.9,1s0.5,0.7,0.8,1c0,1.8-0.1,3.7-0.2,5.4c-0.1,1.8-0.1,3.6-0.2,5.4c-0.1,0.9-0.4,1.5-0.8,2s-0.4,1.3-0.2,2.4
			c0.2,0.8,0.5,1.5,0.8,2.2c0.3,0.6,0.5,1.4,0.6,2.2l-0.4,0c-0.2,1.2-0.3,2.3-0.2,3.4c0.1,1.1-0.2,2.2-0.8,3.2
			c-0.3,0.4-0.5,0.8-0.6,1.2c-0.1,0.4-0.3,0.7-0.8,0.7c-0.5,0.2-0.9,0.3-1.3,0.3c-0.4,0-0.9,0.2-1.5,0.6c-1.7,0-3.2,0.1-4.6,0.2
			c-1.4,0.1-2.9,0.2-4.6,0.4c-1.9-0.3-3.7-0.1-5.6,0.6s-3.6,0.1-5.3-1.7c-0.6-0.3-1-0.2-1.1,0.1c-0.5,0.9-1.1,1.5-1.9,1.7
			c-0.8,0.3-1.5,0.5-2.4,0.8l-0.2-0.2c-2.2,0.6-4.4,1-6.4,1s-4.3,0.4-6.6,0.8c-1.4-0.2-2.4-0.9-3.2-2.1c-0.1-0.3-0.2-0.9-0.6-1.7
			c-0.3-1.1-0.4-2.4-0.3-3.7s0-2.5-0.2-3.5c0.2-2.4,0.2-5,0-7.8s-0.3-5.4-0.2-7.8c0-2.3-0.1-4.7-0.2-7.2c-0.1-2.4-0.1-4.8-0.2-7.2
			c0-2.2,0-4.4,0-6.6s0-4.4,0-6.6c0.2-0.7,0.2-1.4,0-2.3c-0.2-0.8-0.2-1.6,0-2.3c0-4.5,0.1-9.3,0.3-14.1s0.3-9.5,0.5-13.9
			c0-1.3,0.3-2.3,1-2.9s1.3-1.4,1.8-2.5c0.3-1.4,0.5-2.7,0.4-4.1c0-1.3,0-2.7,0.1-4c0.1-0.5,0.1-1.1,0.2-1.7c0-0.6-0.2-1.1-0.7-1.5
			c-0.8-0.4-1.6-0.5-2.5-0.2c-0.9,0.3-1.8,0.3-2.6,0.1c0-0.2-0.1-0.2-0.2-0.2c-0.1,0.1-0.2,0.1-0.3-0.1c-0.1-0.2-0.2-0.3-0.5-0.1
			c0.1-0.3,0.1-0.5-0.1-0.5c-0.1,0-0.1,0.3-0.1,0.3c-0.3-0.1-0.3-0.3-0.2-0.4c0.1-0.1,0.1-0.3-0.1-0.6c-0.5-0.6-0.6-1.2-0.4-1.8
			c0.2-0.6,0.1-1.3-0.1-2.1c0.1-0.5,0.1-1.1,0.1-1.6c0-0.6,0-1.1,0.1-1.6c0.2-0.2,0.2-0.3,0.2-0.4c0.1-0.1,0.1-0.3,0-0.6
			c0.2-0.5,0.6-0.9,1.1-1.1c0.6-0.2,0.9-0.7,1.1-1.4c0-0.3,0-0.6,0.1-0.8c0.1-0.2,0.1-0.4-0.1-0.7c-0.5-0.3-1.1-0.7-1.9-1.2
			s-1.1-1.2-1.2-2c-0.2-2-0.3-4-0.2-6.1c0.1-2.1,0.2-4.2,0.2-6.2c1.2-2.2,2.8-3.2,4.8-3.2c2,0,3.8-0.3,5.4-1c1.1-0.3,2-1,2.9-2
			c0.8-1,1.8-1.4,2.9-1.2l2-0.2l0.4,0l1.4-0.2L142,26c1.2-0.1,2.5-0.4,3.9-0.7c3.7-0.5,7.6-1,11.6-1.5s8-1,12-1.3L169.6,22.1z
			 M247.9,19.5c-0.6-0.6-1.2-1.1-1.8-1.3c-0.5,0.4-1.1,0.4-1.6,0.3c-0.5-0.2-1.1-0.1-1.6,0.3l-0.9,1.2c-0.5,0.5-1,0.5-1.5,0
			c-0.4-0.5-1-0.7-1.5-0.7c-0.1,0-0.2-0.1-0.3-0.2s-0.2-0.1-0.3,0c-0.8-0.2-1.5-0.2-2,0.1c-0.5,0.3-1.2,0.3-2.2,0.1
			c-0.6,0.5-1.2,1.1-1.6,1.9c-0.4,0.7-1,1-1.8,0.7c-0.4-0.1-0.6-0.3-0.8-0.6c-0.2-0.3-0.5-0.3-0.8-0.2l-1.6-0.1
			c-0.2,0.3-0.4,0.5-0.5,0.6s-0.3,0.3-0.5,0.6c-1.8,4.5-3.5,9-5.2,13.6c-1.7,4.6-3.3,9.3-4.8,14.1c-2.5,7-4.9,14.1-7.2,21.2
			c-2.3,7.1-4.6,14.3-6.7,21.4c-1.9,5.9-3.6,11.8-5.1,17.8c-1.5,6-3.1,12-4.9,18c-0.6,2.7-1.2,5.3-2,7.9c-0.8,2.6-1.4,5.2-1.8,7.7
			c-0.3,0.8-0.5,1.5-0.7,2.3c-0.2,0.7-0.3,1.5-0.3,2.5c0.1,0.6,0.2,1.1,0.6,1.5c0.3,0.4,0.6,0.8,0.9,1.2c0.9,0.7,1.7,0.8,2.6,0.2
			c0.9-0.5,1.6-1.1,2.3-1.8c0.7-0.4,1.2-0.3,1.8,0.3c0.5,0.6,1.1,0.9,1.6,1c0.3,0,0.7,0,1.2,0c0.5,0,0.8-0.2,1-0.7
			c0.3-0.5,0.7-0.6,1.2-0.4s0.9,0.3,1.3,0.5c0.6-0.1,1,0,1.4,0.1c0.4,0.1,0.7,0,1-0.3c0.1,0.2,0,0.3,0,0.5l0.5,0
			c-0.3-0.3-0.4-0.4-0.4-0.4c0.2-0.2,0.3-0.2,0.3,0c0.5-0.3,0.8-0.7,1.1-1c0.3-0.3,0.6-0.7,0.9-1.2c0.7-2.2,1.4-4.4,2-6.7
			c0.6-2.2,1.2-4.4,1.8-6.6c0.2-0.8,0.4-1.3,0.8-1.5c0.4-0.2,0.7-0.5,1-1c1.9-0.5,3.9-0.8,5.9-0.9s4-0.3,5.9-0.6
			c0.3-0.3,0.7-0.6,1.1-0.8c0.4-0.2,0.8-0.5,1.1-1c1.2-0.7,2.4-1.1,3.6-1c1.2,0,2.5-0.1,3.9-0.3c0.4,0.3,0.8,0.5,1.3,0.6
			c0.5,0.1,0.9,0.5,1.1,1.3c0.3,2.1,0.6,4.5,0.8,7.1s0.6,5.3,1,8c0.1,0.3,0.3,0.7,0.5,1.1c0.2,0.4,0.4,0.9,0.6,1.3
			c0.4,0.6,0.8,0.9,1.3,0.8c0.6-0.1,1,0.1,1.4,0.3c0.2-0.3,0.4-0.4,0.5-0.3s0.3,0.1,0.5-0.3c-0.1,0.4-0.1,0.5,0,0.5l0.1-0.5l0.7-0.1
			c1-1,2-1.4,3.2-1.2c1.2,0.2,2.3,0.3,3.5,0.2l0.5,0c0.8,0.2,1.3-0.2,1.7-0.8c0.4-0.7,0.7-1.3,0.9-1.9c0.4-0.7,0.8-0.7,1.2-0.1
			c0.1,0.8,0.5,1.4,1.2,2c0.5,0.6,1.1,0.7,1.8,0.3c0.3-0.2,0.6-0.4,0.7-0.8c0.1-0.3,0.3-0.6,0.3-1c-0.2-0.4-0.1-0.9,0.1-1.3
			s0.2-0.8,0-1.3c-0.2-0.1-0.3-0.3-0.1-0.6c0.2-0.2,0.2-0.4-0.1-0.6c0-0.8,0-1.6,0-2.5c-0.1-0.9-0.1-1.8,0-2.5
			c-0.4-7.7-0.9-15-1.3-22.1c-0.4-7.1-1-14.5-1.5-22.3c0.1-0.3,0.1-0.6-0.1-0.8c-0.1-0.2-0.2-0.5-0.1-0.8c-0.2-1.8-0.3-3.6-0.4-5.2
			s-0.3-3.3-0.5-5.2l0.1-0.5c-0.5-2.7-0.8-5.5-0.9-8.3c-0.1-2.8-0.4-5.7-0.9-8.7c-0.6-6.6-1.3-13.2-2.2-19.7
			c-0.9-6.6-1.7-13.2-2.5-19.9C248.9,21,248.5,20.2,247.9,19.5z M229.5,81.7c-0.1,0.5,0,0.8,0.2,1s0.2,0.5,0,0.8
			c0.3,0.3,0.3,0.5,0.1,0.7c0.2,0.6,0.3,1.1,0.4,1.6c0.1,0.5,0.2,1.1,0.2,1.8l0,0.5l0.1,0.9c0.3,0.7,0.4,1.3,0.3,1.7
			c-0.1,0.4,0,1,0.3,1.9l-0.1,0.7c0.1-0.2,0.2-0.2,0.2,0l0,0.2l-0.2,0.2l0.2,0.2c0,0.2,0.1,0.5,0.2,0.9c0.1,0.5,0.2,0.8,0.2,1.1
			c-0.1,0.6,0,1.4,0.2,2.3c0.2,0.9,0.4,1.8,0.5,2.7c0.1,0.9,0.1,1.8-0.1,2.5c-0.2,0.8-0.7,1.3-1.5,1.5c-1.4,0.1-2.9,0.2-4.7,0.3
			c-1.8,0.1-3.3,0.2-4.7,0.3c-0.2-0.1-0.5-0.2-0.7-0.2c-0.2,0-0.4-0.1-0.4-0.4c-0.1-1.2,0.1-2.3,0.5-3.3s0.8-1.9,1-2.9
			c1-2.9,2-5.8,3-8.8c1-3,2-6,3-9c0.2-0.2,0.5-0.6,0.9-1.2c0.3,0,0.6,0.2,0.7,0.6C229.4,81,229.5,81.4,229.5,81.7L229.5,81.7z
			 M232.3,112.2c0.1,1-0.1,1.5-0.6,1.7c-0.6,0.2-1.2,0.3-2,0.3c-0.8,0-1.5-0.2-2.1-0.7l0-0.5l-0.2,0c-0.3-0.3-0.3-0.4-0.2-0.5
			c0.1,0,0.2-0.1,0.2-0.3c0.1,0,0.2-0.1,0.2-0.4s0.1-0.3,0.3-0.1c0.6-0.2,1.1-0.5,1.5-0.7c0.4-0.3,1-0.3,1.6,0
			c0.2,0,0.5,0.1,0.8,0.3C232.1,111.7,232.3,111.9,232.3,112.2L232.3,112.2z M309.2,20.4c0.7,0,1.4,0.5,1.9,1.5l0.2,0.6
			c-0.1,1.1-0.1,2.1,0,3.1c0,1,0,2,0,3.1c-0.1,0.6-0.3,1.1-0.4,1.7s-0.3,1.2-0.4,1.9c0,0.4,0,0.8-0.2,1.1s-0.2,0.8,0.1,1.3
			c0,0.7,0,1.6-0.1,2.7c-0.2,0.3-0.2,0.6-0.2,1c0.2,0.4,0.4,0.9,0.5,1.6c0.1,0.5,0.2,1.1,0.4,1.8c-0.1,0.8-0.1,1.7,0,2.7
			c0.1,0.8-0.1,1.6-0.6,2.3c-0.4,0.9-0.9,1.3-1.6,1.3c-0.7,0-1.4,0.2-2,0.5c-1,0.3-1.9,0.7-2.8,1.5c-0.9,0.7-1.7,1.5-2.5,2.2
			c-1.9,2.1-3.5,4.5-5,6.9s-2.7,5.2-3.7,8c-0.3,0.9-0.6,1.5-1.1,2.1c-0.4,0.5-0.9,1.2-1.2,2.1l-0.1,0.2c-0.8,1.9-1.5,3.9-2,6
			c-0.5,2.1-0.9,4.3-1,6.5c-0.2,0.4-0.3,1-0.3,1.6c0,0.6,0,1.3-0.1,2c0,1.9,0.2,3.9,0.4,5.9c0.2,2,0.6,3.9,1.3,5.6
			c0.1,0.7,0.2,1.2,0.5,1.7c0.2,0.4,0.4,0.9,0.4,1.3c1.1,1.8,2.4,3.4,3.9,4.9c1.5,1.5,3.2,2.5,4.9,3c0.8,0.2,1.5,0.3,2.3,0.3
			s1.5,0,2.2-0.3c0.8,0,1.6-0.1,2.4-0.5c0.8-0.4,1.6-0.4,2.6-0.1c0.4,0.5,0.7,1.2,0.8,2.1c0,0.3,0,0.5-0.1,0.7
			c-0.1,0.2-0.1,0.5,0,0.9l0.2-0.4c-0.1,0.6-0.2,1.1-0.1,1.7c0,0.5,0.2,1,0.5,1.4c0,0.1,0.1,0.3,0.1,0.4s0.1,0.3,0,0.6
			c0.2,0,0.3-0.1,0.3-0.2c-0.1,0.3-0.1,0.5,0,0.5s0.1,0.2,0,0.5c0.1,0,0.2,0.1,0.2,0.4c-0.1-0.1-0.2-0.2-0.3-0.2l0.1,0.8
			c-0.2,0.4-0.3,1-0.2,1.7c0.1,0.7-0.1,1.2-0.5,1.5c-0.4,0.7-0.8,1.1-1.4,1.1c-0.6,0-0.9,0.5-0.9,1.6l0-0.4l-0.1,0.4
			c0.1,0.1,0.1,0.3,0.1,0.4c0,0.1,0.1,0.3,0.3,0.6c0.2,0.1,0.4,0.3,0.6,0.5c0.2,0.3,0.3,0.4,0.5,0.3c-0.1,0.1,0,0.5,0.3,1.2
			c0.2,0.4,0.3,0.8,0.3,1.2s0,0.8,0.1,1.2c-0.1,1.1-0.5,2-1,2.6c-0.5,0.6-1.1,1-1.8,1c-0.5,0.2-1.1,0.3-1.6,0.3
			c-0.6,0-1.1,0.2-1.6,0.5c-4.3,0.8-8.6,0.4-12.9-1.3c-4.3-1.7-8.1-4.9-11.5-9.6c-0.6-1.4-1.4-2.7-2.2-3.7c-0.8-1.1-1.5-2.3-2.1-3.7
			c-0.4-1.2-0.8-2.3-1.3-3.5c-0.4-1.2-0.7-2.3-1-3.4c-0.7-2.2-1.3-4.4-1.7-6.5s-0.7-4.3-1-6.4c-0.1-0.9-0.2-1.6-0.1-2
			c-0.2-1.7-0.3-3.4-0.3-4.9c0-1.5,0-3.1,0-4.9s0-3.4,0.2-5c0.1-1.6,0.3-3.1,0.6-4.7c0.5-5.4,1.4-10.3,2.9-14.9
			c-0.1-0.1,0-0.4,0.2-0.8l2.1-7.2c0.9-2.1,1.8-4.3,2.9-6.5s2-4.1,2.8-5.9c0.5-0.6,0.8-1.2,1-1.8c0.5-0.9,1-1.7,1.7-2.6
			s1.2-1.7,1.8-2.6c0.5-0.3,1-0.9,1.5-1.8c0.3-0.2,0.5-0.3,0.6-0.5c0.2-0.2,0.3-0.4,0.3-0.7c2.3-2.3,4.6-4.3,7.2-6
			c2.6-1.7,5.2-2.8,8.1-3.4c0.1-0.1,0.2-0.2,0.4-0.1c0.7-0.4,1.4-0.4,2.1-0.3c0.7,0.2,1.5,0.4,2.2,0.5
			C307.8,20.4,308.5,20.4,309.2,20.4z M353.6,16.3l5.8-0.4c2-0.1,4-0.2,5.9-0.2c0.1-0.3,0.1-0.3,0.2-0.2c0.1,0.1,0.1,0.2,0.2,0.2
			l4.3-0.3c1.5-0.1,3-0.1,4.4,0.1c0.9,0.3,1.4,1.2,1.4,2.6l-0.1,3.5c0.2,1,0.4,2,0.7,3c0.3,1,0.3,2,0.1,3c0,0.9-0.1,2-0.1,3.1
			c0,1.2-0.1,2.1-0.3,2.8l0.3,0c-0.1,0.1-0.2,0.2-0.4,0.3c-0.2,0.1-0.2,0.2-0.2,0.5l0-0.2c-0.2-0.1-0.3,0-0.2,0.2
			c0,0.1,0,0.2-0.1,0.2c-1,0.1-1.8,0.6-2.3,1.5c-0.1,0.5,0,1,0.5,1.3l0-0.2c0.2,0.6,0.4,1,0.5,1.2c0.1,0.2,0.2,0.6,0.3,1.3
			c0.2,0.8,0.1,1.5-0.5,2.2c-0.7,0.7-1.5,1-2.5,0.9c-0.9-0.1-1.9-0.1-2.8,0.1c-1.2,0.1-2.3,0.1-3.3,0.1c-1,0-2.1,0-3.3,0.1
			c-0.2,0.1-0.4,0.2-0.6,0.2c-0.2,0-0.3,0.2-0.3,0.6c0,0.9,0.2,1.4,0.7,1.6c0.5,0.2,0.9,0.5,1.2,1c0.1,0.3,0.2,0.4,0.4,0.6
			c0.1,0.1,0.3,0.3,0.4,0.6l-0.1,0c0.5,0.6,0.7,1.4,0.7,2.3c0,0.9-0.1,1.8-0.2,2.6c-0.4,3.3-0.7,6.5-1,9.5c-0.3,3.1-0.6,6.2-0.9,9.3
			c0,0.9,0,1.8,0.1,2.6s0.1,1.8,0,2.8c-0.2,1.3-0.3,2.6-0.4,3.8c-0.1,1.2-0.2,2.6-0.3,4l-1.6,21c-0.2,2.9-0.4,5.7-0.5,8.4
			c-0.1,2.7-0.3,5.5-0.5,8.2c0.1,0.3,0.1,0.5-0.1,0.7s-0.2,0.4-0.2,0.7l0.1,0c-0.4,0.9-0.9,1.4-1.7,1.4c-0.8,0-1.5,0-2.2,0.1
			c-0.3-0.1-0.4-0.3-0.5-0.6c-0.1-0.3-0.2-0.5-0.4-0.8c-0.2-1-0.2-2.1-0.1-3.3c0.1-1.2-0.1-2.3-0.6-3.3c-0.1,0-0.2-0.1-0.3-0.2
			c-0.1-0.1-0.2,0-0.3,0.2c-0.6,1.2-0.8,2.7-0.7,4.5l0.1-0.2l-0.1,0.2c0.1,0.3,0.1,0.4,0,0.6c-0.1,0.1-0.2,0.3-0.1,0.6
			c0,1-0.3,1.8-0.9,2.2c-0.7,0.4-1.5,0.6-2.4,0.5c-0.9-0.1-1.7-0.1-2.4,0.1c-0.8,0.1-1.3-0.5-1.8-1.6c-0.2-0.8-0.4-1.5-0.4-2.3
			c-0.1-0.8-0.1-1.6,0-2.3c-0.1-6.1-0.2-12.1-0.2-18.1s-0.1-12-0.1-18.3c0.1-0.4,0.1-0.9,0-1.4c0-0.5,0-1,0-1.6c0-0.7,0.1-1.3,0-2.1
			c0-0.7,0-1.4,0.2-2.1c-0.2-0.2-0.2-0.5-0.2-0.7c0.1-0.2,0-0.4-0.2-0.5c0.2-0.1,0.2-0.5,0.2-1.2c0.1-3.4,0.2-6.8,0.3-10.3
			c0.1-3.5,0.1-6.9,0.2-10.5c0.2-0.1,0.2-0.3,0.1-0.5c-0.1-0.2-0.1-0.4,0.1-0.7c0-1,0.1-2.2,0.1-3.3c0.1-1.2,0-2.3-0.4-3.3
			c-0.2-0.1-0.3-0.3-0.4-0.5c-0.1-0.2-0.3-0.3-0.5-0.5c-1.3,0-2.5,0.1-3.7,0.4c-1.2,0.3-2.4,0.3-3.6,0.2c-0.1-0.3-0.2-0.3-0.2-0.2
			c0,0.1-0.1,0.1-0.2,0c-0.1-0.3-0.2-0.4-0.4-0.6c-0.1-0.1-0.3-0.3-0.4-0.6c-0.1-0.8-0.3-1.5-0.8-2.1c-0.5-0.6-0.8-1.4-0.9-2.3
			c0.1-0.5,0.2-1.1,0.1-1.8c-0.1-0.8,0.1-1.3,0.5-1.6c0.8-0.4,1.7-0.7,2.5-0.7c0.9,0,1.6-0.3,2.3-1c0.1-0.1,0.1-0.3,0.1-0.6
			c0-0.3,0-0.5,0-0.6c-0.4-0.5-0.8-0.7-1.2-0.7c-0.4,0-0.8-0.1-1.2-0.3l-0.1,0.2c-0.1-0.3-0.2-0.4-0.4-0.4l0,0.2
			c-0.1,0-0.2-0.1-0.2-0.3s-0.1-0.2-0.2,0.1c0-0.3,0-0.3-0.1-0.2c0,0.1-0.1,0.1-0.2,0c-1.1-0.8-1.6-2.1-1.7-3.8
			c0.1-1.4,0.1-3,0.1-4.6c0-1.6,0.2-3.1,0.8-4.5c0.1-0.1,0.2-0.2,0.2-0.2c0.1,0,0.2-0.1,0.2-0.2c1.6-0.5,3.1-0.8,4.5-0.8
			c1.4,0,3-0.2,4.7-0.4l3.3-0.2c1.2-0.1,2.3-0.3,3.4-0.6c0.4,0.2,0.9,0.3,1.3,0.1C352.7,16.2,353.2,16.2,353.6,16.3L353.6,16.3z
			 M363.1,41.2l-0.3-0.6c-0.6-0.2-0.9,0.1-1,0.8c-0.1,0.8-0.2,1.4-0.4,1.8c0,0.7-0.1,1.3-0.2,2.1s0.1,1.3,0.4,1.8
			c0.2,0.2,0.3,0.3,0.4,0.1c0.1-0.2,0.2-0.4,0.3-0.5C363.2,44.9,363.5,43,363.1,41.2L363.1,41.2z M429.6,3.6c-0.1-0.1-0.3,0-0.6,0.1
			c-0.2,0.2-0.4,0.2-0.6,0c-0.9,0.2-1.9,0.4-2.9,0.5c-1,0.2-2,0.3-2.9,0.4c-1.3,0.2-2.5,0.4-3.8,0.6c-1.3,0.2-2.5,0.4-3.8,0.8
			c-0.1,0.3-0.3,0.4-0.5,0.4c-0.3-0.1-0.4,0.1-0.5,0.7c-0.1-0.1-0.2,0-0.2,0.3c0,0.3-0.1,0.5-0.2,0.6c0,1.1,0,2.2,0,3.3
			s0,2.2,0.2,3.4c0.3,0.7,0.5,1.5,0.6,2.5c0.1,0.9,0.2,1.8,0.2,2.6c0.1,0.8,0.3,1.4,0.8,1.8s0.8,0.7,1.3,0.9
			c0.1,0.1,0.1,0.3,0.2,0.7c-0.2,0.2-0.3,0.4-0.4,0.7s-0.2,0.3-0.5,0.4c-0.3,0.4-0.6,0.7-0.8,0.9s-0.5,0.6-0.7,1.4
			c0.1,0.5,0,1.1-0.1,1.8s0,1.2,0.3,1.7c0.3,0.6,0.6,1,1,1.1s0.8,0.2,1.2,0c0.2,0.2,0.3,0.2,0.4,0.2c0.1-0.1,0.2-0.1,0.4-0.3
			c0.1,0.2,0.2,0.2,0.2,0.1c0.1-0.1,0.1-0.1,0.2,0.1c0.2-0.1,0.5-0.2,0.9-0.1l0.1-0.2c0.2,0.1,0.4,0.1,0.5-0.1s0.2-0.1,0.2,0.1
			l0-0.2c0.2-0.1,0.3-0.2,0.5-0.1c0.1,0,0.3,0,0.6,0c0.3,0,0.6,0.3,0.8,1.1c0.1,0.6,0,1.1-0.3,1.4c-0.5,0.3-0.9,0.4-1.3,0.5
			s-0.8,0.3-1.2,0.7c-0.6,0.8-1.1,2-1.4,3.7c0,2.1,0,4.3,0,6.4c0,2.1,0,4.2,0,6.3c0.1,0.1,0.1,0.2,0,0.2c-0.1,0.1-0.1,0.1,0.1,0.2
			c0,0.8,0,1.7,0,2.6s0.1,1.8,0,2.6c-0.2,1.5-0.1,2.8,0.3,4.1s0.7,2.6,0.6,4.1c0,3.9,0.1,7.8,0.1,11.9c0.1,4,0.2,8.2,0.3,12.5
			c0.1,0.9,0.1,1.9,0.1,3c0,1.1,0,2.1,0.1,3.1c0,2.7,0,5.5,0.2,8.6c0,1,0.1,2.1,0.1,3.3c0,1.2,0.3,2.1,0.9,2.9
			c0.6,0.6,1.3,0.9,1.8,0.7c0.6,0.2,1.2,0.5,1.9,0.6c0.6,0.2,1.3,0.1,1.9-0.3l0-0.3c0.4-0.2,0.7-0.7,0.7-1.3s0.1-1.2,0.2-1.9
			s0.1-1.1,0.1-1.5c0-0.4,0.1-0.9,0.2-1.4c0.3-0.4,0.6-0.4,0.9,0.2c0.2,0.6,0.3,1.3,0.4,2.3c0.1,0.9,0.2,1.6,0.4,2.1
			s0.4,0.7,0.7,0.7c0.3,0,0.5,0,0.7,0.1c0.3-0.1,0.6-0.2,0.9-0.1c0.3,0.1,0.5-0.1,0.7-0.5c0-0.2,0.1-0.3,0.3-0.2
			c0.2,0.1,0.2,0,0-0.3l0.1-0.2l-0.1-0.1l0.2,0c0.1-0.6,0.1-1.3,0-1.9c0-0.7,0-1.3,0-1.9c0-0.7,0-1.4,0-2.1c0-0.7,0-1.4-0.1-2
			c0.2-0.6,0.4-1.3,0.5-2s0.3-1.4,0.3-2.1c0.1-3.8,0.1-7.5,0.2-11.3c0.1-3.7,0.2-7.5,0.4-11.3c0.1-0.5,0.1-1.1,0-1.7
			c-0.1-0.7,0-1.3,0.3-1.7c0.4-0.2,0.7-0.2,0.9,0.1c1.9,4,3.7,8,5.5,11.9c1.7,4,3.4,8,5.1,12.1c0.4,0.8,0.7,1.6,1,2.3
			c0.3,0.8,0.7,1.5,1.2,2c1.6,3.7,3,7.4,4.4,11l0.7,1c0.3,0.4,0.6,0.5,1,0.4s0.7-0.2,1-0.3c0.4-0.2,0.5-0.6,0.5-1.2
			c0-0.6,0.1-1,0.4-1.2c0.5-0.3,0.9-0.2,1.3,0.2c0.4,0.4,0.8,0.7,1.3,0.9c0.9-0.3,1.7-0.6,2.6-1c0.9-0.3,1.7-0.7,2.6-1
			c0.8-0.4,1.2-1.1,1.2-2.3c-0.4-2-0.9-4-1.5-5.9c-0.6-1.9-1.2-3.8-1.7-5.7c-0.8-2.9-1.7-5.8-2.7-8.8c-1-3-2-6-3-9
			c-0.5-1.4-0.9-2.7-1.3-4.1s-0.9-2.7-1.3-4.1c-0.2-0.8-0.5-1.6-0.8-2.3s-0.5-1.6-0.6-2.5c0.1-0.3,0.2-0.7,0.2-1.1s0.1-0.7,0.3-0.9
			c2.5-3.5,4.6-8,6.1-13.3c1.5-5.3,2.1-10.9,1.8-16.7c-0.2-3.3-0.7-6.5-1.4-9.3s-1.8-5.6-3.1-8.2c-0.2-0.1-0.3-0.2-0.4-0.5
			c-0.1-0.2-0.2-0.4-0.4-0.5c-1.9-3.6-4.2-6-6.9-7.2c-2.7-1.3-5.3-2-8.1-2.2l0-0.3c-0.2,0.2-0.4,0.2-0.6,0c-0.3-0.2-0.5-0.2-0.7,0
			c-0.6,0-1.2,0-1.9,0.1c-0.6,0.1-1.3,0.1-1.9,0.1c-0.5,0.2-1,0.2-1.6,0.2c-0.6,0-1.1,0.1-1.6,0.3C430.8,3.6,430.3,3.6,429.6,3.6
			L429.6,3.6z M440.5,29.6c0.3,0.2,0.7,0.3,1.1,0.4c0.4,0.1,0.7,0.4,1.1,0.7c0.2,0.3,0.5,0.5,0.8,0.7c0.3,0.2,0.5,0.5,0.7,0.8
			c1.1,1.6,1.7,3.4,1.9,5.5c0.2,2,0.1,4-0.3,5.9c-0.4,1.9-1,3.5-1.9,4.9c-0.9,1.4-1.8,2.7-2.7,4c-0.5,0.5-0.9,0.8-1.4,1.1
			c-0.5,0.3-1,0.5-1.6,0.8c-0.2-0.1-0.5-0.3-0.8-0.5c-0.4-0.3-0.5-0.7-0.4-1.3c0.1-1.9,0.2-3.6,0.3-5.2c0.1-1.6,0.2-3.3,0.3-5.2
			c0-1.4,0.1-2.9,0.3-4.3s0.3-2.8,0.4-4.2c-0.1-0.5,0-1,0-1.5c0.1-0.5,0.1-1,0-1.5c0.2-0.7,0.7-1.1,1.2-1.2
			C439.7,29.6,440.1,29.6,440.5,29.6L440.5,29.6z M435.6,31.4c0,0.2,0.1,0.4,0.1,0.5s0,0.3-0.2,0.6c0.2,0.3,0.2,0.6,0.1,1.1
			c-0.1,0.4-0.2,0.8-0.2,1.2c0.1,0.3,0.1,0.5-0.1,0.6c-0.1,0.1-0.1,0.3,0,0.5L435,37c-0.1-0.2-0.1-0.2-0.1-0.1
			c0,0.2-0.1,0.2-0.1,0.1c-0.3-0.2-0.4-0.4-0.5-0.7c0-0.9,0-1.9-0.2-2.8c-0.1-1,0.1-1.7,0.6-2.3l0,0.2l0.1,0c0-0.2,0-0.3,0.1-0.2
			c0.1,0.1,0.2,0,0.3-0.2c0,0.2,0.1,0.2,0.1,0.1C435.3,30.9,435.5,31,435.6,31.4L435.6,31.4z M523.1,5.4c-0.4-0.5-0.8-0.9-1.2-1.1
			c-0.4,0.3-0.8,0.3-1.2,0.2s-0.8-0.1-1.2,0.2l-0.7,0.9c-0.4,0.4-0.8,0.4-1.1,0c-0.3-0.4-0.7-0.6-1.1-0.6c-0.1,0-0.1-0.1-0.2-0.2
			s-0.1-0.1-0.2,0c-0.6-0.2-1.1-0.2-1.4,0c-0.4,0.2-0.9,0.2-1.6,0c-0.5,0.4-0.9,0.9-1.2,1.4c-0.3,0.6-0.8,0.7-1.4,0.5
			c-0.3-0.1-0.5-0.3-0.6-0.5c-0.1-0.2-0.3-0.3-0.6-0.1l-1.1-0.1c-0.2,0.2-0.3,0.4-0.4,0.5c-0.1,0.1-0.2,0.2-0.4,0.5
			c-1.4,3.4-2.8,6.9-4.1,10.5s-2.6,7.1-3.8,10.8c-2,5.4-3.9,10.8-5.7,16.3c-1.8,5.5-3.6,11-5.3,16.5c-1.5,4.5-2.9,9.1-4.1,13.7
			c-1.2,4.6-2.5,9.2-4,13.9c-0.5,2.1-1,4.1-1.6,6.1c-0.6,2-1.1,4-1.5,5.9c-0.3,0.6-0.4,1.2-0.5,1.7c-0.1,0.5-0.2,1.2-0.3,1.9
			c0,0.5,0.1,0.9,0.4,1.1c0.2,0.3,0.4,0.6,0.6,1c0.6,0.6,1.2,0.7,1.9,0.3c0.6-0.4,1.2-0.8,1.7-1.3c0.5-0.3,0.9-0.2,1.3,0.3
			c0.4,0.5,0.7,0.7,1.2,0.8c0.2,0,0.5,0,0.9,0c0.3,0,0.6-0.1,0.7-0.5c0.2-0.4,0.5-0.5,0.9-0.3s0.6,0.3,0.9,0.4c0.4,0,0.8,0,1,0.1
			s0.5,0,0.7-0.2c0.1,0.2,0,0.2,0,0.4l0.4,0c-0.2-0.2-0.3-0.3-0.3-0.3c0.2-0.1,0.2-0.1,0.2,0c0.4-0.2,0.6-0.5,0.8-0.8
			s0.5-0.6,0.7-0.9c0.6-1.7,1.1-3.4,1.6-5.1c0.5-1.7,1-3.4,1.5-5.1c0.1-0.6,0.3-1,0.6-1.1c0.3-0.1,0.5-0.4,0.8-0.8
			c1.4-0.3,2.8-0.5,4.3-0.5c1.5,0,2.9-0.1,4.3-0.3c0.2-0.3,0.5-0.4,0.8-0.6c0.3-0.1,0.6-0.4,0.8-0.8c0.9-0.5,1.8-0.8,2.7-0.7
			c0.9,0.1,1.8,0,2.8-0.1c0.3,0.2,0.6,0.4,1,0.5c0.4,0.1,0.6,0.4,0.7,1c0.2,1.7,0.3,3.5,0.4,5.6s0.3,4.1,0.6,6.3
			c0.1,0.2,0.2,0.5,0.4,0.9c0.1,0.4,0.3,0.7,0.4,1.1c0.3,0.5,0.6,0.7,0.9,0.7c0.4,0,0.8,0.1,1,0.3c0.2-0.2,0.3-0.3,0.4-0.2
			c0.1,0.1,0.2,0,0.4-0.2c-0.1,0.3-0.1,0.4,0,0.4l0.1-0.4l0.5,0c0.7-0.8,1.5-1,2.3-0.8c0.8,0.2,1.7,0.3,2.5,0.2l0.4,0
			c0.6,0.2,0.9-0.1,1.2-0.6c0.3-0.5,0.5-1,0.7-1.5c0.3-0.5,0.6-0.5,0.9,0c0,0.6,0.3,1.1,0.8,1.6c0.4,0.5,0.8,0.6,1.3,0.3
			c0.2-0.1,0.4-0.3,0.5-0.6s0.2-0.5,0.3-0.7c-0.1-0.4-0.1-0.7,0.1-1s0.2-0.6,0-1c-0.2-0.1-0.2-0.3,0-0.4c0.2-0.2,0.1-0.3,0-0.4
			c0.1-0.6,0.1-1.3,0-2s0-1.4,0-2c-0.1-6-0.3-11.7-0.5-17.2c-0.2-5.5-0.4-11.3-0.6-17.4c0.1-0.2,0.1-0.5,0-0.6
			c-0.1-0.2-0.1-0.4,0-0.6c-0.1-1.4-0.1-2.8-0.1-4s-0.1-2.6-0.3-4l0.1-0.4c-0.3-2.1-0.4-4.3-0.5-6.4c0-2.2-0.2-4.4-0.5-6.8
			c-0.3-5.1-0.6-10.3-1.1-15.4c-0.5-5.1-0.9-10.3-1.4-15.6C523.8,6.6,523.5,6,523.1,5.4z M509.4,51.5c0.1,0.2,0.1,0.4,0,0.6
			c0.2,0.2,0.2,0.4,0,0.5c0.1,0.5,0.2,0.9,0.3,1.2c0.1,0.4,0.1,0.8,0.2,1.4l0,0.4l0.1,0.7c0.2,0.6,0.3,1,0.2,1.3s0,0.8,0.3,1.5
			l-0.1,0.5c0.1-0.1,0.1-0.1,0.1,0c0,0.1,0,0.2,0,0.2l-0.1,0.2l0.1,0.2c0,0.1,0.1,0.4,0.1,0.7c0.1,0.4,0.1,0.6,0.1,0.9
			c0,0.5,0,1.1,0.2,1.8c0.1,0.7,0.3,1.4,0.4,2.1c0.1,0.7,0.1,1.4-0.1,2c-0.2,0.6-0.5,1-1.1,1.2c-1,0.1-2.1,0.2-3.4,0.2
			c-1.3,0.1-2.4,0.1-3.4,0.2c-0.2-0.1-0.3-0.1-0.5-0.1c-0.2,0-0.3-0.1-0.3-0.3c-0.1-0.9,0-1.8,0.3-2.5c0.3-0.7,0.6-1.5,0.7-2.2
			c0.7-2.2,1.4-4.5,2.1-6.8c0.7-2.3,1.4-4.7,2.1-7c0.2-0.1,0.4-0.5,0.7-1c0.2,0,0.4,0.1,0.5,0.5c0.1,0.4,0.1,0.6,0.1,0.9
			C509.2,51.1,509.3,51.3,509.4,51.5z M511.6,73.3c0.1,0.8-0.1,1.2-0.4,1.4c-0.4,0.2-0.9,0.2-1.5,0.2c-0.6,0-1.1-0.2-1.6-0.5l0-0.4
			l-0.1,0c-0.2-0.2-0.3-0.4-0.2-0.4s0.1-0.1,0.1-0.2c0.1,0,0.1-0.1,0.2-0.3c0-0.2,0.1-0.2,0.2-0.1c0.4-0.2,0.8-0.4,1.1-0.6
			c0.3-0.2,0.7-0.2,1.2,0c0.2,0,0.4,0.1,0.6,0.2C511.4,72.9,511.6,73.1,511.6,73.3L511.6,73.3z M551.2,7.5c0.1-0.1,0.2,0,0.3,0.2
			s0.2,0.4,0.4,0.4c0.2,0.3,0.3,0.8,0.3,1.4c-0.1,0.6,0,1.1,0.1,1.4l-0.1-0.3c0,0.3,0,0.7,0,1.1c0,0.4,0,0.8,0.2,1
			c-0.1,0.2,0,0.6,0.4,1.1c0.3-0.2,0.6-0.6,0.8-1.1c0.2-0.5,0.3-1,0.4-1.6c0.2-0.8,0.3-1.5,0.6-2.2c0.2-0.7,0.7-1.1,1.3-1.2
			c0.4,0.2,0.8,0.2,1.2,0.1s0.8-0.1,1.3,0.2l-0.1-0.2c0.5,0.2,0.7,0.5,0.8,1.1l-0.1-0.2c0.2,0.6,0.3,1.3,0.2,2.1
			c-0.1,0.8-0.1,1.5-0.1,2.3c0.1,0.2,0.2,0.6,0.2,1.1c0.1,0,0.1-0.1,0.1-0.2l0-0.2c0,0.9,0.1,1.7,0.3,2.6c0.2,0.8,0.3,1.7,0.2,2.6
			c-0.3,1-0.4,2.1-0.5,3.2c0,1.1-0.1,2.3-0.2,3.5c-0.6,8-1.2,16.1-1.7,24.3s-0.8,16.2-0.9,24c0,0.4,0,0.9,0,1.6
			c-0.1,0.6,0.1,1.2,0.4,1.7c0.1,0,0.2,0.1,0.3,0.3c0.1,0.2,0.1,0.2,0.3,0c0.3,0.2,0.6,0.2,0.9,0.1c0.3-0.1,0.6-0.1,1,0.1
			c0.1-0.2,0.1-0.3,0.2-0.2c0.1,0.1,0.2,0.1,0.3,0.1c0.2-0.2,0.4-0.3,0.6-0.2c0.2,0.1,0.4,0.1,0.5,0.1c0.4,0,0.9-0.1,1.4-0.2
			c0.5-0.1,1-0.1,1.5-0.1c0.1-0.2,0.2-0.3,0.4-0.2c0.1,0.1,0.3,0.1,0.4,0.1c1.5,0,2.8-0.1,4.1-0.3s2.6-0.2,4.1-0.1
			c0.7,0.5,1,1.2,0.8,2.3s-0.2,1.9-0.2,2.5c0.1,0.9-0.1,1.6-0.5,2.3s-0.5,1.5-0.3,2.3c0.2,0.1,0.2,0.2,0.2,0.4s0,0.3,0.1,0.4
			c0.5,0.5,0.7,1.1,0.7,1.7c0,0.7,0,1.3,0,2c-0.2,1-0.3,2.1-0.2,3.4s-0.4,2-1.4,2.3c-0.4-0.2-0.7-0.2-0.9,0c-0.2,0.2-0.5,0.2-0.9,0
			c-1.8,0.1-3.7,0.1-5.5,0.2s-3.7,0.3-5.4,0.6c-0.6,0.1-1.1,0-1.7-0.3c-0.5-0.2-1-0.5-1.5-0.8c-0.4,0.1-0.8,0.5-1.1,0.9
			c-0.3,0.5-0.8,0.7-1.4,0.6c-0.8,0.1-1.7,0.1-2.6,0.1c-0.9,0-1.8,0.1-2.6,0.3c-0.5-0.2-0.9-0.4-1.4-0.5c-0.5-0.2-0.8-0.6-0.9-1.4
			c-0.1-0.2-0.1-0.4-0.2-0.6c0-0.3-0.2-0.5-0.4-0.6c-0.2-0.1-0.4,0.1-0.5,0.5c-0.1,0.4-0.2,0.7-0.4,0.9c-0.1,0.3-0.2,0.6-0.4,0.9
			s-0.2,0.6-0.4,0.9c-0.1,0-0.2,0.1-0.3,0.3s-0.1,0.3-0.3,0.3c-0.3,0-0.5,0-0.7-0.2c-0.2-0.1-0.4-0.3-0.6-0.5c-0.3-1-0.4-2-0.4-3.1
			s0-2.1,0-3.1c0-3.9,0.1-7.9,0.2-12.1c0.1-4.1,0.2-8.1,0.3-11.9c-0.1-0.4-0.2-0.9-0.2-1.3s-0.1-0.8-0.3-1.1l0.1-0.3
			c-0.2-1.2-0.4-2.4-0.4-3.5s0-2.3,0-3.4c0-2.8,0.1-5.6,0.1-8.2c0-2.7,0.1-5.4,0.2-8.2c0.1-3.2,0.2-6.3,0.3-9.4
			c0.1-3.1,0.2-6.2,0.4-9.4c0-0.5,0-1.1,0-1.8c0.1-0.7,0.1-1.3,0.1-2c0-1.5,0.1-3,0.1-4.3c0.1-1.4,0.2-2.8,0.5-4.2
			c0.3-0.3,0.5-0.7,0.8-1c0.3-0.3,0.6-0.5,1-0.7c0.6,0.1,1.2,0,1.8-0.2c0.6-0.2,1.2-0.6,1.7-1.2c0.3-0.2,0.7-0.4,1-0.3
			c0.3,0,0.7,0,1-0.2c0.2,0.2,0.3,0.3,0.5,0.2C551,7.2,551.1,7.3,551.2,7.5L551.2,7.5z M595.2,13.5c0.1,0.3,0.2,0.4,0.4,0.4
			c0.2,0.3,0.3,0.7,0.3,1.3c-0.1,0.6,0,1,0.1,1.3l-0.1-0.3c0,0.3,0,0.7,0,1.1c0,0.4,0,0.7,0.2,0.9c-0.1,0.2,0,0.6,0.4,1.1
			c0.3-0.2,0.6-0.6,0.8-1.1c0.2-0.5,0.3-1,0.4-1.5c0.2-0.7,0.3-1.5,0.6-2.2c0.2-0.7,0.7-1.1,1.3-1.1c0.4,0.2,0.8,0.2,1.2,0.1
			c0.4-0.1,0.8-0.1,1.3,0.2l-0.1-0.1c0.5,0.2,0.7,0.5,0.7,1l-0.1-0.1c0.2,0.6,0.3,1.3,0.2,2c-0.1,0.7-0.1,1.5-0.1,2.2
			c0.1,0.2,0.2,0.6,0.2,1.1c0.1,0,0.1-0.1,0.1-0.2c0,0.7,0.1,1.5,0.3,2.3s0.3,1.6,0.2,2.5c-0.3,1-0.4,2-0.5,3.1
			c-0.1,1.1-0.1,2.2-0.3,3.4c-0.7,7.6-1.2,15.4-1.8,23.2c-0.5,7.8-0.9,15.5-1,23c0,0.4,0,0.9,0,1.5c-0.1,0.6,0.1,1.1,0.4,1.6
			c0.1,0,0.2,0.1,0.3,0.3c0.1,0.2,0.1,0.2,0.3,0c0.3,0.2,0.6,0.2,0.9,0.1c0.3-0.1,0.6-0.1,1,0.1c0.1-0.2,0.1-0.3,0.2-0.2
			c0.1,0.1,0.2,0.1,0.3,0.1c0.2-0.2,0.4-0.3,0.6-0.2s0.4,0.1,0.5,0.1c0.4,0,0.9-0.1,1.4-0.2c0.5-0.1,1-0.1,1.5-0.1
			c0.1-0.2,0.3-0.3,0.4-0.2c0.1,0.1,0.2,0.1,0.4,0.1c1.5,0,2.8-0.1,4.1-0.3c1.3-0.2,2.6-0.2,4.1-0.1c0.7,0.5,1,1.2,0.8,2.2
			c-0.2,1-0.2,1.8-0.2,2.4c0.1,0.8-0.1,1.6-0.5,2.2c-0.4,0.7-0.5,1.4-0.4,2.2c0.2,0.1,0.2,0.2,0.2,0.4c0,0.2,0,0.3,0.1,0.4
			c0.5,0.5,0.7,1,0.7,1.7c0,0.6,0,1.2-0.1,1.9c-0.2,1-0.3,2-0.2,3.2c0.1,1.2-0.4,1.9-1.4,2.2c-0.4-0.2-0.7-0.2-0.9,0
			c-0.2,0.2-0.5,0.2-0.9,0c-1.8,0.1-3.7,0.1-5.5,0.3c-1.9,0.1-3.7,0.3-5.4,0.5c-0.6,0.1-1.1,0-1.7-0.2c-0.5-0.2-1-0.5-1.5-0.7
			c-0.4,0.1-0.8,0.4-1.1,0.9c-0.3,0.4-0.8,0.6-1.4,0.6c-0.8,0.1-1.7,0.1-2.6,0.2c-0.9,0-1.8,0.1-2.6,0.3c-0.5-0.2-0.9-0.3-1.4-0.5
			s-0.7-0.6-0.9-1.3c-0.1-0.2-0.1-0.4-0.2-0.6c0-0.3-0.2-0.5-0.4-0.6c-0.2-0.1-0.4,0.1-0.5,0.4s-0.2,0.7-0.4,0.9
			c-0.1,0.3-0.2,0.6-0.4,0.9c-0.1,0.3-0.2,0.6-0.4,0.9c-0.1,0-0.2,0.1-0.3,0.3c0,0.2-0.1,0.2-0.3,0.3c-0.3,0-0.5,0-0.7-0.2
			c-0.2-0.1-0.4-0.3-0.6-0.5c-0.3-0.9-0.4-1.9-0.4-2.9c0-1,0-2,0-3c0-3.7,0.1-7.6,0.2-11.5s0.2-7.7,0.3-11.4
			c-0.1-0.4-0.2-0.8-0.2-1.2c0-0.4-0.1-0.8-0.3-1.1l0.1-0.3c-0.2-1.1-0.4-2.2-0.4-3.4c0-1.1,0-2.2,0-3.3c0.1-2.7,0.1-5.3,0.1-7.9
			c0-2.5,0.1-5.2,0.2-7.9c0.1-3,0.2-6,0.3-9c0.1-3,0.2-6,0.4-9c0-0.5,0-1.1,0-1.7c0.1-0.6,0.1-1.3,0.1-1.9c0-1.5,0.1-2.8,0.1-4.1
			s0.2-2.6,0.5-4c0.3-0.3,0.5-0.6,0.9-0.9c0.3-0.3,0.6-0.5,1-0.6c0.6,0.1,1.2,0,1.8-0.2c0.6-0.2,1.2-0.6,1.7-1.2
			c0.3-0.2,0.7-0.3,1-0.3s0.7,0,1-0.2c0.2,0.2,0.3,0.3,0.5,0.2c0.1-0.1,0.3,0,0.3,0.2C595.1,13.2,595.2,13.3,595.2,13.5z
			 M660.8,18.8c0.2-0.1,0.3,0,0.4,0.2c0.4,0.1,0.8,0.1,1.1,0s0.8-0.1,1.2,0.1c0.5,0.2,0.9,0.2,1.4,0c0.5-0.2,0.9,0,1.2,0.5l0.2,0
			c0.3,1.2,0.2,2.1-0.3,2.9c-0.3,0.6-0.6,1.2-0.9,1.8c-0.3,0.6-0.6,1.3-0.9,2c-0.6,1.5-1.3,2.9-2,4.4c-0.7,1.4-1.4,2.9-2,4.5
			l-4.7,11.4l-4.7,12.5c-0.8,2.1-1.5,4.1-2.3,6c-0.7,2-1.5,4-2.3,6.2c-0.1,0.5-0.2,1-0.3,1.5s-0.2,1.1-0.3,1.5
			c-1.6,3.7-3,7.6-4.3,11.7c-1.4,4.1-2.7,8.2-4.1,12.3l-0.4,1c-0.1,0-0.1,0.1-0.1,0.1s-0.1,0.2-0.2,0.3c-0.3,0.5-0.6,0.7-1,0.7
			c-0.4,0-0.7,0-1-0.1l-0.7-0.6c0-0.2,0-0.4-0.1-0.6c-0.1-0.2-0.1-0.4-0.1-0.7l-0.2,0c0.1-0.1,0-0.2-0.1-0.4c-0.4-0.1-0.6,0-0.8,0.3
			c-0.2,0.3-0.4,0.6-0.7,0.9c0.1,0.1-0.1,0.4-0.1,0.4c-0.1-0.1-0.2-0.1-0.2,0c-0.1,0-0.2,0.1-0.4,0.2c-0.1,0.1-0.3,0.2-0.5,0.2
			l-0.2,0c-0.2-0.1-0.5-0.1-0.8,0c-0.3,0.1-0.7,0.2-1,0.2c-0.3,0-0.6-0.1-0.8-0.4c-0.3-0.2-0.4-0.7-0.5-1.4c0-1.1,0.1-2.1,0.5-2.9
			c3.3-12.2,6.9-24,10.8-35.4c0.1-0.2,0.2-0.5,0.2-0.8c0-0.3,0-0.7,0-1c-0.7-0.7-1.1-1.6-1.4-2.8c-0.3-1.2-0.5-2.4-0.9-3.4
			c-1.1-5-2.2-9.9-3.3-14.9s-2-10-2.9-15c-0.1-0.3-0.2-0.6-0.1-0.8c0.1-0.2,0.1-0.5,0.2-0.7c0.1-0.3,0.2-0.5,0.3-0.5
			s0.4-0.1,0.5-0.2c0.6-0.2,1.2-0.2,1.7,0.1c0.2,0.2,0.3,0.5,0.5,0.9c0.2,0.4,0.3,0.7,0.4,0.9c0,0.9,0.2,1.5,0.6,1.9
			c0.2,0,0.3-0.1,0.4-0.2c0.2-0.5,0.3-1,0.1-1.5c-0.1-0.5-0.2-1-0.2-1.5c0.1,0,0.2-0.1,0.2-0.4c0-0.2,0.1-0.5,0.2-0.7
			c0.4-0.6,0.9-0.8,1.4-0.7s1,0.1,1.5-0.1l2,0c0.1,0.3,0.2,0.4,0.3,0.4c0.1-0.1,0.3,0,0.4,0.2c0.4,0.3,0.8,0.4,1.2,0.3
			c0.4-0.1,0.7,0,1,0.3c0.1-0.1,0.1-0.1,0.3,0c-0.1,0.3,0,0.6,0.2,0.9c0.3,0.3,0.4,0.6,0.3,1c0.1,0.2,0.1,0.4,0.1,0.7
			c0,0.3,0,0.5,0.1,0.7c0.3,2.4,0.6,4.8,0.9,7c0.3,2.2,0.6,4.5,1,6.7c0.2,0.3,0.4,0.4,0.5,0.4c0.1,0,0.2-0.1,0.3-0.2
			c1.1-2.6,2.1-5.1,3.1-7.7c1-2.6,2-5.2,3.1-7.7c0.3-0.8,0.7-1.5,1.2-2.2s1-1.1,1.6-1.3c0.8,0.2,1.5,0.2,2.3,0.1s1.5-0.1,2.3,0.1
			C660.5,18.8,660.6,18.9,660.8,18.8z M683,24.3c0.1,0.4,0.2,0.8,0.2,1.1c0,0.4,0,0.7,0.2,1.1c0,0.2,0,0.3,0,0.5
			c0,0.2,0.1,0.4,0.4,0.5c0.2,0.1,0.4,0.1,0.7-0.2c0.4-0.6,0.5-1.3,0.5-2c0-0.7,0.2-1.3,0.8-1.7c0.2-0.4,0.5-0.5,0.8-0.4
			c0.4,0.1,0.7,0,1-0.3c0.3,0.1,0.7,0,1,0c0.4,0,0.7,0,1-0.1l0.2,0.1c0.1-0.1,0.3-0.1,0.4-0.1s0.3,0.1,0.4,0.1
			c0.5,0.2,0.9,0.6,1.2,1.2c0.2,0.7,0.3,1.3,0.2,1.7c-0.1,0.4-0.2,1-0.2,1.6c-1,9.2-1.7,18.5-2.3,27.8c-0.5,9.4-0.9,18.5-1.1,27.5
			c-0.2,0.2-0.4,0.4-0.6,0.6c-0.2,0.2-0.4,0.4-0.7,0.5c-0.7,0.2-1.3,0.3-2,0.3s-1.3,0.1-1.9,0.3c-0.9,0.1-1.7,0.3-2.6,0.5
			s-1.8,0.2-2.7-0.1c-0.2-0.2-0.3-0.5-0.5-0.8c-0.2-0.3-0.3-0.6-0.5-1c-0.2-0.3-0.5-0.5-0.8-0.5c-0.3-0.1-0.7-0.2-1-0.3
			c-0.3-0.1-0.6-0.3-0.9-0.5c-0.2-0.2-0.4-0.6-0.5-1.1c0-2-0.1-4-0.1-6s-0.1-4-0.1-6c0-3.2,0.1-6.3,0-9.3c0-3,0-6.1,0-9.2
			c0.1-2.9,0.1-5.9,0.1-9s0.1-6.2,0.4-9.2c0-0.9,0-1.8,0.1-2.6c0-0.9,0.1-1.8,0-2.7c0-0.3,0.1-0.7,0.1-1c0.1-0.4,0.3-0.7,0.5-0.9
			c0.2-0.4,0.5-0.6,0.9-0.5c0.4,0.1,0.8,0,1.1-0.1c0.7-0.2,1.4-0.3,2.1-0.3c0.7,0,1.3-0.1,2-0.4C681.7,23.1,682.5,23.5,683,24.3z
			 M681.2,87.9c0-0.2,0.1-0.2,0.2-0.1s0.2,0.1,0.3-0.1c0.4-0.1,0.9-0.1,1.5-0.1c0.6,0.1,1.2,0.4,1.6,0.9c0.5,0.4,1.1,0.6,1.8,0.5
			c0.8-0.1,1.4,0.1,1.8,0.6c0,0.4,0,0.8,0.2,1.3c0.1,0.5,0.1,0.9,0,1.2c0.1,0.2,0.1,0.3,0.1,0.4c0,0.1,0,0.2,0.1,0.2
			c-0.1,0.1-0.2,0.3-0.1,0.5c0,0.2,0,0.3-0.1,0.5c0,1.4-0.1,2.8-0.1,4.3c-0.1,1.5-0.1,2.9,0,4.2l0.1,0c-0.1,0-0.2,0.1-0.1,0.4
			s0.1,0.4,0,0.5l0.1-0.1c-0.1,1.2-0.3,2.2-0.8,3c-0.1,0.2-0.2,0.3-0.3,0.3c-0.1,0-0.1,0.2-0.2,0.3c-0.3,0.1-0.6,0.3-0.9,0.4
			c-0.3,0.2-0.6,0.2-0.9,0.1l-0.1,0.1c-0.9,0-1.8,0.1-2.7,0.3c-0.9,0.1-1.8,0.2-2.7,0c-0.5-0.2-0.9-0.5-1.2-0.9
			c0.1-0.1,0.1-0.1,0-0.1c-0.1,0-0.1-0.1-0.1-0.2l-0.1,0c0.1-0.7-0.2-1.2-0.8-1.6c-0.1-0.1-0.3,0-0.5,0.1c-0.2,0.1-0.3,0.3-0.5,0.4
			c-0.1,0.4-0.2,0.8-0.4,1c0,0.2,0,0.5-0.2,0.7s-0.3,0.4-0.4,0.6s-0.3,0.3-0.5,0.2c-0.2,0-0.5,0-0.7-0.1c-0.6-0.3-0.9-0.9-0.8-1.7
			c0-0.8,0-1.5-0.1-2.2c-0.2-1.9-0.2-3.9-0.2-5.9s0-4-0.1-5.9c0.1-0.2,0.1-0.4,0.1-0.7c-0.1-0.3,0-0.6,0.2-0.7
			c0.2-0.8,0.7-1.4,1.3-1.6s1.2-0.4,1.8-0.5c0.7,0,1.5-0.1,2.2-0.2s1.4-0.2,2.1-0.3L681.2,87.9z"/>
		<path id="React-Rally_x21__1_" class="st3" d="M36.7,9.8c-0.5,0.3-0.8,0.3-1.1,0c-1.8,0.3-3.7,0.6-5.6,0.9
			c-1.9,0.3-3.7,0.5-5.4,0.6c-2.4,0.4-4.8,0.7-7.2,1s-4.8,0.7-7.2,1.3c-0.2,0.6-0.5,0.8-1,0.6c-0.5-0.1-0.8,0.3-1,1.2
			c-0.3-0.2-0.4,0-0.4,0.6c0,0.5-0.1,0.9-0.4,1.1c-0.1,2-0.1,4-0.2,5.9s0,4,0.2,6.1C7.7,30.4,8,32,8.2,33.8c0.1,1.6,0.2,3.2,0.2,4.6
			c0.1,1.4,0.6,2.5,1.4,3.3s1.6,1.3,2.3,1.6c0.1,0.2,0.2,0.6,0.3,1.3c-0.3,0.4-0.6,0.8-0.7,1.2c-0.2,0.4-0.5,0.6-1,0.6
			c-0.5,0.8-1.1,1.3-1.6,1.6s-1,1.1-1.3,2.4c0.1,0.9,0,2-0.2,3.2c-0.2,1.2,0,2.2,0.5,3.1c0.5,1.1,1.1,1.7,1.8,2
			c0.8,0.3,1.5,0.3,2.2,0.1c0.4,0.3,0.6,0.4,0.8,0.3c0.1-0.1,0.3-0.3,0.7-0.5c0.2,0.4,0.3,0.4,0.4,0.2c0.1-0.2,0.2-0.1,0.4,0.2
			c0.5-0.2,1-0.3,1.6-0.1c0.5-0.1,0.8-0.2,1.1-0.4c0.2-0.2,0.4-0.1,0.4,0.2c0.3-0.5,0.6-0.6,0.9-0.5s0.6,0.1,1.1,0
			c0.6-0.1,1.1,0.6,1.5,2.1c0.1,1.1-0.1,1.9-0.7,2.5c-0.9,0.4-1.8,0.7-2.5,0.9c-0.7,0.2-1.5,0.5-2.3,1.2c-1.2,1.4-2.1,3.6-2.7,6.5
			c0,3.8-0.1,7.6-0.2,11.5s-0.2,7.6-0.2,11.2c-0.2,0.5-0.2,0.7,0.1,0.8c-0.1,1.5-0.1,3-0.1,4.6s0.1,3.2-0.1,4.6
			c-0.5,2.6-0.4,5,0.5,7.3c0.8,2.3,1.1,4.7,1,7.3c-0.1,6.9-0.2,14-0.3,21.2s0,14.6,0,22.2c0.1,1.6,0.2,3.4,0.1,5.3s0,3.8,0.1,5.6
			c-0.2,4.7-0.2,9.8,0.1,15.3c0,1.8,0.1,3.8,0.1,5.9c0,2.1,0.5,3.8,1.6,5.2c1.2,1.2,2.3,1.6,3.4,1.3c1.1,0.4,2.3,0.8,3.5,1.2
			c1.2,0.4,2.4,0.2,3.5-0.4c0.8-1,1.3-1.7,1.4-2.9c0.1-1.1,0.3-2.2,0.4-3.3c0.1-1.1,0.3-2,0.3-2.8c0.1-0.7,0.2-1.6,0.5-2.5
			c0.5-0.8,1.1-0.6,1.7,0.4c0.3,1.1,0.6,2.4,0.7,4c0.1,1.6,0.4,2.9,0.7,3.8c0.3,0.9,0.7,1.3,1.2,1.3c0.5,0,0.9,0,1.3,0.2
			c0.6-0.2,1.1-0.3,1.6-0.1s1-0.2,1.4-0.9c0.1-0.4,0.3-0.5,0.6-0.3c0.3,0.2,0.2-0.8,0.2-0.8c0.3-1.4,0.4-2.5,0.3-3.7
			c0-1.2,0-2.3,0.2-3.4c0-1.3,0.1-2.6,0.1-3.8s0.1-2.5,0-3.5c0.4-1.1,0.7-2.3,1.1-3.5c0.3-1.2,0.5-2.5,0.7-3.7
			c0.3-6.8,0.5-13.5,0.8-20.1c0.3-6.7,0.7-13.4,1.2-20.2c0.2-0.9,0.2-1.9,0.1-3c-0.1-1.3,0.1-2.3,0.6-3.1c0.7-0.4,1.2-0.4,1.7,0.1
			c3.4,7.2,6.7,14.3,9.8,21.4s6.2,14.3,9.1,21.7c0.7,1.4,1.3,2.8,1.8,4.2c0.5,1.4,1.2,2.6,2.1,3.6c2.8,6.7,5.4,13.3,7.8,19.8
			l1.3,1.8c0.5,0.7,1.2,0.9,1.9,0.7c0.7-0.2,1.4-0.4,2-0.4c0.7-0.4,1-1.1,1-2.1c0-1,0.2-1.7,0.8-2.1c0.9-0.4,1.8-0.3,2.5,0.5
			c0.7,0.8,1.5,1.3,2.4,1.6c1.7-0.5,3.3-1.1,5-1.7c1.7-0.6,3.3-1.2,5-1.7c1.5-0.7,2.3-2,2.4-4c-0.7-3.6-1.6-7.1-2.7-10.5
			c-1.1-3.5-2.1-6.9-3-10.2c-1.4-5.2-3-10.4-4.8-15.8c-1.8-5.4-3.5-10.7-5.3-16c-0.8-2.5-1.6-4.9-2.4-7.3s-1.6-4.8-2.4-7.3
			c-0.4-1.4-0.8-2.8-1.4-4.1s-0.9-2.8-1-4.4c0.2-0.6,0.3-1.2,0.4-1.9c0.1-0.7,0.3-1.3,0.6-1.7c4.9-6.3,9-14.1,12-23.6
			c3.1-9.5,4.5-19.4,4.2-29.7c-0.3-6-1-11.6-2.3-16.7s-3.1-10.1-5.6-14.8c-0.4-0.1-0.6-0.4-0.7-0.9s-0.3-0.7-0.7-0.9
			C81.2,20.4,76.9,16,72,13.7c-5-2.3-10-3.7-15.2-4.1C56.4,9.4,56,9.4,55.5,9c-0.5-0.4-0.9-0.4-1.4,0c-1.1-0.1-2.3-0.1-3.7,0
			c-1.2,0.1-2.4,0.1-3.7,0c-1,0.3-2,0.4-3.1,0.3c-1.1-0.1-2.1,0.1-3.1,0.5c-0.6-0.3-1.6-0.4-3-0.3C37.5,9.5,37.1,9.5,36.7,9.8z
			 M53.3,42.3c0.9,0.1,1.8,0.4,2.8,0.9c0.6,0.4,1.3,0.7,2.1,0.9c0.8,0.2,1.4,0.6,1.9,1.3c2.9,2.5,4.7,5.6,5.4,9.2
			c0.7,3.6,0.8,7.2,0.1,10.7s-1.9,6.7-3.8,9.6c-1.9,2.9-3.9,5.6-6.1,8.2c-1.1,1-2.2,1.8-3.4,2.5c-1.2,0.6-2.4,1.3-3.7,2
			c-0.5-0.1-1.2-0.3-2.1-0.6c-0.9-0.4-1.3-1.1-1.3-2.2c0-3.4,0-6.5-0.1-9.4c-0.1-2.9-0.1-6-0.1-9.4c-0.1-2.6-0.1-5.2,0-7.9
			c0.1-2.7,0.2-5.2,0.3-7.7c-0.2-0.9-0.2-1.8-0.1-2.7c0.1-0.9,0.1-1.8-0.1-2.7c0.5-1.4,1.4-2.3,2.8-2.6c0.7,0,1.5-0.1,2.6-0.3
			C51.5,42.1,52.4,42.2,53.3,42.3z M40.8,45.6c0.2,0.2,0,0.6-0.5,1.1c0.6,0.3,0.8,0.9,0.6,1.7c-0.2,0.8-0.4,1.6-0.6,2.3
			c0.4,0.4,0.3,0.8-0.1,1.1c-0.5,0.3-0.4,0.6,0.1,0.8l-0.9,2.2c-0.3-0.3-0.5-0.2-0.5,0c0,0.3-0.2,0.4-0.4,0.3
			c-0.9,0-1.5-0.3-1.6-0.8c-0.1-1.6-0.5-3.1-1.1-4.6s-0.2-2.9,1.4-4.4l0.1,0.2l0.3-0.1c-0.1-0.3,0-0.4,0.2-0.3
			c0.3,0.1,0.5-0.1,0.8-0.6c0.1,0.3,0.3,0.3,0.5,0s0.6-0.3,1.3,0.2C40.4,45.1,40.6,45.4,40.8,45.6z M176.6,19.6
			c1.6,0.1,2.7,1,3.4,2.6c0.2,0.3,0.2,0.6,0.2,0.9s0,0.5,0.2,0.9l-0.2-0.2l-0.1,0.5l0.4,7.5c0.3,1,0.2,1.9,0,2.6
			c-0.3,0.8-0.5,1.6-0.6,2.5c-0.9,2.3-2.2,3.8-3.8,4.5c0.1,0.5,0,0.8-0.3,0.9s-0.3,0.3-0.1,0.6c0,0.3,0.3,0.8,0.9,1.4
			c0.2,0,0.6,0.1,0.9,0.3c0.4,0.2,0.7,0.5,1,0.8c0.1,0,0.3,0.2,0.4,0.6c0.2,0.4,0.4,0.7,0.7,1.1c0.3,1.3,0.4,2.6,0.3,3.9
			c-0.1,1.3-0.2,2.6-0.2,3.9c-0.2,0.2-0.4,0.4-0.5,0.7c-0.1,0.3-0.3,0.4-0.7,0.5c-0.6,0.2-1.1,0.4-1.6,0.6c-0.5,0.1-1,0.1-1.7-0.2
			c-3.5,0.3-6.9,0.5-10.1,0.9c-3.2,0.3-6.5,0.6-9.7,0.8c-0.8,0.3-1.6,0.4-2.5,0.4c-0.8,0-1.5,0.6-2,1.6c-0.1,0.5-0.2,0.9-0.3,1.2
			c-0.1,0.3-0.1,0.6,0,1.1c-0.1,0.4-0.2,0.8-0.1,1.4c0.1,0.6,0.2,1.1,0.1,1.6c-0.2,0.2-0.3,0.4-0.1,0.5c0.1,0.2,0.3,0.4,0.5,0.7
			c0.1,0.2,0.4,0.2,0.9,0.1c0.3-0.5,0.6-1.2,0.8-1.9c0.2-0.7,0.4-1.4,0.6-2c0.2-0.6,0.4-1.1,0.8-1.5c0.4-0.4,0.9-0.5,1.7-0.5
			l0.2,0.5l-0.1-0.5c0.6,0.3,1.1,0.6,1.3,1.1c0.2,0.5,0.5,1,0.8,1.7c0,1.8-0.1,3.1-0.3,3.8c0,0.7-0.1,1.3-0.3,1.9
			c-0.2,0.6-0.2,1.3-0.1,2.2c-0.1,1.2-0.2,2.4-0.4,3.6c-0.2,1.2-0.3,2.5-0.4,3.8l0.2,1.5c0.2,1.7,0.6,2.6,1.3,2.9l2.5-0.3
			c0.7-0.1,1.5-0.3,2.3-0.5c0.5,0.3,1.1,0.4,1.7,0.3c0.7-0.1,1.3-0.2,1.8-0.5c1,0,1.9,0,2.9-0.1l3.1-0.4c0.5-0.1,1,0.2,1.6,0.8
			c0.2,0.3,0.3,0.7,0.5,1.1s0.2,0.8,0.1,1.1c0.1,0,0.1,0.2,0,0.5c-0.1,0.4-0.2,0.6-0.2,0.8c0.2,0.3,0.1,0.6-0.1,0.8
			c-0.2,0.2-0.3,0.5-0.3,0.8c-0.7,0.4-0.9,1.4-0.7,2.9c0,0.3,0.3,0.6,0.6,0.7c0.1,0.1,0.2,0.1,0.2,0.5c0.7,1.4,0.9,3.1,0.8,4.9
			c0.1,2.7-0.3,4.8-1.2,6.4c-0.5,0.6-1.3,0.9-2.2,1c-0.8,0.1-1.5,0.4-2.1,1c-0.9,0.4-1.7,1.2-2.3,2.3s-1.5,1.5-2.6,1.3
			c-1.5,0-2.9,0.1-4.2,0.4c-1.4,0.3-2.7,0.5-4,0.6c-1,0-1.8,0.6-2.5,1.8c-0.3,2.4-0.5,4.7-0.6,6.9c-0.1,2.2-0.2,4.5-0.4,6.9
			c0,1-0.1,2-0.2,2.9s0,1.9,0.5,2.8c0.3,0.3,0.7,0.5,1.2,0.5c0.5,0,0.9,0,1.3,0c0.3,0.1,0.5,0.2,0.6,0c0.2-0.1,0.4-0.2,0.6-0.2
			c1.2,0.2,2.5,0.1,3.9-0.2c1.4-0.3,2.7-0.5,4-0.5c0.3-0.2,0.7-0.3,1.2-0.3c0.4,0,0.9-0.1,1.3-0.3c1.6,0,3.1-0.2,4.7-0.4
			s3.1-0.3,4.7-0.2l0.1,0.5c0.5,0.3,0.7,0.6,0.9,1s0.5,0.7,0.8,1c0,1.8-0.1,3.7-0.2,5.4c-0.1,1.8-0.1,3.6-0.2,5.4
			c-0.1,0.9-0.4,1.5-0.8,2s-0.4,1.3-0.2,2.4c0.2,0.8,0.5,1.5,0.8,2.2c0.3,0.6,0.5,1.4,0.6,2.2l-0.4,0c-0.2,1.2-0.3,2.3-0.2,3.4
			s-0.2,2.2-0.8,3.2c-0.3,0.4-0.5,0.8-0.6,1.2c-0.1,0.4-0.3,0.7-0.8,0.7c-0.5,0.2-0.9,0.3-1.3,0.3c-0.4,0-0.9,0.2-1.5,0.6
			c-1.7,0-3.2,0.1-4.6,0.2c-1.4,0.1-2.9,0.2-4.6,0.4c-1.9-0.3-3.7-0.1-5.6,0.6c-1.9,0.6-3.6,0.1-5.3-1.7c-0.6-0.3-1-0.2-1.1,0.1
			c-0.5,0.9-1.1,1.5-1.9,1.7c-0.8,0.3-1.5,0.5-2.4,0.8l-0.2-0.2c-2.2,0.6-4.4,1-6.4,1c-2.1,0.1-4.3,0.4-6.6,0.8
			c-1.4-0.2-2.4-0.9-3.2-2.1c-0.1-0.3-0.2-0.9-0.6-1.7c-0.3-1.1-0.4-2.4-0.3-3.7c0.1-1.4,0-2.5-0.2-3.5c0.2-2.4,0.2-5,0-7.8
			c-0.2-2.8-0.3-5.4-0.2-7.8c0-2.3-0.1-4.7-0.2-7.2c-0.1-2.4-0.1-4.8-0.2-7.2c0-2.2,0-4.4,0-6.6c0-2.2,0-4.4,0-6.6
			c0.2-0.7,0.2-1.4,0-2.3c-0.2-0.8-0.2-1.6,0-2.3c0-4.5,0.1-9.3,0.3-14.1c0.1-4.9,0.3-9.5,0.5-13.9c0-1.3,0.3-2.3,1-2.9
			c0.7-0.6,1.3-1.4,1.8-2.5c0.3-1.4,0.5-2.7,0.4-4.1c0-1.3,0-2.7,0.1-4c0.1-0.5,0.1-1.1,0.2-1.7c0-0.6-0.2-1.1-0.7-1.5
			c-0.8-0.4-1.6-0.5-2.5-0.2c-0.9,0.3-1.8,0.3-2.6,0.1c0-0.2-0.1-0.2-0.2-0.2c-0.1,0.1-0.2,0.1-0.3-0.1c-0.1-0.2-0.2-0.3-0.5-0.1
			c0.1-0.3,0.1-0.5-0.1-0.5c-0.1,0-0.1,0.3-0.1,0.3c-0.3-0.1-0.3-0.3-0.2-0.4c0.1-0.1,0.1-0.3-0.1-0.6c-0.5-0.6-0.6-1.2-0.4-1.8
			c0.2-0.6,0.1-1.3-0.1-2.1c0.1-0.5,0.1-1.1,0.1-1.6c0-0.6,0-1.1,0.1-1.6c0.2-0.2,0.2-0.3,0.2-0.4c0.1-0.1,0.1-0.3,0-0.6
			c0.2-0.5,0.6-0.9,1.1-1.1c0.6-0.2,0.9-0.7,1.1-1.4c0-0.3,0-0.6,0.1-0.8c0.1-0.2,0.1-0.4-0.1-0.7c-0.5-0.3-1.1-0.7-1.9-1.2
			c-0.7-0.5-1.1-1.2-1.2-2c-0.2-2-0.3-4-0.2-6.1c0.1-2.1,0.2-4.2,0.2-6.2c1.2-2.2,2.8-3.2,4.8-3.2c2,0,3.8-0.3,5.4-1
			c1.1-0.3,2-1,2.9-2c0.8-1,1.8-1.4,2.9-1.2l2-0.2l0.4,0l1.4-0.2l3.9-0.5c1.2-0.1,2.5-0.4,3.9-0.7c3.7-0.5,7.6-1,11.6-1.5
			s8-1,12-1.3L176.6,19.6z M254.9,17c-0.6-0.6-1.2-1.1-1.8-1.3c-0.5,0.4-1.1,0.4-1.6,0.3c-0.5-0.2-1.1-0.1-1.6,0.3l-0.9,1.2
			c-0.5,0.5-1,0.5-1.5,0c-0.4-0.5-1-0.7-1.5-0.7c-0.1,0-0.2-0.1-0.3-0.2s-0.2-0.1-0.3,0c-0.8-0.2-1.5-0.2-2,0.1
			c-0.5,0.3-1.2,0.3-2.2,0.1c-0.6,0.5-1.2,1.1-1.6,1.9c-0.4,0.7-1,1-1.8,0.7c-0.4-0.1-0.6-0.3-0.8-0.6c-0.2-0.3-0.5-0.3-0.8-0.2
			l-1.6-0.1c-0.2,0.3-0.4,0.5-0.5,0.6s-0.3,0.3-0.5,0.6c-1.8,4.5-3.5,9-5.2,13.6c-1.7,4.6-3.3,9.3-4.8,14.1
			c-2.5,7-4.9,14.1-7.2,21.2c-2.3,7.1-4.6,14.3-6.7,21.4c-1.9,5.9-3.6,11.8-5.1,17.8c-1.5,6-3.1,12-4.9,18c-0.6,2.7-1.2,5.3-2,7.9
			c-0.8,2.6-1.4,5.2-1.8,7.7c-0.3,0.8-0.5,1.5-0.7,2.3c-0.2,0.7-0.3,1.5-0.3,2.5c0.1,0.6,0.2,1.1,0.6,1.5c0.3,0.4,0.6,0.8,0.9,1.2
			c0.9,0.7,1.7,0.8,2.6,0.2c0.9-0.5,1.6-1.1,2.3-1.8c0.7-0.4,1.2-0.3,1.8,0.3s1.1,0.9,1.6,1c0.3,0,0.7,0,1.2,0c0.5,0,0.8-0.2,1-0.7
			c0.3-0.5,0.7-0.6,1.2-0.4c0.5,0.2,0.9,0.3,1.3,0.5c0.6-0.1,1,0,1.4,0.1c0.4,0.1,0.7,0,1-0.3c0.1,0.2,0,0.3,0,0.5l0.5,0
			c-0.3-0.3-0.4-0.4-0.4-0.4c0.2-0.2,0.3-0.2,0.3,0c0.5-0.3,0.8-0.7,1.1-1c0.3-0.3,0.6-0.7,0.9-1.2c0.7-2.2,1.4-4.4,2-6.7
			c0.6-2.2,1.2-4.4,1.8-6.6c0.2-0.8,0.4-1.3,0.8-1.5s0.7-0.5,1-1c1.9-0.5,3.9-0.8,5.9-0.9c2-0.1,4-0.3,5.9-0.6
			c0.3-0.3,0.7-0.6,1.1-0.8s0.8-0.5,1.1-1c1.2-0.7,2.4-1.1,3.6-1c1.2,0,2.5-0.1,3.9-0.3c0.4,0.3,0.8,0.5,1.3,0.6s0.9,0.5,1.1,1.3
			c0.3,2.1,0.6,4.5,0.8,7.1s0.6,5.3,1,8c0.1,0.3,0.3,0.7,0.5,1.1c0.2,0.4,0.4,0.9,0.6,1.3c0.4,0.6,0.8,0.9,1.3,0.8
			c0.6-0.1,1,0.1,1.4,0.3c0.2-0.3,0.4-0.4,0.5-0.3c0.1,0.1,0.3,0.1,0.5-0.3c-0.1,0.4-0.1,0.5,0,0.5l0.1-0.5l0.7-0.1
			c1-1,2-1.4,3.2-1.2c1.2,0.2,2.3,0.3,3.5,0.2l0.5,0c0.8,0.2,1.3-0.2,1.7-0.8c0.4-0.7,0.7-1.3,0.9-1.9c0.4-0.7,0.8-0.7,1.2-0.1
			c0.1,0.8,0.5,1.4,1.2,2c0.5,0.6,1.1,0.7,1.8,0.3c0.3-0.2,0.6-0.4,0.7-0.8c0.1-0.3,0.3-0.6,0.3-1c-0.2-0.4-0.1-0.9,0.1-1.3
			c0.3-0.4,0.2-0.8,0-1.3c-0.2-0.1-0.3-0.3-0.1-0.6c0.2-0.2,0.2-0.4-0.1-0.6c0-0.8,0-1.6,0-2.5c-0.1-0.9-0.1-1.8,0-2.5
			c-0.4-7.7-0.9-15-1.3-22.1c-0.4-7.1-1-14.5-1.5-22.3c0.1-0.3,0.1-0.6-0.1-0.8c-0.1-0.2-0.2-0.5-0.1-0.8c-0.2-1.8-0.3-3.6-0.4-5.2
			c-0.1-1.6-0.3-3.3-0.5-5.2l0.1-0.5c-0.5-2.7-0.8-5.5-0.9-8.3s-0.4-5.7-0.9-8.7c-0.6-6.6-1.3-13.2-2.2-19.7s-1.7-13.2-2.5-19.9
			C255.9,18.4,255.5,17.6,254.9,17z M236.5,79.2c-0.1,0.5,0,0.8,0.2,1s0.2,0.5,0,0.8c0.3,0.3,0.3,0.5,0.1,0.7
			c0.2,0.6,0.3,1.1,0.4,1.6c0.1,0.5,0.2,1.1,0.2,1.8l0,0.5l0.1,0.9c0.3,0.7,0.4,1.3,0.3,1.7c-0.1,0.4,0,1,0.3,1.9l-0.1,0.7
			c0.1-0.2,0.2-0.2,0.2,0l0,0.2l-0.2,0.2l0.2,0.2c0,0.2,0.1,0.5,0.2,0.9c0.1,0.5,0.2,0.8,0.2,1.1c-0.1,0.6,0,1.4,0.2,2.3
			c0.2,0.9,0.4,1.8,0.5,2.7c0.1,0.9,0.1,1.8-0.1,2.5c-0.2,0.8-0.7,1.3-1.5,1.5c-1.4,0.1-2.9,0.2-4.7,0.3s-3.3,0.2-4.7,0.3
			c-0.2-0.1-0.5-0.2-0.7-0.2c-0.2,0-0.4-0.1-0.4-0.4c-0.1-1.2,0.1-2.3,0.5-3.3c0.4-1,0.8-1.9,1-2.9c1-2.9,2-5.8,3-8.8c1-3,2-6,3-9
			c0.2-0.2,0.5-0.6,0.9-1.2c0.3,0,0.6,0.2,0.7,0.6C236.4,78.5,236.5,78.9,236.5,79.2L236.5,79.2z M239.4,109.7
			c0.1,1-0.1,1.5-0.6,1.7c-0.6,0.2-1.2,0.3-2,0.3c-0.8,0-1.5-0.2-2.1-0.7l0-0.5l-0.2,0c-0.3-0.3-0.3-0.4-0.2-0.5
			c0.1,0,0.2-0.1,0.2-0.3c0.1,0,0.2-0.1,0.2-0.4s0.1-0.3,0.3-0.1c0.6-0.2,1.1-0.5,1.5-0.7s1-0.3,1.6,0c0.2,0,0.5,0.1,0.8,0.3
			C239.2,109.1,239.4,109.4,239.4,109.7L239.4,109.7z M316.2,17.8c0.7,0,1.4,0.5,1.9,1.5l0.2,0.6c-0.1,1.1-0.1,2.1,0,3.1
			c0,1,0,2,0,3.1c-0.1,0.6-0.3,1.1-0.4,1.7s-0.3,1.2-0.4,1.9c0,0.4,0,0.8-0.2,1.1c-0.2,0.4-0.2,0.8,0.1,1.3c0,0.7,0,1.6-0.1,2.7
			c-0.2,0.3-0.2,0.6-0.2,1c0.2,0.4,0.4,0.9,0.5,1.6c0.1,0.5,0.2,1.1,0.4,1.8c-0.1,0.8-0.1,1.7,0,2.7c0.1,0.8-0.1,1.6-0.6,2.3
			c-0.4,0.9-0.9,1.3-1.6,1.3c-0.7,0-1.4,0.2-2,0.5c-1,0.3-1.9,0.7-2.8,1.5c-0.9,0.7-1.7,1.5-2.5,2.2c-1.9,2.1-3.5,4.5-5,6.9
			c-1.4,2.5-2.7,5.2-3.7,8c-0.3,0.9-0.6,1.5-1.1,2.1c-0.4,0.5-0.9,1.2-1.2,2.1l-0.1,0.2c-0.8,1.9-1.5,3.9-2,6
			c-0.5,2.1-0.9,4.3-1,6.5c-0.2,0.4-0.3,1-0.3,1.6c0,0.6,0,1.3-0.1,2c0,1.9,0.2,3.9,0.4,5.9c0.2,2,0.6,3.9,1.3,5.6
			c0.1,0.7,0.2,1.2,0.5,1.7s0.4,0.9,0.4,1.3c1.1,1.8,2.4,3.4,3.9,4.9c1.5,1.5,3.2,2.5,4.9,3c0.8,0.2,1.5,0.3,2.3,0.3
			c0.8,0,1.5,0,2.2-0.3c0.8,0,1.6-0.1,2.4-0.5s1.6-0.4,2.6-0.1c0.4,0.5,0.7,1.2,0.8,2.1c0,0.3,0,0.5-0.1,0.7c-0.1,0.2-0.1,0.5,0,0.9
			l0.2-0.4c-0.1,0.6-0.2,1.1-0.1,1.7s0.2,1,0.5,1.4c0,0.1,0.1,0.3,0.1,0.4c0.1,0.1,0.1,0.3,0,0.6c0.2,0,0.3-0.1,0.3-0.2
			c-0.1,0.3-0.1,0.5,0,0.5s0.1,0.2,0,0.5c0.1,0,0.2,0.1,0.2,0.4c-0.1-0.1-0.2-0.2-0.3-0.2l0.1,0.8c-0.2,0.4-0.3,1-0.2,1.7
			c0.1,0.7-0.1,1.2-0.5,1.5c-0.4,0.7-0.8,1.1-1.4,1.1c-0.6,0-0.9,0.5-0.9,1.6l0-0.4l-0.1,0.4c0.1,0.1,0.1,0.3,0.1,0.4
			c0,0.1,0.1,0.3,0.3,0.6c0.2,0.1,0.4,0.3,0.6,0.5c0.2,0.3,0.3,0.4,0.5,0.3c-0.1,0.1,0,0.5,0.3,1.2c0.2,0.4,0.3,0.8,0.3,1.2
			s0,0.8,0.1,1.2c-0.1,1.1-0.5,2-1,2.6c-0.5,0.6-1.1,1-1.8,1c-0.5,0.2-1.1,0.3-1.6,0.3s-1.1,0.2-1.6,0.5c-4.3,0.8-8.6,0.4-12.9-1.3
			c-4.3-1.7-8.1-4.9-11.5-9.6c-0.6-1.4-1.4-2.7-2.2-3.7s-1.5-2.3-2.1-3.7c-0.4-1.2-0.8-2.3-1.3-3.5c-0.4-1.2-0.7-2.3-1-3.4
			c-0.7-2.2-1.3-4.4-1.7-6.5c-0.4-2.1-0.7-4.3-1-6.4c-0.1-0.9-0.2-1.6-0.1-2c-0.2-1.7-0.3-3.4-0.3-4.9c0-1.5,0-3.1,0-4.9
			s0-3.4,0.2-5c0.1-1.6,0.3-3.1,0.6-4.7c0.5-5.4,1.4-10.3,2.9-14.9c-0.1-0.1,0-0.4,0.2-0.8l2.1-7.2c0.9-2.1,1.8-4.3,2.9-6.5
			c1-2.2,2-4.1,2.8-5.9c0.5-0.6,0.8-1.2,1-1.8c0.5-0.9,1-1.7,1.7-2.6c0.6-0.8,1.2-1.7,1.8-2.6c0.5-0.3,1-0.9,1.5-1.8
			c0.3-0.2,0.5-0.3,0.6-0.5c0.2-0.2,0.3-0.4,0.3-0.7c2.3-2.3,4.6-4.3,7.2-6c2.6-1.7,5.2-2.8,8.1-3.4c0.1-0.1,0.2-0.2,0.4-0.1
			c0.7-0.4,1.4-0.4,2.1-0.3s1.5,0.4,2.2,0.5C314.8,17.8,315.5,17.8,316.2,17.8z M360.7,13.8l5.8-0.4c2-0.1,4-0.2,5.9-0.2
			c0.1-0.3,0.1-0.3,0.2-0.2c0.1,0.1,0.1,0.2,0.2,0.2l4.3-0.3c1.5-0.1,3-0.1,4.4,0.1c0.9,0.3,1.4,1.2,1.4,2.6l-0.1,3.5
			c0.2,1,0.4,2,0.7,3s0.3,2,0.1,3c0,0.9-0.1,2-0.1,3.1c0,1.2-0.1,2.1-0.3,2.8l0.3,0c-0.1,0.1-0.2,0.2-0.4,0.3
			c-0.2,0.1-0.2,0.2-0.2,0.5l0-0.2c-0.2-0.1-0.3,0-0.2,0.2c0,0.1,0,0.2-0.1,0.2c-1,0.1-1.8,0.6-2.3,1.5c-0.1,0.5,0,1,0.5,1.3l0-0.2
			c0.2,0.6,0.4,1,0.5,1.2s0.2,0.6,0.3,1.3c0.2,0.8,0.1,1.5-0.5,2.2c-0.7,0.7-1.5,1-2.5,0.9c-0.9-0.1-1.9-0.1-2.8,0.1
			c-1.2,0.1-2.3,0.1-3.3,0.1c-1,0-2.1,0-3.3,0.1c-0.2,0.1-0.4,0.2-0.6,0.2c-0.2,0-0.3,0.2-0.3,0.6c0,0.9,0.2,1.4,0.7,1.6
			c0.5,0.2,0.9,0.5,1.2,1c0.1,0.3,0.2,0.4,0.4,0.6c0.1,0.1,0.3,0.3,0.4,0.6l-0.1,0c0.5,0.6,0.7,1.4,0.7,2.3s-0.1,1.8-0.2,2.6
			c-0.4,3.3-0.7,6.5-1,9.5s-0.6,6.2-0.9,9.3c0,0.9,0,1.8,0.1,2.6c0.1,0.8,0.1,1.8,0,2.8c-0.2,1.3-0.3,2.6-0.4,3.8s-0.2,2.6-0.3,4
			l-1.6,21c-0.2,2.9-0.4,5.7-0.5,8.4s-0.3,5.5-0.5,8.2c0.1,0.3,0.1,0.5-0.1,0.7s-0.2,0.4-0.2,0.7l0.1,0c-0.4,0.9-0.9,1.4-1.7,1.4
			c-0.8,0-1.5,0-2.2,0.1c-0.3-0.1-0.4-0.3-0.5-0.6c-0.1-0.3-0.2-0.5-0.4-0.8c-0.2-1-0.2-2.1-0.1-3.3s-0.1-2.3-0.6-3.3
			c-0.1,0-0.2-0.1-0.3-0.2s-0.2,0-0.3,0.2c-0.6,1.2-0.8,2.7-0.7,4.5l0.1-0.2l-0.1,0.2c0.1,0.3,0.1,0.4,0,0.6s-0.2,0.3-0.1,0.6
			c0,1-0.3,1.8-0.9,2.2c-0.7,0.4-1.5,0.6-2.4,0.5c-0.9-0.1-1.7-0.1-2.4,0.1c-0.8,0.1-1.3-0.5-1.8-1.6c-0.2-0.8-0.4-1.5-0.4-2.3
			s-0.1-1.6,0-2.3c-0.1-6.1-0.2-12.1-0.2-18.1s-0.1-12-0.1-18.3c0.1-0.4,0.1-0.9,0-1.4c0-0.5,0-1,0-1.6c0-0.7,0.1-1.3,0-2.1
			c0-0.7,0-1.4,0.2-2.1c-0.2-0.2-0.2-0.5-0.2-0.7c0.1-0.2,0-0.4-0.2-0.5c0.2-0.1,0.2-0.5,0.2-1.2c0.1-3.4,0.2-6.8,0.3-10.3
			c0.1-3.5,0.1-6.9,0.2-10.5c0.2-0.1,0.2-0.3,0.1-0.5c-0.1-0.2-0.1-0.4,0.1-0.7c0-1,0.1-2.2,0.1-3.3c0.1-1.2,0-2.3-0.4-3.3
			c-0.2-0.1-0.3-0.3-0.4-0.5c-0.1-0.2-0.3-0.3-0.5-0.5c-1.3,0-2.5,0.1-3.7,0.4s-2.4,0.3-3.6,0.2c-0.1-0.3-0.2-0.3-0.2-0.2
			c0,0.1-0.1,0.1-0.2,0c-0.1-0.3-0.2-0.4-0.4-0.6c-0.1-0.1-0.3-0.3-0.4-0.6c-0.1-0.8-0.3-1.5-0.8-2.1c-0.5-0.6-0.8-1.4-0.9-2.3
			c0.1-0.5,0.2-1.1,0.1-1.8c-0.1-0.8,0.1-1.3,0.5-1.6c0.8-0.4,1.7-0.7,2.5-0.7c0.9,0,1.6-0.3,2.3-1c0.1-0.1,0.1-0.3,0.1-0.6
			s0-0.5,0-0.6c-0.4-0.5-0.8-0.7-1.2-0.7c-0.4,0-0.8-0.1-1.2-0.3l-0.1,0.2c-0.1-0.3-0.2-0.4-0.4-0.4l0,0.2c-0.1,0-0.2-0.1-0.2-0.3
			s-0.1-0.2-0.2,0.1c0-0.3,0-0.3-0.1-0.2c0,0.1-0.1,0.1-0.2,0c-1.1-0.8-1.6-2.1-1.7-3.8c0.1-1.4,0.1-3,0.1-4.6
			c0-1.6,0.2-3.1,0.8-4.5c0.1-0.1,0.2-0.2,0.2-0.2c0.1,0,0.2-0.1,0.2-0.2c1.6-0.5,3.1-0.8,4.5-0.8c1.4,0,3-0.2,4.7-0.4l3.3-0.2
			c1.2-0.1,2.3-0.3,3.4-0.6c0.4,0.2,0.9,0.3,1.3,0.1C359.8,13.7,360.2,13.7,360.7,13.8L360.7,13.8z M370.1,38.7l-0.3-0.6
			c-0.6-0.2-0.9,0.1-1,0.8c-0.1,0.8-0.2,1.4-0.4,1.8c0,0.7-0.1,1.3-0.2,2.1c-0.1,0.7,0.1,1.3,0.4,1.8c0.2,0.2,0.3,0.3,0.4,0.1
			s0.2-0.4,0.3-0.5C370.3,42.3,370.5,40.5,370.1,38.7L370.1,38.7z M436.7,1.1c-0.1-0.1-0.3,0-0.6,0.1s-0.4,0.2-0.6,0
			c-0.9,0.2-1.9,0.4-2.9,0.5s-2,0.3-2.9,0.4c-1.3,0.2-2.5,0.4-3.8,0.6c-1.3,0.2-2.5,0.4-3.8,0.8c-0.1,0.3-0.3,0.4-0.5,0.4
			c-0.3-0.1-0.4,0.1-0.5,0.7c-0.1-0.1-0.2,0-0.2,0.3c0,0.3-0.1,0.5-0.2,0.6c0,1.1,0,2.2,0,3.3s0,2.2,0.2,3.4
			c0.3,0.7,0.5,1.5,0.6,2.5c0.1,0.9,0.2,1.8,0.2,2.6c0.1,0.8,0.3,1.4,0.8,1.8c0.4,0.4,0.8,0.7,1.3,0.9c0.1,0.1,0.1,0.3,0.2,0.7
			c-0.2,0.2-0.3,0.4-0.4,0.7c-0.1,0.2-0.2,0.3-0.5,0.4c-0.3,0.4-0.6,0.7-0.8,0.9c-0.3,0.2-0.5,0.6-0.7,1.4c0.1,0.5,0,1.1-0.1,1.8
			s0,1.2,0.3,1.7c0.3,0.6,0.6,1,1,1.1s0.8,0.2,1.2,0c0.2,0.2,0.3,0.2,0.4,0.2s0.2-0.1,0.4-0.3c0.1,0.2,0.2,0.2,0.2,0.1
			c0.1-0.1,0.1-0.1,0.2,0.1c0.2-0.1,0.5-0.2,0.9-0.1l0.1-0.2c0.2,0.1,0.4,0.1,0.5-0.1c0.1-0.1,0.2-0.1,0.2,0.1l0-0.2
			c0.2-0.1,0.3-0.2,0.5-0.1c0.1,0,0.3,0,0.6,0c0.3,0,0.6,0.3,0.8,1.1c0.1,0.6,0,1.1-0.3,1.4c-0.5,0.3-0.9,0.4-1.3,0.5
			c-0.4,0.1-0.8,0.3-1.2,0.7c-0.6,0.8-1.1,2-1.4,3.7c0,2.1,0,4.3,0,6.4s0,4.2,0,6.3c0.1,0.1,0.1,0.2,0,0.2s-0.1,0.1,0.1,0.2
			c0,0.8,0,1.7,0,2.6s0.1,1.8,0,2.6c-0.2,1.5-0.1,2.8,0.3,4.1c0.5,1.3,0.7,2.6,0.6,4.1c0,3.9,0.1,7.8,0.1,11.9
			c0.1,4,0.2,8.2,0.3,12.5c0.1,0.9,0.1,1.9,0.1,3s0,2.1,0.1,3.1c0,2.7,0,5.5,0.2,8.6c0,1,0.1,2.1,0.1,3.3c0,1.2,0.3,2.1,0.9,2.9
			c0.6,0.6,1.3,0.9,1.8,0.7c0.6,0.2,1.2,0.5,1.9,0.6c0.6,0.2,1.3,0.1,1.9-0.3l0-0.3c0.4-0.2,0.7-0.7,0.7-1.3
			c0.1-0.6,0.1-1.2,0.2-1.9c0.1-0.6,0.1-1.1,0.1-1.5c0-0.4,0.1-0.9,0.2-1.4c0.3-0.4,0.6-0.4,0.9,0.2c0.2,0.6,0.3,1.3,0.4,2.3
			c0.1,0.9,0.2,1.6,0.4,2.1s0.4,0.7,0.7,0.7c0.3,0,0.5,0,0.7,0.1c0.3-0.1,0.6-0.2,0.9-0.1c0.3,0.1,0.5-0.1,0.7-0.5
			c0-0.2,0.1-0.3,0.3-0.2c0.2,0.1,0.2,0,0-0.3l0.1-0.2l-0.1-0.1l0.2,0c0.1-0.6,0.1-1.3,0-1.9c0-0.7,0-1.3,0-1.9c0-0.7,0-1.4,0-2.1
			c0-0.7,0-1.4-0.1-2c0.2-0.6,0.4-1.3,0.5-2c0.2-0.7,0.3-1.4,0.3-2.1c0.1-3.8,0.1-7.5,0.2-11.3c0.1-3.7,0.2-7.5,0.4-11.3
			c0.1-0.5,0.1-1.1,0-1.7c-0.1-0.7,0-1.3,0.3-1.7c0.4-0.2,0.7-0.2,0.9,0.1c1.9,4,3.7,8,5.5,11.9c1.7,4,3.4,8,5.1,12.1
			c0.4,0.8,0.7,1.6,1,2.3s0.7,1.5,1.2,2c1.6,3.7,3,7.4,4.4,11l0.7,1c0.3,0.4,0.6,0.5,1,0.4s0.7-0.2,1-0.3c0.4-0.2,0.5-0.6,0.5-1.2
			s0.1-1,0.4-1.2c0.5-0.3,0.9-0.2,1.3,0.2s0.8,0.7,1.3,0.9c0.9-0.3,1.7-0.6,2.6-1c0.9-0.3,1.7-0.7,2.6-1c0.8-0.4,1.2-1.1,1.2-2.3
			c-0.4-2-0.9-4-1.5-5.9s-1.2-3.8-1.7-5.7c-0.8-2.9-1.7-5.8-2.7-8.8c-1-3-2-6-3-9c-0.5-1.4-0.9-2.7-1.3-4.1s-0.9-2.7-1.3-4.1
			c-0.2-0.8-0.5-1.6-0.8-2.3c-0.3-0.7-0.5-1.6-0.6-2.5c0.1-0.3,0.2-0.7,0.2-1.1c0-0.4,0.1-0.7,0.3-0.9c2.5-3.5,4.6-8,6.1-13.3
			s2.1-10.9,1.8-16.7c-0.2-3.3-0.7-6.5-1.4-9.3s-1.8-5.6-3.1-8.2c-0.2-0.1-0.3-0.2-0.4-0.5c-0.1-0.2-0.2-0.4-0.4-0.5
			c-1.9-3.6-4.2-6-6.9-7.2s-5.3-2-8.1-2.2l0-0.3c-0.2,0.2-0.4,0.2-0.6,0s-0.5-0.2-0.7,0c-0.6,0-1.2,0-1.9,0.1
			c-0.6,0.1-1.3,0.1-1.9,0.1c-0.5,0.2-1,0.2-1.6,0.2s-1.1,0.1-1.6,0.3C437.9,1,437.4,1,436.7,1.1L436.7,1.1z M447.6,27
			c0.3,0.2,0.7,0.3,1.1,0.4c0.4,0.1,0.7,0.4,1.1,0.7c0.2,0.3,0.5,0.5,0.8,0.7s0.5,0.5,0.7,0.8c1.1,1.6,1.7,3.4,1.9,5.5
			c0.2,2,0.1,4-0.3,5.9c-0.4,1.9-1,3.5-1.9,4.9c-0.9,1.4-1.8,2.7-2.7,4c-0.5,0.5-0.9,0.8-1.4,1.1c-0.5,0.3-1,0.5-1.6,0.8
			c-0.2-0.1-0.5-0.3-0.8-0.5c-0.4-0.3-0.5-0.7-0.4-1.3c0.1-1.9,0.2-3.6,0.3-5.2c0.1-1.6,0.2-3.3,0.3-5.2c0-1.4,0.1-2.9,0.3-4.3
			c0.1-1.4,0.3-2.8,0.4-4.2c-0.1-0.5,0-1,0-1.5s0.1-1,0-1.5c0.2-0.7,0.7-1.1,1.2-1.2C446.8,27,447.1,27,447.6,27L447.6,27z
			 M442.7,28.9c0,0.2,0.1,0.4,0.1,0.5s0,0.3-0.2,0.6c0.2,0.3,0.2,0.6,0.1,1.1c-0.1,0.4-0.2,0.8-0.2,1.2c0.1,0.3,0.1,0.5-0.1,0.6
			c-0.1,0.1-0.1,0.3,0,0.5l-0.4,1.1c-0.1-0.2-0.1-0.2-0.1-0.1c0,0.2-0.1,0.2-0.1,0.1c-0.3-0.2-0.4-0.4-0.5-0.7c0-0.9,0-1.9-0.2-2.8
			c-0.1-1,0.1-1.7,0.6-2.3l0,0.2l0.1,0c0-0.2,0-0.3,0.1-0.2c0.1,0.1,0.2,0,0.3-0.2c0,0.2,0.1,0.2,0.1,0.1
			C442.4,28.4,442.5,28.5,442.7,28.9L442.7,28.9z M530.1,2.9c-0.4-0.5-0.8-0.9-1.2-1.1c-0.4,0.3-0.8,0.3-1.2,0.2
			c-0.4-0.2-0.8-0.1-1.2,0.2L525.8,3c-0.4,0.4-0.8,0.4-1.1,0c-0.3-0.4-0.7-0.6-1.1-0.6c-0.1,0-0.1-0.1-0.2-0.2c0-0.1-0.1-0.1-0.2,0
			c-0.6-0.2-1.1-0.2-1.4,0c-0.4,0.2-0.9,0.2-1.6,0c-0.5,0.4-0.9,0.9-1.2,1.4c-0.3,0.6-0.8,0.7-1.4,0.5c-0.3-0.1-0.5-0.3-0.6-0.5
			c-0.1-0.2-0.3-0.3-0.6-0.1l-1.1-0.1c-0.2,0.2-0.3,0.4-0.4,0.5s-0.2,0.2-0.4,0.5c-1.4,3.4-2.8,6.9-4.1,10.5
			c-1.3,3.5-2.6,7.1-3.8,10.8c-2,5.4-3.9,10.8-5.7,16.3s-3.6,11-5.3,16.5c-1.5,4.5-2.9,9.1-4.1,13.7c-1.2,4.6-2.5,9.2-4,13.9
			c-0.5,2.1-1,4.1-1.6,6.1s-1.1,4-1.5,5.9c-0.3,0.6-0.4,1.2-0.5,1.7s-0.2,1.2-0.3,1.9c0,0.5,0.1,0.9,0.4,1.1c0.2,0.3,0.4,0.6,0.6,1
			c0.6,0.6,1.2,0.7,1.9,0.3c0.6-0.4,1.2-0.8,1.7-1.3c0.5-0.3,0.9-0.2,1.3,0.3s0.7,0.7,1.2,0.8c0.2,0,0.5,0,0.9,0
			c0.3,0,0.6-0.1,0.7-0.5c0.2-0.4,0.5-0.5,0.9-0.3c0.3,0.2,0.6,0.3,0.9,0.4c0.4,0,0.8,0,1,0.1c0.3,0.1,0.5,0,0.7-0.2
			c0.1,0.2,0,0.2,0,0.4l0.4,0c-0.2-0.2-0.3-0.3-0.3-0.3c0.2-0.1,0.2-0.1,0.2,0c0.4-0.2,0.6-0.5,0.8-0.8s0.5-0.6,0.7-0.9
			c0.6-1.7,1.1-3.4,1.6-5.1c0.5-1.7,1-3.4,1.5-5.1c0.1-0.6,0.3-1,0.6-1.1c0.3-0.1,0.5-0.4,0.8-0.8c1.4-0.3,2.8-0.5,4.3-0.5
			c1.5,0,2.9-0.1,4.3-0.3c0.2-0.3,0.5-0.4,0.8-0.6c0.3-0.1,0.6-0.4,0.8-0.8c0.9-0.5,1.8-0.8,2.7-0.7c0.9,0.1,1.8,0,2.8-0.1
			c0.3,0.2,0.6,0.4,1,0.5s0.6,0.4,0.7,1c0.2,1.7,0.3,3.5,0.4,5.6c0.1,2,0.3,4.1,0.6,6.3c0.1,0.2,0.2,0.5,0.4,0.9s0.3,0.7,0.4,1.1
			c0.3,0.5,0.6,0.7,0.9,0.7c0.4,0,0.8,0.1,1,0.3c0.2-0.2,0.3-0.3,0.4-0.2c0.1,0.1,0.2,0,0.4-0.2c-0.1,0.3-0.1,0.4,0,0.4l0.1-0.4
			l0.5,0c0.7-0.8,1.5-1,2.3-0.8s1.7,0.3,2.5,0.2l0.4,0c0.6,0.2,0.9-0.1,1.2-0.6s0.5-1,0.7-1.5c0.3-0.5,0.6-0.5,0.9,0
			c0,0.6,0.3,1.1,0.8,1.6c0.4,0.5,0.8,0.6,1.3,0.3c0.2-0.1,0.4-0.3,0.5-0.6s0.2-0.5,0.3-0.7c-0.1-0.4-0.1-0.7,0.1-1
			c0.2-0.3,0.2-0.6,0-1c-0.2-0.1-0.2-0.3,0-0.4c0.2-0.2,0.1-0.3,0-0.4c0.1-0.6,0.1-1.3,0-2c0-0.7,0-1.4,0-2
			c-0.1-6-0.3-11.7-0.5-17.2s-0.4-11.3-0.6-17.4c0.1-0.2,0.1-0.5,0-0.6s-0.1-0.4,0-0.6c-0.1-1.4-0.1-2.8-0.1-4c0-1.3-0.1-2.6-0.3-4
			l0.1-0.4c-0.3-2.1-0.4-4.3-0.5-6.4c0-2.2-0.2-4.4-0.5-6.8c-0.3-5.1-0.6-10.3-1.1-15.4c-0.5-5.1-0.9-10.3-1.4-15.6
			C530.8,4,530.6,3.4,530.1,2.9z M516.4,49c0.1,0.2,0.1,0.4,0,0.6c0.2,0.2,0.2,0.4,0,0.5c0.1,0.5,0.2,0.9,0.3,1.2s0.1,0.8,0.2,1.4
			l0,0.4l0.1,0.7c0.2,0.6,0.3,1,0.2,1.3c-0.1,0.3,0,0.8,0.3,1.5l-0.1,0.5c0.1-0.1,0.1-0.1,0.1,0c0,0.1,0,0.2,0,0.2l-0.1,0.2l0.1,0.2
			c0,0.1,0.1,0.4,0.1,0.7c0.1,0.4,0.1,0.6,0.1,0.9c0,0.5,0,1.1,0.2,1.8c0.1,0.7,0.3,1.4,0.4,2.1c0.1,0.7,0.1,1.4-0.1,2
			c-0.2,0.6-0.5,1-1.1,1.2c-1,0.1-2.1,0.2-3.4,0.2s-2.4,0.1-3.4,0.2c-0.2-0.1-0.3-0.1-0.5-0.1s-0.3-0.1-0.3-0.3
			c-0.1-0.9,0-1.8,0.3-2.5c0.3-0.7,0.6-1.5,0.7-2.2c0.7-2.2,1.4-4.5,2.1-6.8c0.7-2.3,1.4-4.7,2.1-7c0.2-0.1,0.4-0.5,0.7-1
			c0.2,0,0.4,0.1,0.5,0.5c0.1,0.4,0.1,0.6,0.1,0.9C516.3,48.5,516.3,48.8,516.4,49z M518.6,70.8c0.1,0.8-0.1,1.2-0.4,1.4
			c-0.4,0.2-0.9,0.2-1.5,0.2c-0.6,0-1.1-0.2-1.6-0.5l0-0.4l-0.1,0c-0.2-0.2-0.3-0.4-0.2-0.4c0.1,0,0.1-0.1,0.1-0.2
			c0.1,0,0.1-0.1,0.2-0.3c0-0.2,0.1-0.2,0.2-0.1c0.4-0.2,0.8-0.4,1.1-0.6c0.3-0.2,0.7-0.2,1.2,0c0.2,0,0.4,0.1,0.6,0.2
			C518.5,70.3,518.6,70.5,518.6,70.8L518.6,70.8z M558.2,5c0.1-0.1,0.2,0,0.3,0.2s0.2,0.4,0.4,0.4c0.2,0.3,0.3,0.8,0.3,1.4
			s0,1.1,0.1,1.4L559.1,8c0,0.3,0,0.7,0,1.1c0,0.4,0,0.8,0.2,1c-0.1,0.2,0,0.6,0.4,1.1c0.3-0.2,0.6-0.6,0.8-1.1
			c0.2-0.5,0.3-1,0.4-1.6c0.2-0.8,0.3-1.5,0.6-2.2s0.7-1.1,1.3-1.2c0.4,0.2,0.8,0.2,1.2,0.1c0.4-0.1,0.8-0.1,1.3,0.2l-0.1-0.2
			c0.5,0.2,0.7,0.5,0.8,1.1l-0.1-0.2c0.2,0.6,0.3,1.3,0.2,2.1c-0.1,0.8-0.1,1.5-0.1,2.3c0.1,0.2,0.2,0.6,0.2,1.1
			c0.1,0,0.1-0.1,0.1-0.2l0-0.2c0,0.9,0.1,1.7,0.3,2.6c0.2,0.8,0.3,1.7,0.2,2.6c-0.3,1-0.4,2.1-0.5,3.2c0,1.1-0.1,2.3-0.2,3.5
			c-0.6,8-1.2,16.1-1.7,24.3s-0.8,16.2-0.9,24c0,0.4,0,0.9,0,1.6s0.1,1.2,0.4,1.7c0.1,0,0.2,0.1,0.3,0.3c0.1,0.2,0.1,0.2,0.3,0
			c0.3,0.2,0.6,0.2,0.9,0.1c0.3-0.1,0.6-0.1,1,0.1c0.1-0.2,0.1-0.3,0.2-0.2c0.1,0.1,0.2,0.1,0.3,0.1c0.2-0.2,0.4-0.3,0.6-0.2
			c0.2,0.1,0.4,0.1,0.5,0.1c0.4,0,0.9-0.1,1.4-0.2s1-0.1,1.5-0.1c0.1-0.2,0.2-0.3,0.4-0.2c0.1,0.1,0.3,0.1,0.4,0.1
			c1.5,0,2.8-0.1,4.1-0.3c1.3-0.2,2.6-0.2,4.1-0.1c0.7,0.5,1,1.2,0.8,2.3s-0.2,1.9-0.2,2.5c0.1,0.9-0.1,1.6-0.5,2.3
			s-0.5,1.5-0.3,2.3c0.2,0.1,0.2,0.2,0.2,0.4s0,0.3,0.1,0.4c0.5,0.5,0.7,1.1,0.7,1.7c0,0.7,0,1.3,0,2c-0.2,1-0.3,2.1-0.2,3.4
			s-0.4,2-1.4,2.3c-0.4-0.2-0.7-0.2-0.9,0c-0.2,0.2-0.5,0.2-0.9,0c-1.8,0.1-3.7,0.1-5.5,0.2s-3.7,0.3-5.4,0.6
			c-0.6,0.1-1.1,0-1.7-0.3c-0.5-0.2-1-0.5-1.5-0.8c-0.4,0.1-0.8,0.5-1.1,0.9s-0.8,0.7-1.4,0.6c-0.8,0.1-1.7,0.1-2.6,0.1
			c-0.9,0-1.8,0.1-2.6,0.3c-0.5-0.2-0.9-0.4-1.4-0.5c-0.5-0.2-0.8-0.6-0.9-1.4c-0.1-0.2-0.1-0.4-0.2-0.6c0-0.3-0.2-0.5-0.4-0.6
			c-0.2-0.1-0.4,0.1-0.5,0.5c-0.1,0.4-0.2,0.7-0.4,0.9c-0.1,0.3-0.2,0.6-0.4,0.9c-0.1,0.3-0.2,0.6-0.4,0.9c-0.1,0-0.2,0.1-0.3,0.3
			c0,0.2-0.1,0.3-0.3,0.3c-0.3,0-0.5,0-0.7-0.2c-0.2-0.1-0.4-0.3-0.6-0.5c-0.3-1-0.4-2-0.4-3.1c0-1.1,0-2.1,0-3.1
			c0-3.9,0.1-7.9,0.2-12.1c0.1-4.1,0.2-8.1,0.3-11.9c-0.1-0.4-0.2-0.9-0.2-1.3s-0.1-0.8-0.3-1.1l0.1-0.3c-0.2-1.2-0.4-2.4-0.4-3.5
			c0-1.2,0-2.3,0-3.4c0-2.8,0.1-5.6,0.1-8.2c0-2.7,0.1-5.4,0.2-8.2c0.1-3.2,0.2-6.3,0.3-9.4c0.1-3.1,0.2-6.2,0.4-9.4
			c0-0.5,0-1.1,0-1.8c0.1-0.7,0.1-1.3,0.1-2c0-1.5,0.1-3,0.1-4.3s0.2-2.8,0.5-4.2c0.3-0.3,0.5-0.7,0.8-1s0.6-0.5,1-0.7
			c0.6,0.1,1.2,0,1.8-0.2c0.6-0.2,1.2-0.6,1.7-1.2c0.3-0.2,0.7-0.4,1-0.3c0.3,0,0.7,0,1-0.2c0.2,0.2,0.3,0.3,0.5,0.2
			C558,4.7,558.1,4.8,558.2,5L558.2,5z M602.3,11c0.1,0.3,0.2,0.4,0.4,0.4c0.2,0.3,0.3,0.7,0.3,1.3c-0.1,0.6,0,1,0.1,1.3l-0.1-0.3
			c0,0.3,0,0.7,0,1.1s0,0.7,0.2,0.9c-0.1,0.2,0,0.6,0.4,1.1c0.3-0.2,0.6-0.6,0.8-1.1s0.3-1,0.4-1.5c0.2-0.7,0.3-1.5,0.6-2.2
			c0.2-0.7,0.7-1.1,1.3-1.1c0.4,0.2,0.8,0.2,1.2,0.1s0.8-0.1,1.3,0.2l-0.1-0.1c0.5,0.2,0.7,0.5,0.7,1l-0.1-0.1
			c0.2,0.6,0.3,1.3,0.2,2s-0.1,1.5-0.1,2.2c0.1,0.2,0.2,0.6,0.2,1.1c0.1,0,0.1-0.1,0.1-0.2c0,0.7,0.1,1.5,0.3,2.3s0.3,1.6,0.2,2.5
			c-0.3,1-0.4,2-0.5,3.1c-0.1,1.1-0.1,2.2-0.3,3.4c-0.7,7.6-1.2,15.4-1.8,23.2c-0.5,7.8-0.9,15.5-1,23c0,0.4,0,0.9,0,1.5
			c-0.1,0.6,0.1,1.1,0.4,1.6c0.1,0,0.2,0.1,0.3,0.3c0.1,0.2,0.1,0.2,0.3,0c0.3,0.2,0.6,0.2,0.9,0.1s0.6-0.1,1,0.1
			c0.1-0.2,0.1-0.3,0.2-0.2s0.2,0.1,0.3,0.1c0.2-0.2,0.4-0.3,0.6-0.2c0.2,0.1,0.4,0.1,0.5,0.1c0.4,0,0.9-0.1,1.4-0.2
			c0.5-0.1,1-0.1,1.5-0.1c0.1-0.2,0.3-0.3,0.4-0.2c0.1,0.1,0.2,0.1,0.4,0.1c1.5,0,2.8-0.1,4.1-0.3c1.3-0.2,2.6-0.2,4.1-0.1
			c0.7,0.5,1,1.2,0.8,2.2c-0.2,1-0.2,1.8-0.2,2.4c0.1,0.8-0.1,1.6-0.5,2.2c-0.4,0.7-0.5,1.4-0.4,2.2c0.2,0.1,0.2,0.2,0.2,0.4
			c0,0.2,0,0.3,0.1,0.4c0.5,0.5,0.7,1,0.7,1.7s0,1.2-0.1,1.9c-0.2,1-0.3,2-0.2,3.2c0.1,1.2-0.4,1.9-1.4,2.2c-0.4-0.2-0.7-0.2-0.9,0
			c-0.2,0.2-0.5,0.2-0.9,0c-1.8,0.1-3.7,0.1-5.5,0.3c-1.9,0.1-3.7,0.3-5.4,0.5c-0.6,0.1-1.1,0-1.7-0.2s-1-0.5-1.5-0.7
			c-0.4,0.1-0.8,0.4-1.1,0.9c-0.3,0.4-0.8,0.6-1.4,0.6c-0.8,0.1-1.7,0.1-2.6,0.2s-1.8,0.1-2.6,0.3c-0.5-0.2-0.9-0.3-1.4-0.5
			s-0.7-0.6-0.9-1.3c-0.1-0.2-0.1-0.4-0.2-0.6c0-0.3-0.2-0.5-0.4-0.6c-0.2-0.1-0.4,0.1-0.5,0.4c-0.1,0.4-0.2,0.7-0.4,0.9
			c-0.1,0.3-0.2,0.6-0.4,0.9c-0.1,0.3-0.2,0.6-0.4,0.9c-0.1,0-0.2,0.1-0.3,0.3c0,0.2-0.1,0.2-0.3,0.3c-0.3,0-0.5,0-0.7-0.2
			c-0.2-0.1-0.4-0.3-0.6-0.5c-0.3-0.9-0.4-1.9-0.4-2.9c0-1,0-2,0-3c0-3.7,0.1-7.6,0.2-11.5s0.2-7.7,0.3-11.4
			c-0.1-0.4-0.2-0.8-0.2-1.2c0-0.4-0.1-0.8-0.3-1.1l0.1-0.3c-0.2-1.1-0.4-2.2-0.4-3.4c0-1.1,0-2.2,0-3.3c0.1-2.7,0.1-5.3,0.1-7.9
			c0-2.5,0.1-5.2,0.2-7.9c0.1-3,0.2-6,0.3-9c0.1-3,0.2-6,0.4-9c0-0.5,0-1.1,0-1.7c0.1-0.6,0.1-1.3,0.1-1.9c0-1.5,0.1-2.8,0.1-4.1
			s0.2-2.6,0.5-4c0.3-0.3,0.5-0.6,0.9-0.9c0.3-0.3,0.6-0.5,1-0.6c0.6,0.1,1.2,0,1.8-0.2s1.2-0.6,1.7-1.2c0.3-0.2,0.7-0.3,1-0.3
			c0.3,0,0.7,0,1-0.2c0.2,0.2,0.3,0.3,0.5,0.2c0.1-0.1,0.3,0,0.3,0.2C602.1,10.6,602.2,10.7,602.3,11z M667.8,16.3
			c0.2-0.1,0.3,0,0.4,0.2c0.4,0.1,0.8,0.1,1.1,0s0.8-0.1,1.2,0.1c0.5,0.2,0.9,0.2,1.4,0c0.5-0.2,0.9,0,1.2,0.5l0.2,0
			c0.3,1.2,0.2,2.1-0.3,2.9c-0.3,0.6-0.6,1.2-0.9,1.8c-0.3,0.6-0.6,1.3-0.9,2c-0.6,1.5-1.3,2.9-2,4.4c-0.7,1.4-1.4,2.9-2,4.5
			l-4.7,11.4l-4.7,12.5c-0.8,2.1-1.5,4.1-2.3,6c-0.7,2-1.5,4-2.3,6.2c-0.1,0.5-0.2,1-0.3,1.5s-0.2,1.1-0.3,1.5
			c-1.6,3.7-3,7.6-4.3,11.7c-1.4,4.1-2.7,8.2-4.1,12.3l-0.4,1c-0.1,0-0.1,0.1-0.1,0.1c0,0.1-0.1,0.2-0.2,0.3c-0.3,0.5-0.6,0.7-1,0.7
			s-0.7,0-1-0.1l-0.7-0.6c0-0.2,0-0.4-0.1-0.6s-0.1-0.4-0.1-0.7l-0.2,0c0.1-0.1,0-0.2-0.1-0.4c-0.4-0.1-0.6,0-0.8,0.3
			c-0.2,0.3-0.4,0.6-0.7,0.9c0.1,0.1-0.1,0.4-0.1,0.4c-0.1-0.1-0.2-0.1-0.2,0c-0.1,0-0.2,0.1-0.4,0.2c-0.1,0.1-0.3,0.2-0.5,0.2
			l-0.2,0c-0.2-0.1-0.5-0.1-0.8,0c-0.3,0.1-0.7,0.2-1,0.2c-0.3,0-0.6-0.1-0.8-0.4c-0.3-0.2-0.4-0.7-0.5-1.4c0-1.1,0.1-2.1,0.5-2.9
			c3.3-12.2,6.9-24,10.8-35.4c0.1-0.2,0.2-0.5,0.2-0.8c0-0.3,0-0.7,0-1c-0.7-0.7-1.1-1.6-1.4-2.8c-0.3-1.2-0.5-2.4-0.9-3.4
			c-1.1-5-2.2-9.9-3.3-14.9c-1-5-2-10-2.9-15c-0.1-0.3-0.2-0.6-0.1-0.8c0.1-0.2,0.1-0.5,0.2-0.7c0.1-0.3,0.2-0.5,0.3-0.5
			s0.4-0.1,0.5-0.2c0.6-0.2,1.2-0.2,1.7,0.1c0.2,0.2,0.3,0.5,0.5,0.9c0.2,0.4,0.3,0.7,0.4,0.9c0,0.9,0.2,1.5,0.6,1.9
			c0.2,0,0.3-0.1,0.4-0.2c0.2-0.5,0.3-1,0.1-1.5c-0.1-0.5-0.2-1-0.2-1.5c0.1,0,0.2-0.1,0.2-0.4c0-0.2,0.1-0.5,0.2-0.7
			c0.4-0.6,0.9-0.8,1.4-0.7c0.5,0.1,1,0.1,1.5-0.1l2,0c0.1,0.3,0.2,0.4,0.3,0.4c0.1-0.1,0.3,0,0.4,0.2c0.4,0.3,0.8,0.4,1.2,0.3
			c0.4-0.1,0.7,0,1,0.3c0.1-0.1,0.1-0.1,0.3,0c-0.1,0.3,0,0.6,0.2,0.9s0.4,0.6,0.3,1c0.1,0.2,0.1,0.4,0.1,0.7s0,0.5,0.1,0.7
			c0.3,2.4,0.6,4.8,0.9,7s0.6,4.5,1,6.7c0.2,0.3,0.4,0.4,0.5,0.4c0.1,0,0.2-0.1,0.3-0.2c1.1-2.6,2.1-5.1,3.1-7.7s2-5.2,3.1-7.7
			c0.3-0.8,0.7-1.5,1.2-2.2s1-1.1,1.6-1.3c0.8,0.2,1.5,0.2,2.3,0.1s1.5-0.1,2.3,0.1C667.5,16.2,667.6,16.3,667.8,16.3z M690,21.7
			c0.1,0.4,0.2,0.8,0.2,1.1c0,0.4,0,0.7,0.2,1.1c0,0.2,0,0.3,0,0.5c0,0.2,0.1,0.4,0.4,0.5c0.2,0.1,0.4,0.1,0.7-0.2
			c0.4-0.6,0.5-1.3,0.5-2c0-0.7,0.2-1.3,0.8-1.7c0.2-0.4,0.5-0.5,0.8-0.4s0.7,0,1-0.3c0.3,0.1,0.7,0,1,0c0.4,0,0.7,0,1-0.1l0.2,0.1
			c0.1-0.1,0.3-0.1,0.4-0.1c0.2,0.1,0.3,0.1,0.4,0.1c0.5,0.2,0.9,0.6,1.2,1.2c0.2,0.7,0.3,1.3,0.2,1.7c-0.1,0.4-0.2,1-0.2,1.6
			c-1,9.2-1.7,18.5-2.3,27.8c-0.5,9.4-0.9,18.5-1.1,27.5c-0.2,0.2-0.4,0.4-0.6,0.6c-0.2,0.2-0.4,0.4-0.7,0.5c-0.7,0.2-1.3,0.3-2,0.3
			s-1.3,0.1-1.9,0.3c-0.9,0.1-1.7,0.3-2.6,0.5c-0.9,0.2-1.8,0.2-2.7-0.1c-0.2-0.2-0.3-0.5-0.5-0.8s-0.3-0.6-0.5-1
			c-0.2-0.3-0.5-0.5-0.8-0.5c-0.3-0.1-0.7-0.2-1-0.3c-0.3-0.1-0.6-0.3-0.9-0.5c-0.2-0.2-0.4-0.6-0.5-1.1c0-2-0.1-4-0.1-6
			s-0.1-4-0.1-6c0-3.2,0.1-6.3,0-9.3c0-3,0-6.1,0-9.2c0.1-2.9,0.1-5.9,0.1-9c0-3.1,0.1-6.2,0.4-9.2c0-0.9,0-1.8,0.1-2.6
			s0.1-1.8,0-2.7c0-0.3,0.1-0.7,0.1-1c0.1-0.4,0.3-0.7,0.5-0.9c0.2-0.4,0.5-0.6,0.9-0.5c0.4,0.1,0.8,0,1.1-0.1
			c0.7-0.2,1.4-0.3,2.1-0.3c0.7,0,1.3-0.1,2-0.4C688.8,20.6,689.5,20.9,690,21.7z M688.2,85.3c0-0.2,0.1-0.2,0.2-0.1
			s0.2,0.1,0.3-0.1c0.4-0.1,0.9-0.1,1.5-0.1c0.6,0.1,1.2,0.4,1.6,0.9c0.5,0.4,1.1,0.6,1.8,0.5c0.8-0.1,1.4,0.1,1.8,0.6
			c0,0.4,0,0.8,0.2,1.3s0.1,0.9,0,1.2c0.1,0.2,0.1,0.3,0.1,0.4s0,0.2,0.1,0.2c-0.1,0.1-0.2,0.3-0.1,0.5c0,0.2,0,0.3-0.1,0.5
			c0,1.4-0.1,2.8-0.1,4.3c-0.1,1.5-0.1,2.9,0,4.2l0.1,0c-0.1,0-0.2,0.1-0.1,0.4c0.1,0.2,0.1,0.4,0,0.5l0.1-0.1
			c-0.1,1.2-0.3,2.2-0.8,3c-0.1,0.2-0.2,0.3-0.3,0.3s-0.1,0.2-0.2,0.3c-0.3,0.1-0.6,0.3-0.9,0.4c-0.3,0.2-0.6,0.2-0.9,0.1l-0.1,0.1
			c-0.9,0-1.8,0.1-2.7,0.3s-1.8,0.2-2.7,0c-0.5-0.2-0.9-0.5-1.2-0.9c0.1-0.1,0.1-0.1,0-0.1c-0.1,0-0.1-0.1-0.1-0.2l-0.1,0
			c0.1-0.7-0.2-1.2-0.8-1.6c-0.1-0.1-0.3,0-0.5,0.1c-0.2,0.1-0.3,0.3-0.5,0.4c-0.1,0.4-0.2,0.8-0.4,1c0,0.2,0,0.5-0.2,0.7
			c-0.1,0.2-0.3,0.4-0.4,0.6s-0.3,0.3-0.5,0.2s-0.5,0-0.7-0.1c-0.6-0.3-0.9-0.9-0.8-1.7s0-1.5-0.1-2.2c-0.2-1.9-0.2-3.9-0.2-5.9
			c0-2,0-4-0.1-5.9c0.1-0.2,0.1-0.4,0.1-0.7c-0.1-0.3,0-0.6,0.2-0.7c0.2-0.8,0.7-1.4,1.3-1.6c0.6-0.2,1.2-0.4,1.8-0.5
			c0.7,0,1.5-0.1,2.2-0.2s1.4-0.2,2.1-0.3L688.2,85.3z"/>
	</g>
</g>
</svg>
